<?xml version="1.0" encoding="UTF-8"?><svg xmlns="http://www.w3.org/2000/svg" xmlns:xlink="http://www.w3.org/1999/xlink" viewBox="0 0 292.11 312.05"><defs><style>.cls-1{opacity:.82;}.cls-2{fill:#585a5b;}.cls-2,.cls-3,.cls-4,.cls-5,.cls-6,.cls-7,.cls-8,.cls-9,.cls-10,.cls-11,.cls-12,.cls-13,.cls-14,.cls-15{mix-blend-mode:screen;}.cls-16{fill:url(#linear-gradient-2);}.cls-3{fill:url(#linear-gradient-12);}.cls-17{fill:url(#linear-gradient-51);}.cls-4{fill:url(#linear-gradient-59);}.cls-18{fill:#fff;}.cls-19{fill:#ce45d1;}.cls-20{fill:url(#radial-gradient-7);}.cls-20,.cls-21,.cls-22,.cls-23,.cls-24,.cls-25,.cls-26,.cls-27{mix-blend-mode:color-dodge;}.cls-28{fill:url(#linear-gradient-17);}.cls-29{fill:#ffcc94;}.cls-30{fill:#21ddd2;}.cls-31{fill:url(#linear-gradient-43);}.cls-21{fill:url(#radial-gradient-14);}.cls-32{fill:url(#linear-gradient-15);}.cls-33{fill:url(#linear-gradient-58);}.cls-34{opacity:.9;}.cls-35{fill:#e754dd;}.cls-36{fill:#8519ab;}.cls-37{fill:url(#linear-gradient-18);}.cls-38{fill:url(#linear-gradient-56);}.cls-39{fill:url(#linear-gradient-40);}.cls-40{fill:url(#linear-gradient-52);}.cls-41{fill:#b637c4;}.cls-42{fill:url(#linear-gradient-14);}.cls-43{fill:url(#linear-gradient-36);}.cls-44{opacity:.45;}.cls-45{fill:url(#linear-gradient-6);}.cls-46{fill:url(#linear-gradient-53);}.cls-47{isolation:isolate;}.cls-48{opacity:.18;}.cls-49{fill:url(#linear-gradient-37);}.cls-49,.cls-50,.cls-51,.cls-52,.cls-53,.cls-54,.cls-55,.cls-56{mix-blend-mode:multiply;}.cls-57{opacity:.09;}.cls-50{fill:url(#linear-gradient-4);opacity:.82;}.cls-58,.cls-59,.cls-60,.cls-8,.cls-54,.cls-61{opacity:.2;}.cls-62{fill:url(#linear-gradient-60);}.cls-63{fill:#ffb981;}.cls-5{fill:url(#linear-gradient-28);}.cls-64{opacity:0;}.cls-59{fill:url(#linear-gradient-47);}.cls-65{fill:url(#linear-gradient-35);}.cls-51{fill:#bcbfc0;}.cls-66{fill:#1ccdcb;}.cls-67{fill:url(#linear-gradient-11);}.cls-68{fill:url(#linear-gradient-50);}.cls-69{fill:#13abbd;}.cls-70{opacity:.36;}.cls-22{fill:url(#radial-gradient-3);}.cls-6{fill:url(#radial-gradient-13);}.cls-71{fill:#1a0d3d;}.cls-60{fill:url(#linear-gradient);}.cls-72{fill:url(#linear-gradient-10);}.cls-23{fill:url(#radial-gradient-5);}.cls-7{fill:url(#linear-gradient-8);}.cls-73{fill:url(#linear-gradient-49);}.cls-74{fill:#18bcc4;}.cls-75{fill:url(#linear-gradient-31);}.cls-76{fill:url(#linear-gradient-61);}.cls-77{fill:url(#linear-gradient-62);}.cls-78{fill:url(#linear-gradient-41);}.cls-52{fill:#939698;}.cls-79{fill:#ffc38b;}.cls-80{fill:#1e054d;}.cls-81{opacity:.64;}.cls-53{fill:url(#linear-gradient-39);}.cls-82{fill:url(#linear-gradient-21);}.cls-8{fill:url(#radial-gradient-16);}.cls-83{fill:#ff63ea;}.cls-84{fill:#9d28b8;}.cls-85{fill:url(#linear-gradient-25);}.cls-24{fill:url(#radial-gradient-10);}.cls-86{fill:url(#linear-gradient-5);}.cls-9{fill:url(#radial-gradient-2);}.cls-9,.cls-10{opacity:.6;}.cls-87{fill:#25eed9;}.cls-88{fill:url(#linear-gradient-54);}.cls-89{fill:url(#linear-gradient-45);}.cls-90{fill:url(#linear-gradient-55);}.cls-10{fill:url(#radial-gradient);}.cls-25{fill:url(#radial-gradient-4);}.cls-54{fill:url(#radial-gradient-11);}.cls-91{fill:url(#linear-gradient-34);}.cls-55{fill:url(#radial-gradient-12);opacity:.3;}.cls-26{fill:url(#radial-gradient-6);}.cls-92{fill:#2affe0;}.cls-27{fill:url(#radial-gradient-8);}.cls-93{fill:url(#linear-gradient-7);}.cls-11{fill:url(#linear-gradient-16);}.cls-94{fill:#ffd69e;}.cls-95{fill:#ffdfa7;}.cls-12{fill:url(#radial-gradient-15);opacity:.5;}.cls-61{fill:url(#linear-gradient-48);}.cls-96{fill:#ffb078;}.cls-97{fill:url(#linear-gradient-9);}.cls-98{opacity:.73;}.cls-99{fill:url(#linear-gradient-22);}.cls-100{fill:url(#linear-gradient-42);}.cls-101{fill:url(#linear-gradient-3);}.cls-13{fill:url(#linear-gradient-32);}.cls-102{fill:url(#linear-gradient-27);}.cls-103{fill:url(#linear-gradient-33);}.cls-104{opacity:.55;}.cls-105{fill:url(#linear-gradient-38);}.cls-106{fill:url(#linear-gradient-29);}.cls-14{fill:url(#linear-gradient-24);}.cls-107{fill:url(#linear-gradient-30);}.cls-108{fill:url(#linear-gradient-23);}.cls-109{fill:url(#linear-gradient-19);}.cls-110{opacity:.91;}.cls-111{fill:url(#radial-gradient-9);}.cls-112{opacity:.27;}.cls-113{fill:url(#linear-gradient-44);}.cls-114{fill:url(#linear-gradient-57);}.cls-56{fill:#e6e7e8;}.cls-15{fill:url(#linear-gradient-20);}.cls-115{fill:url(#linear-gradient-46);}.cls-116{fill:url(#linear-gradient-13);}.cls-117{fill:url(#linear-gradient-26);}</style><linearGradient id="linear-gradient" x1="73.27" y1="249.26" x2="203.29" y2="249.26" gradientTransform="translate(241.1) rotate(-180) scale(1 -1)" gradientUnits="userSpaceOnUse"><stop offset=".06" stop-color="#190041"/><stop offset=".26" stop-color="#1a0143"/><stop offset=".36" stop-color="#1e084a"/><stop offset=".43" stop-color="#251357"/><stop offset=".47" stop-color="#2a1b61"/><stop offset=".48" stop-color="#2e1f65"/><stop offset=".5" stop-color="#3b2c72"/><stop offset=".51" stop-color="#504188"/><stop offset=".52" stop-color="#6e5fa6"/><stop offset=".53" stop-color="#8070b8"/><stop offset=".54" stop-color="#7666ae"/><stop offset=".56" stop-color="#55458c"/><stop offset=".59" stop-color="#3d2e74"/><stop offset=".61" stop-color="#2e1f66"/><stop offset=".63" stop-color="#2a1b61"/><stop offset=".67" stop-color="#231054"/><stop offset=".75" stop-color="#1b0446"/><stop offset=".81" stop-color="#190041"/><stop offset="1" stop-color="#190041"/></linearGradient><linearGradient id="linear-gradient-2" x1="73.27" y1="229.43" x2="203.29" y2="229.43" xlink:href="#linear-gradient"/><linearGradient id="linear-gradient-3" x1="108.06" y1="237.79" x2="167" y2="205.19" gradientTransform="translate(241.1) rotate(-180) scale(1 -1)" gradientUnits="userSpaceOnUse"><stop offset="0" stop-color="#2a1b61"/><stop offset=".2" stop-color="#220e52"/><stop offset=".49" stop-color="#190041"/><stop offset="1" stop-color="#0c001f"/></linearGradient><linearGradient id="linear-gradient-4" x1="139.32" y1="222.38" x2="150.89" y2="202.98" gradientTransform="translate(241.1) rotate(-180) scale(1 -1)" gradientUnits="userSpaceOnUse"><stop offset="0" stop-color="#fff"/><stop offset="1" stop-color="#000"/></linearGradient><radialGradient id="radial-gradient" cx="139.7" cy="248.74" fx="139.7" fy="248.74" r="46.26" gradientTransform="translate(241.1) rotate(-180) scale(1 -1)" gradientUnits="userSpaceOnUse"><stop offset="0" stop-color="#a38afc"/><stop offset="1" stop-color="#09054d"/></radialGradient><linearGradient id="linear-gradient-5" x1="234.73" y1="260.69" x2="35.76" y2="-14.64" xlink:href="#linear-gradient-3"/><linearGradient id="linear-gradient-6" x1="62.67" y1="12.78" x2="231.95" y2="267.34" gradientTransform="translate(241.1) rotate(-180) scale(1 -1)" gradientUnits="userSpaceOnUse"><stop offset=".01" stop-color="#8519ab"/><stop offset=".43" stop-color="#4f27bd"/><stop offset=".9" stop-color="#32065f"/></linearGradient><linearGradient id="linear-gradient-7" x1="277.01" y1="266.67" x2="120.39" y2="16.43" xlink:href="#linear-gradient"/><radialGradient id="radial-gradient-2" cx="232.58" cy="124.16" fx="232.58" fy="124.16" r="26.66" xlink:href="#radial-gradient"/><linearGradient id="linear-gradient-8" x1="48.72" y1="160.32" x2="75.12" y2="142.5" gradientTransform="translate(241.1) rotate(-180) scale(1 -1)" gradientUnits="userSpaceOnUse"><stop offset="0" stop-color="#fdce5b"/><stop offset=".01" stop-color="#f6c958"/><stop offset=".13" stop-color="#bd9a44"/><stop offset=".25" stop-color="#8b7132"/><stop offset=".37" stop-color="#604e22"/><stop offset=".49" stop-color="#3d3216"/><stop offset=".62" stop-color="#221c0c"/><stop offset=".74" stop-color="#0f0c05"/><stop offset=".87" stop-color="#030301"/><stop offset="1" stop-color="#000"/></linearGradient><linearGradient id="linear-gradient-9" x1="58.42" y1="163.56" x2="85.81" y2="155.36" gradientTransform="translate(241.1) rotate(-180) scale(1 -1)" gradientUnits="userSpaceOnUse"><stop offset=".04" stop-color="#ffa18c"/><stop offset=".3" stop-color="#feb092"/><stop offset=".82" stop-color="#fed8a1"/><stop offset="1" stop-color="#fee8a8"/></linearGradient><linearGradient id="linear-gradient-10" x1="16.7" y1="166.97" x2="79.45" y2="152.91" xlink:href="#linear-gradient-9"/><linearGradient id="linear-gradient-11" x1="60.61" y1="130.42" x2="50.79" y2="149.14" xlink:href="#linear-gradient-9"/><linearGradient id="linear-gradient-12" x1="48.72" y1="134.56" x2="75.12" y2="116.74" xlink:href="#linear-gradient-8"/><linearGradient id="linear-gradient-13" x1="58.42" y1="137.8" x2="85.81" y2="129.6" xlink:href="#linear-gradient-9"/><linearGradient id="linear-gradient-14" x1="16.7" y1="141.22" x2="79.45" y2="127.15" xlink:href="#linear-gradient-9"/><linearGradient id="linear-gradient-15" x1="60.61" y1="104.67" x2="50.79" y2="123.39" xlink:href="#linear-gradient-9"/><linearGradient id="linear-gradient-16" x1="48.72" y1="108.57" x2="75.12" y2="90.75" xlink:href="#linear-gradient-8"/><linearGradient id="linear-gradient-17" x1="58.42" y1="111.81" x2="85.81" y2="103.61" xlink:href="#linear-gradient-9"/><linearGradient id="linear-gradient-18" x1="16.7" y1="115.22" x2="79.45" y2="101.16" xlink:href="#linear-gradient-9"/><linearGradient id="linear-gradient-19" x1="60.61" y1="78.67" x2="50.79" y2="97.39" xlink:href="#linear-gradient-9"/><linearGradient id="linear-gradient-20" x1="199.95" y1="213.59" x2="226.35" y2="195.77" gradientTransform="translate(241.1) rotate(-180) scale(1 -1)" gradientUnits="userSpaceOnUse"><stop offset="0" stop-color="#2affe0"/><stop offset=".02" stop-color="#28f6d8"/><stop offset=".13" stop-color="#1fbda6"/><stop offset=".25" stop-color="#168b7a"/><stop offset=".37" stop-color="#0f6054"/><stop offset=".49" stop-color="#0a3d36"/><stop offset=".62" stop-color="#05221e"/><stop offset=".74" stop-color="#020f0d"/><stop offset=".87" stop-color="#000303"/><stop offset="1" stop-color="#000"/></linearGradient><linearGradient id="linear-gradient-21" x1="209.65" y1="216.83" x2="237.04" y2="208.63" gradientTransform="translate(241.1) rotate(-180) scale(1 -1)" gradientUnits="userSpaceOnUse"><stop offset=".04" stop-color="#13abbd"/><stop offset=".27" stop-color="#17bac3"/><stop offset=".72" stop-color="#22e2d4"/><stop offset="1" stop-color="#2affe0"/></linearGradient><linearGradient id="linear-gradient-22" x1="167.93" y1="220.25" x2="230.68" y2="206.18" xlink:href="#linear-gradient-21"/><linearGradient id="linear-gradient-23" x1="211.84" y1="183.7" x2="202.02" y2="202.42" xlink:href="#linear-gradient-21"/><linearGradient id="linear-gradient-24" x1="199.95" y1="178.1" x2="226.35" y2="160.28" gradientTransform="translate(241.1) rotate(-180) scale(1 -1)" gradientUnits="userSpaceOnUse"><stop offset="0" stop-color="#c211c0"/><stop offset=".01" stop-color="#bc10ba"/><stop offset=".15" stop-color="#8b0c89"/><stop offset=".29" stop-color="#60085f"/><stop offset=".42" stop-color="#3d053c"/><stop offset=".56" stop-color="#220322"/><stop offset=".7" stop-color="#0f010f"/><stop offset=".85" stop-color="#030003"/><stop offset="1" stop-color="#000"/></linearGradient><linearGradient id="linear-gradient-25" x1="209.65" y1="181.34" x2="237.04" y2="173.14" gradientTransform="translate(241.1) rotate(-180) scale(1 -1)" gradientUnits="userSpaceOnUse"><stop offset=".04" stop-color="#8519ab"/><stop offset=".21" stop-color="#9422b2"/><stop offset=".54" stop-color="#bc3ac7"/><stop offset=".99" stop-color="#fd62e9"/><stop offset="1" stop-color="#ff63ea"/></linearGradient><linearGradient id="linear-gradient-26" x1="167.93" y1="184.76" x2="230.68" y2="170.69" xlink:href="#linear-gradient-25"/><linearGradient id="linear-gradient-27" x1="211.84" y1="148.21" x2="202.02" y2="166.93" xlink:href="#linear-gradient-25"/><linearGradient id="linear-gradient-28" x1="199.95" y1="151.67" x2="226.35" y2="133.85" xlink:href="#linear-gradient-24"/><linearGradient id="linear-gradient-29" y1="154.92" x2="237.04" y2="146.71" xlink:href="#linear-gradient-25"/><linearGradient id="linear-gradient-30" x1="167.93" y1="158.33" x2="230.68" y2="144.26" xlink:href="#linear-gradient-25"/><linearGradient id="linear-gradient-31" x1="211.84" y1="121.78" x2="202.02" y2="140.5" xlink:href="#linear-gradient-25"/><linearGradient id="linear-gradient-32" x1="199.95" y1="124.62" x2="226.35" y2="106.8" xlink:href="#linear-gradient-24"/><linearGradient id="linear-gradient-33" y1="127.86" x2="237.04" y2="119.66" xlink:href="#linear-gradient-25"/><linearGradient id="linear-gradient-34" x1="167.93" y1="131.27" x2="230.68" y2="117.21" xlink:href="#linear-gradient-25"/><linearGradient id="linear-gradient-35" x1="211.84" y1="94.72" x2="202.02" y2="113.44" xlink:href="#linear-gradient-25"/><linearGradient id="linear-gradient-36" x1="-2718.86" y1="2710.72" x2="-2716.05" y2="2687.48" gradientTransform="translate(-4864.32 67.69) rotate(150) scale(1 -1) skewX(-30)" gradientUnits="userSpaceOnUse"><stop offset=".03" stop-color="#d3d1d8"/><stop offset="1" stop-color="#edebf2"/></linearGradient><linearGradient id="linear-gradient-37" x1="-2718.92" y1="2710.83" x2="-2716.43" y2="2690.17" xlink:href="#linear-gradient-36"/><linearGradient id="linear-gradient-38" x1="-2725.02" y1="2718.65" x2="-2719.13" y2="2697.58" xlink:href="#linear-gradient-36"/><linearGradient id="linear-gradient-39" x1="-2725.44" y1="2718.54" x2="-2719.96" y2="2698.91" xlink:href="#linear-gradient-36"/><linearGradient id="linear-gradient-40" x1="-2734.72" y1="2727.56" x2="-2719" y2="2700.8" xlink:href="#linear-gradient-36"/><linearGradient id="linear-gradient-41" x1="1236.91" y1="238.79" x2="1384.17" y2="238.79" gradientTransform="translate(1515.31) rotate(-180) scale(1 -1)" xlink:href="#linear-gradient"/><linearGradient id="linear-gradient-42" x1="-1.75" y1="253.42" x2="96.98" y2="181.7" xlink:href="#linear-gradient-3"/><radialGradient id="radial-gradient-3" cx="4985.43" cy="254.07" fx="4985.43" fy="254.07" r="55.58" gradientTransform="translate(-4776.81)" gradientUnits="userSpaceOnUse"><stop offset="0" stop-color="#fff"/><stop offset="1" stop-color="#000"/></radialGradient><linearGradient id="linear-gradient-43" x1="-46.38" y1="232.74" x2="81.32" y2="232.74" gradientTransform="translate(241.1) rotate(-180) scale(1 -1)" gradientUnits="userSpaceOnUse"><stop offset="0" stop-color="#6f1eb2"/><stop offset=".43" stop-color="#4f27bd"/><stop offset=".9" stop-color="#32065f"/></linearGradient><radialGradient id="radial-gradient-4" cx="-734.6" cy="-783.2" fx="-734.6" fy="-783.2" r="22.87" gradientTransform="translate(-383.69 600.13) rotate(-157.66) scale(.57 -.66)" gradientUnits="userSpaceOnUse"><stop offset="0" stop-color="#972a87"/><stop offset=".04" stop-color="#8a267b"/><stop offset=".19" stop-color="#601a56"/><stop offset=".35" stop-color="#3d1136"/><stop offset=".51" stop-color="#22091e"/><stop offset=".67" stop-color="#0f040d"/><stop offset=".83" stop-color="#030103"/><stop offset="1" stop-color="#000"/></radialGradient><linearGradient id="linear-gradient-44" x1="55.81" y1="250.23" x2="77.69" y2="276.82" xlink:href="#linear-gradient-3"/><linearGradient id="linear-gradient-45" x1="57.91" y1="252.79" x2="90.98" y2="284.84" xlink:href="#linear-gradient-3"/><radialGradient id="radial-gradient-5" cx="6970.46" cy="259.93" fx="6970.46" fy="259.93" r="7.11" gradientTransform="translate(-6791.65)" xlink:href="#radial-gradient-3"/><radialGradient id="radial-gradient-6" cx="6958.05" cy="250.6" fx="6958.05" fy="250.6" r="3.28" gradientTransform="translate(-6791.65)" xlink:href="#radial-gradient-3"/><radialGradient id="radial-gradient-7" cx="6982.97" cy="265.07" fx="6982.97" fy="265.07" r="3.28" gradientTransform="translate(-6791.65)" xlink:href="#radial-gradient-3"/><linearGradient id="linear-gradient-46" x1="6972.26" y1="262.48" x2="6968.75" y2="251.27" gradientTransform="translate(-6791.65)" xlink:href="#linear-gradient-3"/><linearGradient id="linear-gradient-47" x1="-50.88" y1="259.54" x2="101.25" y2="259.54" xlink:href="#linear-gradient"/><linearGradient id="linear-gradient-48" x1="-50.88" y1="250.28" x2="101.25" y2="250.28" xlink:href="#linear-gradient"/><linearGradient id="linear-gradient-49" x1="124.79" y1="127.8" x2="114.61" y2="91.86" gradientTransform="translate(241.1) rotate(-180) scale(1 -1)" gradientUnits="userSpaceOnUse"><stop offset=".04" stop-color="#ffb078"/><stop offset=".36" stop-color="#febf85"/><stop offset=".99" stop-color="#fee7a7"/><stop offset="1" stop-color="#fee8a8"/></linearGradient><linearGradient id="linear-gradient-50" x1="142.51" y1="192.29" x2="116.74" y2="114.75" xlink:href="#linear-gradient-21"/><radialGradient id="radial-gradient-8" cx="157.65" cy="115.52" fx="157.65" fy="115.52" r="40.44" gradientTransform="translate(241.1) rotate(-180) scale(1 -1)" gradientUnits="userSpaceOnUse"><stop offset="0" stop-color="#fa45e1"/><stop offset=".21" stop-color="#cb38b7"/><stop offset=".67" stop-color="#57184e"/><stop offset="1" stop-color="#000"/></radialGradient><linearGradient id="linear-gradient-51" x1="-3.58" y1="247.92" x2="3.66" y2="216.72" xlink:href="#linear-gradient-9"/><linearGradient id="linear-gradient-52" x1="31.85" y1="244.42" x2="23.93" y2="220.01" xlink:href="#linear-gradient-9"/><radialGradient id="radial-gradient-9" cx="1288.54" cy="5016.27" fx="1288.54" fy="5016.27" r="2.89" gradientTransform="translate(-3584.57 -3295.09) rotate(118.32) scale(1 -1)" gradientUnits="userSpaceOnUse"><stop offset=".1" stop-color="#849dba"/><stop offset=".21" stop-color="#60748f"/><stop offset=".33" stop-color="#43536d"/><stop offset=".43" stop-color="#2f3c55"/><stop offset=".53" stop-color="#232d47"/><stop offset=".62" stop-color="#1f2942"/><stop offset=".71" stop-color="#242e48"/><stop offset=".83" stop-color="#333d5b"/><stop offset=".98" stop-color="#4c5579"/><stop offset=".98" stop-color="#4d567a"/></radialGradient><linearGradient id="linear-gradient-53" x1="1283.61" y1="5008.62" x2="1294.16" y2="5008.62" gradientTransform="translate(-3584.57 -3295.09) rotate(118.32) scale(1 -1)" gradientUnits="userSpaceOnUse"><stop offset="0" stop-color="#7462b8"/><stop offset=".13" stop-color="#7d39b0"/><stop offset=".25" stop-color="#8519ab"/><stop offset=".26" stop-color="#8118a8"/><stop offset=".34" stop-color="#561187"/><stop offset=".42" stop-color="#340c6e"/><stop offset=".49" stop-color="#1c085b"/><stop offset=".56" stop-color="#0e0550"/><stop offset=".62" stop-color="#09054d"/><stop offset=".67" stop-color="#0d0753"/><stop offset=".75" stop-color="#190d66"/><stop offset=".84" stop-color="#2d1884"/><stop offset=".93" stop-color="#4726ab"/><stop offset=".96" stop-color="#3e1ba4"/><stop offset="1" stop-color="#3b16a1"/></linearGradient><linearGradient id="linear-gradient-54" x1="1283.19" y1="4989.44" x2="1294.23" y2="4989.44" xlink:href="#linear-gradient-53"/><linearGradient id="linear-gradient-55" x1="2729.29" y1="3859.05" x2="2749.06" y2="3860.4" gradientTransform="translate(-3679.03 -2542.08) rotate(90) scale(1 -1)" gradientUnits="userSpaceOnUse"><stop offset="0" stop-color="#d6dde6"/><stop offset=".01" stop-color="#d4dbe5"/><stop offset=".28" stop-color="#b4bde3"/><stop offset=".4" stop-color="#99a4c7"/><stop offset=".53" stop-color="#828faf"/><stop offset=".65" stop-color="#7482a1"/><stop offset=".76" stop-color="#707e9c"/><stop offset=".85" stop-color="#7683a2"/><stop offset=".99" stop-color="#8992b3"/><stop offset="1" stop-color="#8b94b5"/></linearGradient><linearGradient id="linear-gradient-56" x1="1283.24" y1="4950.37" x2="1293.91" y2="4950.37" gradientTransform="translate(-3584.57 -3295.09) rotate(118.32) scale(1 -1)" gradientUnits="userSpaceOnUse"><stop offset=".01" stop-color="#bba1d5"/><stop offset=".05" stop-color="#c2abd9"/><stop offset=".11" stop-color="#d5c6e5"/><stop offset=".2" stop-color="#f5f2f9"/><stop offset=".22" stop-color="#fff"/><stop offset=".25" stop-color="#f8f5fb"/><stop offset=".3" stop-color="#e6dbf1"/><stop offset=".36" stop-color="#cbb4e3"/><stop offset=".43" stop-color="#ab94d5"/><stop offset=".49" stop-color="#937ccb"/><stop offset=".56" stop-color="#856ec5"/><stop offset=".61" stop-color="#8069c3"/><stop offset=".75" stop-color="#8a70c5"/><stop offset="1" stop-color="#a785cb"/><stop offset="1" stop-color="#a886cc"/></linearGradient><linearGradient id="linear-gradient-57" x1="2709.61" y1="3818.67" x2="2725.62" y2="3819.76" gradientTransform="translate(-3679.03 -2542.08) rotate(90) scale(1 -1)" xlink:href="#linear-gradient-56"/><radialGradient id="radial-gradient-10" cx="98.44" cy="175.33" fx="98.44" fy="175.33" r="3.36" gradientTransform="translate(241.1) rotate(-180) scale(1 -1)" gradientUnits="userSpaceOnUse"><stop offset="0" stop-color="#b429b3"/><stop offset=".12" stop-color="#8a1f89"/><stop offset=".26" stop-color="#60155f"/><stop offset=".4" stop-color="#3d0e3d"/><stop offset=".55" stop-color="#220722"/><stop offset=".69" stop-color="#0f030f"/><stop offset=".84" stop-color="#030003"/><stop offset="1" stop-color="#000"/></radialGradient><radialGradient id="radial-gradient-11" cx="472.49" cy="5218.45" fx="472.49" fy="5218.45" r="19.06" gradientTransform="translate(-781.93 -1570.5) rotate(137.45) scale(1 -.38)" gradientUnits="userSpaceOnUse"><stop offset="0" stop-color="#000"/><stop offset="1" stop-color="#fff"/></radialGradient><radialGradient id="radial-gradient-12" cx="472.67" cy="5221.96" fx="472.67" fy="5221.96" r="8.5" xlink:href="#radial-gradient-11"/><radialGradient id="radial-gradient-13" cx="1355.38" cy="-3326.02" fx="1355.38" fy="-3326.02" r="11.6" gradientTransform="translate(1799.82 1817.63) rotate(-152.29) scale(1.63 -.21)" gradientUnits="userSpaceOnUse"><stop offset="0" stop-color="#fff"/><stop offset=".13" stop-color="#ff63ea"/><stop offset="1" stop-color="#000"/></radialGradient><linearGradient id="linear-gradient-58" x1="38.28" y1="203.58" x2="43.53" y2="212.81" gradientTransform="translate(265.07 405.95) rotate(-28.56) scale(1 -1)" xlink:href="#linear-gradient-53"/><radialGradient id="radial-gradient-14" cx="41.6" cy="223.6" fx="41.6" fy="223.6" r="27.45" xlink:href="#radial-gradient-10"/><radialGradient id="radial-gradient-15" cx="-6397.95" cy="4630.27" fx="-6397.95" fy="4630.27" r="6.95" gradientTransform="translate(-4388.42 -1430.16) rotate(128.3) scale(.24 -1) skewX(.01)" gradientUnits="userSpaceOnUse"><stop offset="0" stop-color="#672f97"/><stop offset=".04" stop-color="#5e2b8a"/><stop offset=".19" stop-color="#411d60"/><stop offset=".35" stop-color="#29133d"/><stop offset=".51" stop-color="#170a22"/><stop offset=".67" stop-color="#0a040f"/><stop offset=".83" stop-color="#020103"/><stop offset="1" stop-color="#000"/></radialGradient><radialGradient id="radial-gradient-16" cx="-6556.94" cy="5815.59" fx="-6556.94" fy="5815.59" r="6.95" gradientTransform="translate(-4838.91 -300.34) rotate(106.72) scale(.15 -.86) skewX(.04)" xlink:href="#radial-gradient-15"/><linearGradient id="linear-gradient-59" x1="77.34" y1="65.4" x2="104.68" y2="33.51" gradientTransform="translate(241.1) rotate(-180) scale(1 -1)" gradientUnits="userSpaceOnUse"><stop offset="0" stop-color="#a886cc"/><stop offset=".04" stop-color="#9b7bbc"/><stop offset=".17" stop-color="#725b8b"/><stop offset=".3" stop-color="#4f3f60"/><stop offset=".44" stop-color="#32283d"/><stop offset=".57" stop-color="#1c1622"/><stop offset=".71" stop-color="#0c0a0f"/><stop offset=".85" stop-color="#030203"/><stop offset="1" stop-color="#000"/></linearGradient><linearGradient id="linear-gradient-60" x1="113.72" y1="80.35" x2="142.96" y2="66.19" gradientTransform="translate(241.1) rotate(-180) scale(1 -1)" gradientUnits="userSpaceOnUse"><stop offset="0" stop-color="#9779c8"/><stop offset=".14" stop-color="#9c7fca"/><stop offset=".33" stop-color="#ac91d3"/><stop offset=".55" stop-color="#c7afe1"/><stop offset=".58" stop-color="#cbb4e3"/><stop offset=".76" stop-color="#d6c3e8"/><stop offset="1" stop-color="#e9def3"/></linearGradient><linearGradient id="linear-gradient-61" x1="37.2" y1="84.74" x2="111.91" y2="34.5" xlink:href="#linear-gradient-60"/><linearGradient id="linear-gradient-62" x1="97.74" y1="17.72" x2="79.41" y2="44.49" xlink:href="#linear-gradient-60"/></defs><g class="cls-47"><g id="Layer_2"><g id="Layer_1-2"><g><g><path class="cls-60" d="M49.51,227.14c0,1.75,1.27,3.59,3.76,5.02l35.99,34.35c4.55,2.63,11.44,2.91,15.38,.64l65.47-38.03c1.91-1.1,2.77-2.6,2.64-4.15,.01,.07,.02,.16,.02,.27,0,.05,0,4.9,0,4.95-.03,1.42-.9,2.77-2.66,3.79l-65.47,38.02c-3.94,2.28-10.83,1.99-15.38-.64l-35.99-34.35c-2.53-1.46-3.8-3.33-3.77-5.1,0-.3-.04-3.56,0-4.78Z"/><g class="cls-58"><path class="cls-64" d="M97.96,271.38c3.59,0,6.85-.79,9.43-2.27l65.47-38.03c3.44-1.99,5.41-5.13,5.41-8.62,0-3.83-2.37-7.39-6.51-9.78l-57.46-22.1c-3.25-1.88-7.32-2.91-11.45-2.91-3.59,0-6.85,.79-9.43,2.27l-44,25.78c-3.44,1.99-5.41,5.13-5.41,8.62,0,3.83,2.37,7.39,6.51,9.78l35.99,34.35c3.25,1.88,7.32,2.91,11.45,2.91Z"/><path class="cls-57" d="M93.67,190.37l-43.51,25.49s-.52,.31-.54,.32c-3.43,2.02-4.97,5.19-4.77,8.61s2.81,7.34,6.57,9.51l35.34,33.73c3.37,1.95,7.69,2.91,11.81,2.7,3.27,0,6.91-1.11,9.25-2.46l64.79-37.63c3.3-1.91,5.17-4.9,5.16-8.22-.02-3.63-2.29-7.02-6.26-9.31l-57.1-21.96c-1.16-.67-2.8-1.35-4.15-1.78-2.26-.73-4.72-1.16-7.21-1.19-3.56-.03-6.83,.72-9.38,2.19Z"/><path class="cls-48" d="M93.92,190.8l-43.56,25.52s-.51,.3-.54,.32c-3.42,2.05-4.52,5.22-4.13,8.6,.36,3.11,3.24,7.29,6.63,9.24l34.69,33.11c3.49,2.01,8.07,2.91,12.16,2.5,2.94,0,6.97-1.43,9.07-2.65l64.11-37.23c3.17-1.83,4.94-4.68,4.91-7.82-.03-3.43-2.21-6.65-6.01-8.84l-56.74-21.83c-1.05-.6-2.92-1.36-4.13-1.76-2.23-.75-4.67-1.22-7.14-1.27-3.53-.07-6.8,.66-9.33,2.12Z"/><path class="cls-112" d="M94.17,191.24l-43.61,25.55c-.05,.03-.49,.29-.54,.32-3.41,2.08-4.67,5.37-3.49,8.6,0,2.78,3.68,7.24,6.69,8.98l34.04,32.49c3.61,2.08,8.44,2.91,12.52,2.29,2.61,0,7.02-1.76,8.9-2.84l63.43-36.84c3.03-1.75,4.7-4.46,4.65-7.43-.05-3.23-2.12-6.28-5.76-8.38l-56.38-21.69c-.93-.54-3.04-1.36-4.11-1.73-2.2-.76-4.62-1.29-7.07-1.36-3.5-.1-6.78,.59-9.28,2.04Z"/><path class="cls-70" d="M94.42,191.67l-43.66,25.58c-.07,.04-.48,.28-.54,.32-3.4,2.11-4.42,5.46-2.84,8.59,0,2.44,4.11,7.19,6.75,8.71l33.39,31.87c3.72,2.15,8.82,2.91,12.88,2.08,2.29,0,7.08-2.08,8.72-3.03l62.75-36.44c2.9-1.67,4.47-4.23,4.4-7.03-.07-3.03-2.04-5.9-5.51-7.91l-56.02-21.55c-.81-.47-3.16-1.37-4.09-1.71-2.18-.77-4.56-1.35-7-1.44-3.47-.14-6.75,.53-9.23,1.96Z"/><path class="cls-44" d="M94.67,192.1l-43.71,25.61c-.09,.05-.46,.27-.54,.33-3.4,2.14-4.17,5.54-2.2,8.58,0,2.09,4.55,7.13,6.8,8.44l32.74,31.25c3.84,2.22,9.19,2.91,13.24,1.88,1.96,0,7.14-2.4,8.54-3.22l62.07-36.05c2.76-1.59,4.23-4.01,4.15-6.64-.08-2.83-1.95-5.53-5.26-7.44l-55.66-21.41c-.7-.4-3.27-1.39-4.07-1.68-2.15-.79-4.51-1.41-6.93-1.53-3.44-.17-6.72,.47-9.18,1.88Z"/><path class="cls-104" d="M94.92,192.53l-43.76,25.64c-.1,.06-.45,.27-.54,.33-3.39,2.17-3.93,5.62-1.56,8.58,0,1.74,4.98,7.08,6.86,8.17l32.09,30.63c3.96,2.29,9.57,2.91,13.6,1.67,1.63,0,7.2-2.73,8.37-3.4l61.39-35.65c2.63-1.52,3.99-3.79,3.9-6.24-.1-2.62-1.87-5.16-5-6.97l-55.3-21.27c-.58-.34-3.39-1.4-4.05-1.65-2.12-.8-4.46-1.47-6.86-1.62-3.41-.2-6.7,.4-9.13,1.8Z"/><path class="cls-81" d="M95.17,192.97l-43.81,25.67c-.12,.07-.43,.26-.54,.33-3.38,2.2-3.68,5.71-.92,8.57,0,1.39,5.41,7.03,6.92,7.9l31.44,30.01c4.08,2.36,9.94,2.91,13.95,1.46,1.31,0,7.25-3.05,8.19-3.59l60.71-35.26c2.49-1.44,3.76-3.56,3.65-5.84-.11-2.42-1.78-4.79-4.75-6.5l-54.94-21.13c-.46-.27-3.51-1.42-4.03-1.63-2.1-.82-4.4-1.53-6.79-1.7-3.38-.24-6.67,.34-9.07,1.72Z"/><path class="cls-98" d="M95.42,193.4l-43.86,25.69c-.14,.08-.42,.25-.54,.33-3.37,2.23-3.43,5.79-.28,8.56,0,1.04,5.85,6.98,6.98,7.63l30.79,29.39c4.2,2.42,10.32,2.91,14.31,1.26,.98,0,7.31-3.37,8.01-3.78l60.03-34.86c2.36-1.36,3.52-3.34,3.4-5.45-.13-2.22-1.7-4.41-4.5-6.03l-54.58-21c-.35-.2-3.62-1.44-4.01-1.6-2.07-.83-4.35-1.59-6.72-1.79-3.35-.27-6.65,.27-9.02,1.65Z"/><path class="cls-1" d="M95.67,193.83l-43.9,25.72c-.16,.09-.4,.24-.54,.34-3.36,2.26-3.18,5.87,.36,8.55,0,.7,6.28,6.93,7.03,7.36l30.14,28.76c4.32,2.49,10.69,2.91,14.67,1.05,.65,0,7.37-3.7,7.84-3.97l59.35-34.47c2.22-1.28,3.29-3.12,3.14-5.05-.15-2.02-1.61-4.04-4.25-5.56l-54.22-20.86c-.23-.13-3.73-1.47-3.99-1.57-2.05-.85-4.3-1.66-6.65-1.88-3.32-.31-6.62,.21-8.97,1.57Z"/><path class="cls-110" d="M95.92,194.27l-43.95,25.75c-.17,.1-.38,.23-.54,.34-3.36,2.29-2.94,5.96,1,8.55,0,.35,6.72,6.88,7.09,7.09l29.49,28.14c4.43,2.56,11.07,2.91,15.03,.84,.33,0,7.43-4.02,7.66-4.16l58.67-34.07c2.09-1.2,3.05-2.89,2.89-4.65-.16-1.82-1.53-3.67-4-5.09l-53.86-20.72c-.12-.07-3.85-1.49-3.98-1.55-2.02-.86-4.24-1.72-6.58-1.96-3.29-.34-6.59,.14-8.92,1.49Z"/><path d="M104.64,264.34l65.47-38.03c3.94-2.28,3.45-6.25-1.1-8.88l-57.46-22.1c-4.55-2.63-11.44-2.91-15.38-.64l-44,25.78c-3.94,2.28-3.45,6.25,1.1,8.88l35.99,34.35c4.55,2.63,11.44,2.91,15.38,.64Z"/></g><path class="cls-16" d="M104.64,264.25l65.47-38.03c1.76-1.01,2.63-2.37,2.66-3.79,0-.05,0-4.9,0-4.95-.03-1.73-1.31,1.27-3.77-.15l-57.46-22.1c-4.55-2.63-11.44-2.91-15.38-.64l-44,25.78c-1.32,.76-2.27-2.47-2.61-1.44-.11,.34-.04,4.87-.05,5.22-.04,1.77,1.24,3.64,3.77,5.1l35.99,34.35c4.55,2.63,11.44,2.91,15.38,.64Z"/><path class="cls-101" d="M104.64,259.4l65.47-38.03c3.94-2.28,3.45-6.25-1.1-8.88l-57.46-22.1c-4.55-2.63-11.44-2.91-15.38-.64l-44,25.78c-3.94,2.28-3.45,6.25,1.1,8.88l35.99,34.35c4.55,2.63,11.44,2.91,15.38,.64Z"/><path class="cls-50" d="M52.17,215.53l44-25.78c3.94-2.28,10.83-1.99,15.38,.64l28.95,11.14c-.27,.22-.56,.43-.9,.62l-65.47,38.03c-.91,.52-1.98,.91-3.13,1.16l-17.73-16.92c-4.55-2.63-5.05-6.6-1.1-8.88Z"/><path class="cls-10" d="M53.27,223.59l35.99,34.35c4.55,2.63,11.44,2.91,15.38,.64l65.47-38.03c1.64-.94,2.5-2.18,2.63-3.49,.2,1.61-.66,3.18-2.63,4.32l-65.47,38.03c-3.94,2.28-10.83,1.99-15.38-.64l-35.99-34.35c-2.66-1.54-3.93-3.54-3.74-5.39,.2,1.6,1.46,3.25,3.74,4.56Z"/></g><g><path class="cls-86" d="M19.1,259.61l160.8-92.91c8.22-4.75,14.89-17.48,14.89-28.44V15.28c0-10.96-6.66-16-14.89-11.25L19.1,96.94c-8.22,4.75-14.89,17.48-14.89,28.44v122.98c0,10.96,6.66,16,14.89,11.25Z"/><path class="cls-45" d="M17.19,251.05l158.53-91.59c6.62-4.2,10.71-12.61,10.71-21.2V14.47c0-2.04-2.22-3.3-3.97-2.27-.2,.12-.37,.21-.47,.27L23.29,104.18c-7.88,4.54-10.71,12.61-10.71,21.2v123.39c0,2.18,2.36,3.55,4.26,2.47,.15-.09,.27-.15,.35-.2Z"/><path class="cls-51" d="M23.29,104.18L181.99,12.47c.1-.06,.26-.15,.47-.27,1.76-1.03,3.97,.24,3.97,2.27v123.78c0,8.6-4.09,17-10.71,21.2L17.19,251.05c-.08,.05-.2,.11-.35,.2-1.9,1.08-4.26-.29-4.26-2.47V125.38c0-8.6,2.83-16.66,10.71-21.2ZM14.25,248.78c0,.73,.61,1.18,1.18,1.18,.2,0,.39-.05,.58-.16l158.87-91.78c5.97-3.8,9.87-11.57,9.87-19.75V14.47c0-.6-.5-.97-.97-.97-.17,0-.33,.05-.48,.14L24.12,105.62c-8.16,4.7-9.87,13.34-9.87,19.76v123.4Z"/><path class="cls-93" d="M14.89,94.7L175.68,1.79c3.25-1.88,6.26-2.22,8.71-1.28,.31,.12,4.46,2.33,4.75,2.49,0,0,.01,0,.02,.01-2.54-1.24-5.76-1.01-9.27,1.02L19.1,96.94c-8.22,4.75-14.89,17.48-14.89,28.44v122.98c0,6.84,2.6,11.37,6.55,12.66-.32,.02-.72-.11-1.3-.44-.19-.11-4.69-2.65-4.87-2.78-2.83-1.98-4.59-6.05-4.59-11.68V123.14c0-10.96,6.66-23.69,14.89-28.44Z"/><path class="cls-9" d="M18.39,96.58L179.19,3.67c3.37-1.95,6.47-2.22,8.97-1.15-2.13-.34-4.58,.18-7.18,1.68L20.18,97.12c-8.22,4.75-14.89,17.48-14.89,28.44v122.98c0,6.47,2.33,10.85,5.92,12.4-4.59-.73-7.71-5.45-7.71-12.93V125.02c0-10.96,6.66-23.69,14.89-28.44Z"/></g><g><g><polygon class="cls-7" points="164.67 144.1 182.75 133.57 202.71 144.95 202.71 164.81 184.69 175.22 184.69 175.23 184.68 175.23 184.67 175.23 184.67 175.22 164.67 163.96 164.67 144.1"/><g class="cls-34"><polygon class="cls-97" points="184.69 155.53 184.69 175.23 176.5 170.5 176.5 150.64 184.69 155.53"/><polygon class="cls-72" points="184.67 155.53 184.67 175.23 202.71 164.81 202.71 144.95 184.67 155.53"/><polygon class="cls-67" points="202.71 144.95 184.67 155.53 176.5 150.64 194.58 140.12 202.71 144.95"/></g></g><g><polygon class="cls-3" points="164.67 118.34 182.75 107.82 202.71 119.19 202.71 139.05 184.69 149.46 184.69 149.48 184.68 149.47 184.67 149.48 184.67 149.46 164.67 138.2 164.67 118.34"/><g class="cls-34"><polygon class="cls-116" points="184.69 129.77 184.69 149.48 176.5 144.75 176.5 124.89 184.69 129.77"/><polygon class="cls-42" points="184.67 129.77 184.67 149.48 202.71 139.05 202.71 119.19 184.67 129.77"/><polygon class="cls-32" points="202.71 119.19 184.67 129.77 176.5 124.89 194.58 114.36 202.71 119.19"/></g></g><g><polygon class="cls-11" points="164.67 92.34 182.75 81.82 202.71 93.2 202.71 113.06 184.69 123.47 184.69 123.48 184.68 123.47 184.67 123.48 184.67 123.47 164.67 112.2 164.67 92.34"/><g class="cls-34"><polygon class="cls-28" points="184.69 103.78 184.69 123.48 176.5 118.75 176.5 98.89 184.69 103.78"/><polygon class="cls-37" points="184.67 103.78 184.67 123.48 202.71 113.06 202.71 93.2 184.67 103.78"/><polygon class="cls-109" points="202.71 93.2 184.67 103.78 176.5 98.89 194.58 88.37 202.71 93.2"/></g></g><polygon class="cls-18" points="188.72 117.38 198.82 111.55 198.82 99.96 188.72 105.79 188.72 117.38"/><path class="cls-18" d="M187.74,137.7c0,3.57,2.52,5.01,5.63,3.21,3.11-1.8,5.63-6.14,5.63-9.71s-2.52-5.01-5.63-3.21c-3.11,1.8-5.63,6.14-5.63,9.71Z"/><polygon class="cls-18" points="196.84 164.75 200.01 156.61 196.84 152.14 190.5 155.8 187.33 163.94 190.5 168.41 196.84 164.75"/></g><g><g><polygon class="cls-15" points="13.44 197.37 31.52 186.84 51.48 198.22 51.48 218.08 33.46 228.49 33.46 228.5 33.45 228.5 33.44 228.5 33.44 228.49 13.44 217.23 13.44 197.37"/><g class="cls-34"><polygon class="cls-82" points="33.46 208.8 33.46 228.5 25.27 223.78 25.27 203.92 33.46 208.8"/><polygon class="cls-99" points="33.44 208.8 33.44 228.5 51.48 218.08 51.48 198.22 33.44 208.8"/><polygon class="cls-108" points="51.48 198.22 33.44 208.8 25.27 203.92 43.35 193.39 51.48 198.22"/></g></g><g><polygon class="cls-14" points="13.44 161.88 31.52 151.35 51.48 162.73 51.48 182.59 33.46 193 33.46 193.01 33.45 193.01 33.44 193.01 33.44 193 13.44 181.74 13.44 161.88"/><g class="cls-34"><polygon class="cls-85" points="33.46 173.31 33.46 193.01 25.27 188.29 25.27 168.43 33.46 173.31"/><polygon class="cls-117" points="33.44 173.31 33.44 193.01 51.48 182.59 51.48 162.73 33.44 173.31"/><polygon class="cls-102" points="51.48 162.73 33.44 173.31 25.27 168.43 43.35 157.9 51.48 162.73"/></g></g><g><polygon class="cls-5" points="13.44 135.45 31.52 124.93 51.48 136.3 51.48 156.16 33.46 166.57 33.46 166.59 33.45 166.58 33.44 166.59 33.44 166.57 13.44 155.31 13.44 135.45"/><g class="cls-34"><polygon class="cls-106" points="33.46 146.88 33.46 166.59 25.27 161.86 25.27 142 33.46 146.88"/><polygon class="cls-107" points="33.44 146.88 33.44 166.59 51.48 156.16 51.48 136.3 33.44 146.88"/><polygon class="cls-75" points="51.48 136.3 33.44 146.88 25.27 142 43.35 131.47 51.48 136.3"/></g></g><g><polygon class="cls-13" points="13.44 108.39 31.52 97.87 51.48 109.25 51.48 129.11 33.46 139.52 33.46 139.53 33.45 139.52 33.44 139.53 33.44 139.52 13.44 128.25 13.44 108.39"/><g class="cls-34"><polygon class="cls-103" points="33.46 119.83 33.46 139.53 25.27 134.8 25.27 114.94 33.46 119.83"/><polygon class="cls-91" points="33.44 119.83 33.44 139.53 51.48 129.11 51.48 109.25 33.44 119.83"/><polygon class="cls-65" points="51.48 109.25 33.44 119.83 25.27 114.94 43.35 104.42 51.48 109.25"/></g></g><path class="cls-18" d="M38.67,145.39l9.49,5.41,1.17,5.18-5.06,1.52-9.49-5.41,3.88-6.7Zm9.44,8.57l-.5-2.2-2.78,4.79,2.15-.65,1.13-1.94Zm-.89-2.62l-6.2-3.53-2.94,5.08,6.2,3.53,2.94-5.08Z"/><path class="cls-18" d="M40.03,130.81l-1.89-3.63-2.59-1.48,4.19-7.22,2.59,1.48,4.11-.2c.08,0,.14,.04,.16,.12l2.26,7.68c.04,.12-.01,.31-.13,.46-.11,.15-.26,.22-.36,.17l-.16-.07,.15,.1c.09,.06,.1,.22,.03,.39-.01,.03-.03,.06-.04,.08-.08,.13-.19,.23-.29,.26l-7.83,1.93c-.08,.02-.15,0-.19-.08Zm7.18-2.36l-2.76-1.91c-.38,.43-.86,.63-1.18,.45-.4-.23-.4-.98,0-1.68,.4-.7,1.06-1.08,1.47-.85,.32,.18,.38,.69,.2,1.23l3.06,1.4-1.93-6.56-3.72,.18-3.54,6.1,1.71,3.28,6.69-1.65Z"/><path class="cls-18" d="M38.04,180.43l1.55-2.68c-.68-.17-1.47-.12-2.29,.07-.34,.08-.66,.05-.93-.1-1-.57-.86-2.62,.42-4.29,.7-.91,1.63-1.45,2.33-1.35,.5,.06,.82,.38,.98,.84,.27,.79,.63,1.5,1.12,2.02l1.54-2.65,1.52,.86-.7,1.2,4.4,2.51c.51,.29,.83,.88,.89,1.67l.11,1.36c0,.08,.03,.14,.06,.19l.58,.79c.13,.17,.07,.46-.07,.7-.14,.25-.37,.44-.58,.41l-.86-.12c-.06,0-.13,0-.2,.04l-1.37,.63c-.7,.32-1.36,.34-1.86,.06l-4.42-2.52-.7,1.2-1.52-.86Zm7.09,1.4c.4,.23,.92,.21,1.48-.05l1.36-.63c.17-.08,.33-.11,.48-.09l.28,.04-.23-.32c-.09-.12-.14-.27-.15-.45l-.11-1.36c-.05-.62-.3-1.1-.71-1.33l-4.4-2.51-2.42,4.17,4.42,2.52Z"/><path class="cls-18" d="M37.01,221.19l2.6-4.48c.27-.47,.69-.76,1-.73l.76-1.31c-1.14-1.07-1.03-3.61,.35-5.98,1.5-2.59,3.94-3.99,5.44-3.14,1.5,.86,1.5,3.65,0,6.24-1.37,2.37-3.53,3.74-5.03,3.3l-.76,1.31c.18,.26,.14,.76-.13,1.23l-2.6,4.48c-.33,.56-.85,.87-1.18,.68l-.45-.25c-.33-.19-.33-.79,0-1.35Zm5.64-7.86c.99,.56,2.59-.36,3.58-2.07,.99-1.71,.99-3.55,0-4.11-.99-.56-2.59,.36-3.58,2.07-.99,1.71-.99,3.55,0,4.11Z"/></g><g><g class="cls-58"><path class="cls-64" d="M204.55,312.05c2.23,0,4.26-.49,5.86-1.41l26.33-51.01c2.14-1.23,3.36-3.19,3.36-5.36,0-2.38-1.48-4.6-4.05-6.08l-15.63-5.72c-2.02-1.17-4.55-1.81-7.12-1.81-2.23,0-4.26,.49-5.86,1.41l-68.39,41.83c-2.14,1.23-3.36,3.19-3.36,5.36,0,2.38,1.48,4.6,4.05,6.08l57.69,14.9c2.02,1.17,4.55,1.81,7.12,1.81Z"/><path class="cls-57" d="M235.81,248.32l-15.51-5.68c-.4-.23-.94-.48-1.37-.66-1.72-.74-3.7-1.14-5.69-1.15-1.79,0-3.44,.32-4.84,.93-.31,.13-.68,.33-.96,.49l-67.86,41.51c-1.9,1.1-3.38,3.1-3.52,5.01,0,.05-.01,.1-.01,.15-.2,2.29,1.17,4.53,3.76,6.03l57.69,14.9c1.97,1.14,4.45,1.77,6.95,1.77,2.18,0,4.16-.47,5.72-1.37l26.09-50.55c1.86-1.08,3.12-3.22,3.29-5.09,0-.09,.02-.17,.03-.26,.19-2.29-1.18-4.52-3.77-6.02Z"/><path class="cls-48" d="M235.56,248.46l-15.39-5.63c-.36-.21-.98-.48-1.37-.65-1.7-.74-3.66-1.16-5.64-1.17-1.77,0-3.42,.32-4.8,.93-.28,.12-.7,.34-.95,.49l-67.32,41.18c-1.71,.99-3.47,3.1-3.67,4.82,0,.05-.02,.09-.03,.14-.4,2.21,.85,4.46,3.47,5.97l57.69,14.9c1.93,1.11,4.34,1.72,6.78,1.73,2.12,0,4.06-.45,5.58-1.33l25.85-50.08c1.68-.97,3-3.41,3.22-5.09,.01-.08,.03-.16,.05-.25,.39-2.21-.88-4.45-3.48-5.95Z"/><path class="cls-112" d="M235.32,248.61l-15.27-5.59c-.32-.18-1.01-.48-1.36-.63-1.68-.74-3.63-1.18-5.58-1.19-1.76,0-3.4,.33-4.76,.93-.25,.11-.71,.36-.94,.49l-66.79,40.86c-1.52,.88-3.57,3.11-3.82,4.63,0,.05-.03,.09-.04,.14-.61,2.13,.54,4.39,3.17,5.91l57.69,14.9c1.88,1.09,4.24,1.68,6.61,1.68,2.07,0,3.97-.43,5.45-1.29l25.61-49.62c1.49-.86,2.88-3.61,3.16-5.09,.01-.08,.05-.16,.07-.24,.58-2.13-.58-4.38-3.2-5.89Z"/><path class="cls-70" d="M235.07,248.75l-15.15-5.55c-.28-.16-1.05-.47-1.36-.61-1.66-.74-3.59-1.19-5.53-1.21-1.75-.01-3.37,.33-4.71,.94-.22,.1-.72,.38-.92,.49l-66.26,40.53c-1.33,.77-3.94,3.09-3.97,4.43-.02,.04-.04,.09-.05,.13-.82,2.04,.23,4.32,2.88,5.85l57.69,14.9c1.83,1.06,4.14,1.63,6.44,1.64,2.01,0,3.87-.42,5.31-1.25l25.37-49.16c1.3-.75,3.03-3.78,3.09-5.09,.03-.07,.06-.15,.09-.23,.78-2.04-.28-4.31-2.92-5.83Z"/><path class="cls-44" d="M234.83,248.89l-15.03-5.5c-.24-.14-1.09-.47-1.35-.59-1.64-.74-3.56-1.21-5.48-1.23-1.73-.02-3.35,.33-4.67,.94-.18,.08-.74,.4-.91,.49l-65.72,40.2c-1.14,.66-4.1,3.09-4.13,4.24-.02,.04-.04,.08-.07,.12-1.02,1.96-.08,4.25,2.59,5.79l57.69,14.9c1.78,1.03,4.03,1.59,6.26,1.6,1.96,.01,3.77-.4,5.17-1.2l25.14-48.7c1.12-.65,2.97-3.96,3.02-5.09,.04-.07,.08-.14,.11-.21,.97-1.96,.02-4.23-2.63-5.76Z"/><path class="cls-104" d="M234.58,249.03l-14.91-5.46c-.2-.11-1.13-.47-1.35-.57-1.62-.75-3.52-1.23-5.42-1.25-1.72-.02-3.32,.33-4.63,.94-.15,.07-.75,.41-.89,.5l-65.19,39.88c-.95,.55-4.26,3.09-4.28,4.05-.03,.04-.05,.08-.08,.12-1.23,1.87-.39,4.18,2.29,5.73l57.69,14.9c1.74,1,3.93,1.54,6.09,1.56,1.9,.01,3.67-.38,5.03-1.16l24.9-48.23c.93-.54,2.91-4.15,2.96-5.09,.05-.07,.09-.14,.13-.2,1.17-1.88,.31-4.16-2.35-5.7Z"/><path class="cls-81" d="M234.34,249.17l-14.79-5.41c-.16-.09-1.17-.48-1.34-.56-1.6-.75-3.49-1.24-5.37-1.27-1.7-.02-3.3,.34-4.58,.94-.12,.06-.76,.43-.88,.5l-64.66,39.55c-.76,.44-4.41,3.09-4.43,3.86-.03,.04-.06,.07-.09,.11-1.45,1.79-.7,4.11,2,5.67l57.69,14.89c1.69,.98,3.82,1.5,5.92,1.52,1.84,.02,3.57-.36,4.89-1.12l24.66-47.77c.75-.43,2.86-4.34,2.89-5.09,.05-.06,.11-.13,.16-.19,1.38-1.79,.61-4.09-2.06-5.63Z"/><path class="cls-98" d="M234.09,249.31l-14.67-5.37c-.12-.07-1.21-.48-1.34-.54-1.58-.75-3.46-1.26-5.32-1.29-1.69-.03-3.28,.34-4.54,.95-.09,.04-.78,.45-.86,.5l-64.12,39.23c-.57,.33-4.57,3.09-4.59,3.66-.04,.03-.07,.07-.1,.1-1.66,1.7-1.01,4.04,1.71,5.61l57.69,14.89c1.64,.95,3.72,1.46,5.75,1.48,1.79,.02,3.47-.34,4.75-1.08l24.42-47.31c.56-.32,2.8-4.52,2.82-5.09,.06-.06,.12-.12,.18-.18,1.58-1.7,.91-4.01-1.78-5.57Z"/><path class="cls-1" d="M233.85,249.45l-14.55-5.33c-.08-.05-1.25-.48-1.33-.52-1.57-.75-3.42-1.28-5.26-1.31-1.68-.03-3.25,.34-4.5,.95-.06,.03-.79,.47-.85,.5l-63.59,38.9c-.38,.22-4.73,3.09-4.74,3.47-.04,.03-.08,.07-.12,.1-1.87,1.61-1.32,3.97,1.42,5.56l57.69,14.89c1.6,.92,3.62,1.41,5.58,1.43,1.73,.02,3.38-.33,4.61-1.04l24.18-46.85c.37-.22,2.74-4.71,2.76-5.09,.07-.06,.13-.11,.2-.17,1.78-1.62,1.21-3.94-1.5-5.5Z"/><path class="cls-110" d="M233.6,249.59l-14.43-5.28s-1.28-.48-1.33-.5c-1.55-.76-3.39-1.29-5.21-1.33-1.66-.03-3.23,.34-4.45,.95-.03,.01-.8,.48-.83,.5l-63.06,38.57c-.19,.11-4.89,3.09-4.89,3.28-.04,.03-.09,.06-.13,.09-2.08,1.52-1.63,3.9,1.12,5.5l57.69,14.89c1.55,.89,3.51,1.37,5.41,1.39,1.68,.02,3.28-.31,4.47-1l23.94-46.39c.19-.11,2.68-4.9,2.69-5.09,.08-.05,.15-.11,.22-.16,1.98-1.53,1.51-3.87-1.21-5.44Z"/><path d="M207.71,306.26l26.33-51.01c2.45-1.42,2.14-3.89-.69-5.52l-15.63-5.72c-2.83-1.63-7.11-1.81-9.57-.4l-68.39,41.83c-2.45,1.42-2.14,3.89,.69,5.52l57.69,14.89c2.83,1.63,7.11,1.81,9.57,.4Z"/></g><polygon class="cls-43" points="161.93 301.02 239.34 245.44 215.8 234.54 138.39 290.12 161.93 301.02"/><g><polygon class="cls-69" points="220.51 255.96 229.25 249.68 210.8 241.14 202.05 247.41 220.51 255.96"/><polygon class="cls-74" points="209.05 264.19 217.79 257.91 199.34 249.36 190.6 255.64 209.05 264.19"/><polygon class="cls-66" points="197.59 272.41 206.33 266.13 187.88 257.59 179.14 263.87 197.59 272.41"/><polygon class="cls-30" points="186.13 280.64 194.88 274.36 176.42 265.82 167.68 272.09 186.13 280.64"/><polygon class="cls-87" points="174.67 288.87 183.42 282.59 164.96 274.04 156.22 280.32 174.67 288.87"/><polygon class="cls-92" points="163.22 297.09 171.96 290.82 153.51 282.27 144.76 288.55 163.22 297.09"/></g><polygon class="cls-49" points="161.93 301.02 239.34 245.44 215.8 234.54 155.38 297.98 161.93 301.02"/><polygon class="cls-105" points="184.66 305.59 242.91 242.74 216.24 234.57 157.98 297.42 184.66 305.59"/><g><polygon class="cls-36" points="227.77 255.09 234.35 247.99 213.45 241.58 206.87 248.68 227.77 255.09"/><polygon class="cls-84" points="219.15 264.39 225.73 257.29 204.82 250.88 198.24 257.98 219.15 264.39"/><polygon class="cls-41" points="210.52 273.69 217.1 266.59 196.2 260.19 189.62 267.29 210.52 273.69"/><polygon class="cls-19" points="201.9 283 208.48 275.9 187.58 269.49 181 276.59 201.9 283"/><polygon class="cls-35" points="193.28 292.3 199.86 285.2 178.95 278.8 172.37 285.89 193.28 292.3"/><polygon class="cls-83" points="184.65 301.6 191.23 294.5 170.33 288.1 163.75 295.2 184.65 301.6"/></g><polygon class="cls-53" points="184.66 305.59 242.91 242.74 216.24 234.57 176.4 303.18 184.66 305.59"/><polygon class="cls-39" points="207.97 308.16 245.6 240.32 216.77 235.08 179.14 302.92 207.97 308.16"/><g><polygon class="cls-96" points="234.56 254.03 238.81 246.37 216.22 242.26 211.97 249.93 234.56 254.03"/><polygon class="cls-63" points="228.99 264.07 233.24 256.41 210.65 252.31 206.4 259.97 228.99 264.07"/><polygon class="cls-79" points="223.42 274.11 227.67 266.45 205.08 262.35 200.83 270.01 223.42 274.11"/><polygon class="cls-29" points="217.85 284.15 222.1 276.49 199.51 272.39 195.26 280.05 217.85 284.15"/><polygon class="cls-94" points="212.28 294.2 216.53 286.53 193.94 282.43 189.69 290.09 212.28 294.2"/><polygon class="cls-95" points="206.71 304.24 210.96 296.57 188.37 292.47 184.12 300.13 206.71 304.24"/></g></g><g><g class="cls-58"><path class="cls-64" d="M200.86,286.24c2.33,0,4.45-.51,6.12-1.47l80.59-46.32c2.23-1.29,3.51-3.33,3.51-5.59,0-2.48-1.54-4.8-4.23-6.34l-45.89-26.45c-2.11-1.22-4.75-1.89-7.43-1.89-2.33,0-4.45,.51-6.12,1.47l-80.59,46.32c-2.23,1.29-3.51,3.32-3.51,5.59,0,2.48,1.54,4.79,4.23,6.35l45.89,26.45c2.11,1.22,4.75,1.89,7.43,1.89Z"/><path class="cls-57" d="M227.49,199.79l-80.59,46.32c-2.23,1.29-3.37,3.33-3.22,5.54,.03,.47,.13,.93,.26,1.38,.49,1.73,2.18,3.58,4.14,4.71l45.43,26.19c2.1,1.22,4.76,1.87,7.41,1.83,1.04-.01,2.03-.15,2.96-.35,1.05-.24,2.26-.73,3.1-1.21l80.34-46.18c2.22-1.28,3.38-3.32,3.23-5.53-.04-.55-.16-1.09-.33-1.63-.54-1.64-2.17-3.38-4.04-4.46l-45.33-26.12c-.53-.31-1.25-.65-1.84-.89-1.68-.65-3.56-1.02-5.47-1.04-2.3-.01-4.4,.48-6.04,1.43Z"/><path class="cls-48" d="M227.55,199.93l-80.59,46.32c-2.23,1.28-3.24,3.33-2.94,5.48,.06,.45,.2,.88,.34,1.32,.49,1.54,2.46,3.51,4.22,4.53l44.98,25.92c2.1,1.21,4.77,1.84,7.39,1.78,1.04-.03,2.02-.19,2.94-.41s2.32-.81,3.07-1.25l80.08-46.03c2.22-1.28,3.25-3.31,2.96-5.46-.07-.53-.24-1.04-.42-1.55-.53-1.46-2.42-3.31-4.1-4.29l-44.76-25.8c-.48-.28-1.28-.68-1.81-.89-1.65-.65-3.51-1.04-5.39-1.07-2.27-.03-4.35,.44-5.97,1.38Z"/><path class="cls-112" d="M227.62,200.08l-80.59,46.32c-2.22,1.28-3.12,3.32-2.65,5.43,.09,.43,.27,.83,.42,1.26,.49,1.35,2.74,3.44,4.31,4.35l44.52,25.66c2.1,1.21,4.78,1.82,7.38,1.73,1.04-.04,2.01-.23,2.91-.46,.83-.21,2.37-.9,3.04-1.29l79.83-45.89c2.21-1.27,3.12-3.3,2.69-5.4-.1-.5-.31-.98-.51-1.48-.51-1.28-2.66-3.24-4.16-4.11l-44.2-25.47c-.43-.25-1.31-.7-1.78-.89-1.62-.66-3.45-1.07-5.31-1.1-2.23-.04-4.3,.41-5.9,1.33Z"/><path class="cls-70" d="M227.69,200.23l-80.59,46.32c-2.22,1.28-2.99,3.32-2.36,5.38,.12,.4,.34,.78,.5,1.19,.47,1.17,3.03,3.38,4.4,4.17l44.07,25.4c2.09,1.21,4.79,1.8,7.36,1.67,1.04-.05,2-.27,2.89-.51,.73-.2,2.42-.99,3.01-1.33l79.58-45.74c2.2-1.27,3-3.28,2.41-5.33-.14-.48-.38-.92-.6-1.4-.49-1.1-2.91-3.17-4.22-3.93l-43.63-25.15c-.37-.22-1.34-.72-1.76-.89-1.59-.66-3.4-1.09-5.23-1.14-2.2-.06-4.26,.38-5.83,1.29Z"/><path class="cls-44" d="M227.76,200.37l-80.59,46.32c-2.22,1.28-2.88,3.31-2.08,5.33,.15,.38,.33,.77,.58,1.13,.26,1.05,3.31,3.31,4.49,3.98l43.61,25.14c2.09,1.21,4.8,1.78,7.34,1.62,1.03-.07,1.99-.32,2.87-.57,.62-.18,2.47-1.08,2.98-1.37l79.32-45.59c2.19-1.27,2.88-3.27,2.14-5.27-.17-.45-.46-.86-.69-1.33-.45-.93-3.16-3.1-4.28-3.75l-43.07-24.82c-.32-.18-1.37-.74-1.73-.89-1.57-.66-3.34-1.11-5.15-1.17-2.17-.07-4.21,.35-5.76,1.24Z"/><path class="cls-104" d="M227.83,200.52l-80.59,46.32c-2.22,1.28-2.77,3.31-1.79,5.27,.18,.36,.39,.72,.67,1.07,.22,.87,3.59,3.24,4.57,3.8l43.16,24.87c2.08,1.2,4.81,1.75,7.33,1.57,1.03-.08,1.98-.36,2.85-.62,.51-.15,2.52-1.16,2.94-1.41l79.07-45.45c2.19-1.26,2.77-3.26,1.87-5.2-.2-.43-.44-.85-.77-1.25-.24-.83-3.41-3.03-4.35-3.57l-42.51-24.5c-.27-.15-1.4-.76-1.7-.89-1.54-.66-3.28-1.13-5.06-1.2-2.14-.09-4.16,.32-5.68,1.19Z"/><path class="cls-81" d="M227.9,200.67l-80.59,46.32c-2.21,1.28-2.66,3.31-1.5,5.22,.21,.34,.44,.68,.75,1,.17,.7,3.88,3.17,4.66,3.62l42.7,24.61c2.08,1.2,4.82,1.73,7.31,1.51,1.03-.09,1.96-.4,2.82-.67,.41-.13,2.58-1.25,2.91-1.45l78.82-45.3c2.18-1.26,2.66-3.25,1.59-5.14-.23-.4-.5-.8-.86-1.18-.19-.66-3.66-2.96-4.41-3.39l-41.94-24.17c-.21-.12-1.43-.79-1.67-.89-1.51-.66-3.23-1.15-4.98-1.24-2.1-.1-4.12,.28-5.61,1.15Z"/><path class="cls-98" d="M227.96,200.82l-80.59,46.32c-2.21,1.28-2.56,3.32-1.22,5.17,.23,.32,.5,.64,.83,.94,.13,.52,4.16,3.1,4.75,3.44l42.25,24.35c2.08,1.2,4.84,1.71,7.29,1.46,1.03-.11,1.95-.44,2.8-.73,.31-.1,2.63-1.34,2.88-1.48l78.57-45.16c2.17-1.25,2.56-3.24,1.32-5.08-.25-.38-.56-.75-.95-1.1-.15-.5-3.91-2.89-4.47-3.22l-41.38-23.85c-.16-.09-1.46-.81-1.64-.89-1.48-.66-3.17-1.17-4.9-1.27-2.07-.12-4.07,.25-5.54,1.1Z"/><path class="cls-1" d="M228.03,200.96l-80.59,46.32c-2.21,1.28-2.46,3.33-.93,5.11,.26,.3,.55,.6,.91,.88,.09,.35,4.44,3.03,4.84,3.25l41.79,24.09c2.07,1.2,4.85,1.69,7.28,1.41,1.03-.12,1.93-.48,2.78-.78,.2-.07,2.68-1.43,2.85-1.52l78.31-45.01c2.16-1.25,2.46-3.24,1.04-5.01-.28-.35-.62-.7-1.04-1.03-.1-.33-4.15-2.82-4.53-3.04l-40.82-23.52c-.11-.06-1.49-.84-1.61-.89-1.46-.66-3.12-1.19-4.82-1.3-2.04-.13-4.02,.22-5.47,1.05Z"/><path class="cls-110" d="M228.1,201.11l-80.59,46.32c-2.21,1.27-2.37,3.34-.64,5.06,.28,.28,.61,.56,.99,.81,.04,.17,4.73,2.96,4.92,3.07l41.34,23.82c2.07,1.19,4.86,1.66,7.26,1.35,1.02-.13,1.92-.53,2.76-.83,.1-.04,2.73-1.51,2.82-1.56l78.06-44.87c2.16-1.24,2.36-3.25,.77-4.95-.31-.33-.68-.65-1.13-.95-.05-.17-4.4-2.75-4.59-2.86l-40.25-23.2c-.05-.03-1.52-.87-1.58-.89-1.43-.67-3.06-1.22-4.74-1.34-2-.14-3.98,.19-5.4,1Z"/><path d="M204.16,280.2l80.59-46.32c2.56-1.48,2.24-4.06-.72-5.76l-45.89-26.45c-2.95-1.7-7.42-1.89-9.98-.41l-80.59,46.32c-2.56,1.48-2.24,4.06,.72,5.76l45.89,26.45c2.95,1.7,7.42,1.89,9.98,.41Z"/></g><path class="cls-78" d="M192.97,279.67l-45.39-26.16c-1.81-1.04-2.71-2.43-2.73-3.9,0-.13,0-2.94,.01-3.07,.15-1.69,1.45-.76,3.85-2.15l79.5-45.84c4.67-2.7,11.74-2.99,15.78-.65l45.39,26.16c1.81,1.04,2.7-.79,2.73,.67,0,.13,0,3.48-.01,3.61-.15,1.69-1.45,3.45-3.85,4.84l-79.5,45.84c-4.67,2.7-11.74,2.99-15.78,.65Z"/><path class="cls-100" d="M192.97,276.6l-45.39-26.16c-4.04-2.34-3.54-6.41,1.13-9.11l79.5-45.84c4.67-2.7,11.74-2.99,15.78-.65l45.39,26.16c4.04,2.34,3.54,6.41-1.13,9.11l-79.5,45.84c-4.67,2.7-11.74,2.99-15.78,.65Z"/><path class="cls-22" d="M147.58,250.04l45.39,26.16c4.04,2.34,11.11,2.04,15.78-.65l79.5-45.84c2.46-1.42,3.76-3.22,3.86-4.95,.1,1.85-1.21,3.82-3.86,5.35l-79.5,45.84c-4.67,2.7-11.74,2.99-15.78,.65l-45.39-26.16c-1.92-1.11-2.81-2.6-2.72-4.16,.08,1.41,.97,2.75,2.72,3.76Z"/><path class="cls-71" d="M151.29,242.64l79.18-45.65c3.43-1.98,8.61-2.19,11.58-.48l44.44,25.61c2.97,1.71,2.6,4.71-.83,6.69l-79.18,45.65c-3.43,1.98-8.61,2.19-11.58,.48l-44.44-25.61c-2.97-1.71-2.6-4.71,.83-6.69Z"/><path class="cls-31" d="M159.78,238.57l71.87-41.44c2.78-1.6,7.3-1.6,10.1,.02l43.63,25.14c2.8,1.61,2.81,4.23,.03,5.83l-71.86,41.43-53.77-30.99Z"/><path d="M164.94,263.25l6.42,3.71h0c0-1.17-.71-2.53-1.59-3.04l-3.23-1.87c-.88-.51-1.59,.03-1.59,1.2h0Z"/><path class="cls-25" d="M187.86,272.91c-3.19,7.75-.39,16.25,6.24,18.98,6.64,2.73,14.6-1.35,17.78-9.1,3.19-7.75,.39-16.25-6.24-18.98-6.64-2.73-14.6,1.35-17.78,9.1Z"/><g><path class="cls-80" d="M283.57,228.05c.08,0,.15-.04,.2-.11,.06-.11,.03-.25-.08-.31l-2.14-1.26c-.11-.06-.25-.03-.31,.08-.06,.11-.03,.25,.08,.31l2.14,1.26s.08,.03,.11,.03Z"/><path class="cls-80" d="M277.44,231.58c.08,0,.15-.04,.2-.11,.06-.11,.03-.25-.08-.31l-2.14-1.26c-.11-.06-.25-.03-.31,.08s-.03,.25,.08,.31l2.14,1.26s.08,.03,.11,.03Z"/><path class="cls-80" d="M271.31,235.1c.08,0,.15-.04,.2-.11,.06-.11,.03-.25-.08-.31l-2.14-1.26c-.11-.06-.25-.03-.31,.08s-.03,.25,.08,.31l2.14,1.26s.08,.03,.11,.03Z"/><path class="cls-80" d="M265.18,238.62c.08,0,.15-.04,.2-.11,.06-.11,.03-.25-.08-.31l-2.14-1.26c-.11-.06-.25-.03-.31,.08s-.03,.25,.08,.31l2.14,1.26s.08,.03,.11,.03Z"/><path class="cls-80" d="M259.05,242.14c.08,0,.15-.04,.2-.11,.06-.11,.03-.25-.08-.31l-2.14-1.26c-.11-.06-.25-.03-.31,.08s-.03,.25,.08,.31l2.14,1.26s.08,.03,.11,.03Z"/><path class="cls-80" d="M252.92,245.66c.08,0,.15-.04,.2-.11,.06-.11,.03-.25-.08-.31l-2.14-1.26c-.11-.06-.25-.03-.31,.08s-.03,.25,.08,.31l2.14,1.26s.08,.03,.11,.03Z"/><path class="cls-80" d="M246.79,249.19c.08,0,.15-.04,.2-.11,.06-.11,.03-.25-.08-.31l-2.14-1.26c-.11-.06-.25-.03-.31,.08s-.03,.25,.08,.31l2.14,1.26s.08,.03,.11,.03Z"/><path class="cls-80" d="M240.66,252.71c.08,0,.15-.04,.2-.11,.06-.11,.03-.25-.08-.31l-2.14-1.26c-.11-.06-.25-.03-.31,.08s-.03,.25,.08,.31l2.14,1.26s.08,.03,.11,.03Z"/><path class="cls-80" d="M234.53,256.23c.08,0,.15-.04,.2-.11,.06-.11,.03-.25-.08-.31l-2.14-1.26c-.11-.06-.25-.03-.31,.08s-.03,.25,.08,.31l2.14,1.26s.08,.03,.11,.03Z"/><path class="cls-80" d="M228.4,259.75c.08,0,.15-.04,.2-.11,.06-.11,.03-.25-.08-.31l-2.14-1.26c-.11-.06-.25-.03-.31,.08s-.03,.25,.08,.31l2.14,1.26s.08,.03,.11,.03Z"/><path class="cls-80" d="M222.27,263.27c.08,0,.15-.04,.2-.11,.06-.11,.03-.25-.08-.31l-2.14-1.26c-.11-.06-.25-.03-.31,.08s-.03,.25,.08,.31l2.14,1.26s.08,.03,.11,.03Z"/><path class="cls-80" d="M216.14,266.8c.08,0,.15-.04,.2-.11,.06-.11,.03-.25-.08-.31l-2.14-1.26c-.11-.06-.25-.03-.31,.08-.06,.11-.03,.25,.08,.31l2.14,1.26s.08,.03,.11,.03Z"/></g><g><path d="M158.4,246.16h0c1.89-1.29,4.35-1.38,6.32-.23l35.46,20.65c1.58,.92,1.66,3.17,.15,4.21h0c-2.07,1.42-4.77,1.52-6.94,.26l-34.83-20.28c-1.73-1.01-1.82-3.47-.17-4.59Z"/><path class="cls-113" d="M158.4,245.13h0c1.89-1.29,4.35-1.38,6.32-.23l35.46,20.65c1.58,.92,1.66,3.17,.15,4.21h0c-2.07,1.42-4.77,1.52-6.94,.26l-34.83-20.28c-1.73-1.01-1.82-3.47-.17-4.59Z"/><path d="M169.64,256.83l7.26-4.96c.67-.46,1.53-.49,2.23-.08l8.8,5.12c.54,.32,.57,1.09,.05,1.45l-7.26,4.96c-.67,.46-1.53,.49-2.23,.08l-8.8-5.12c-.54-.32-.57-1.09-.05-1.45Z"/><path class="cls-89" d="M169.64,256.27l7.26-4.96c.67-.46,1.53-.49,2.23-.08l8.8,5.12c.54,.32,.57,1.09,.05,1.45l-7.26,4.96c-.67,.46-1.53,.49-2.23,.08l-8.8-5.12c-.54-.32-.57-1.09-.05-1.45Z"/><path class="cls-23" d="M187.98,257.3l-7.25,4.96c-.67,.46-1.54,.49-2.23,.08l-8.8-5.12c-.2-.12-.32-.29-.38-.48-.11,.36,.02,.77,.38,.99l8.8,5.12c.7,.41,1.57,.37,2.23-.08l7.25-4.96c.33-.23,.44-.62,.33-.96-.05,.18-.16,.35-.33,.46Z"/><polygon class="cls-26" points="162.77 253.19 162.77 252.12 169.56 247.71 170.03 247.96 163.34 252.4 163.34 253.5 162.77 253.19"/><polygon points="163.08 253.44 163.08 252.37 169.88 247.96 170.35 248.21 163.65 252.65 163.65 253.75 163.08 253.44"/><polygon class="cls-20" points="187.69 267.65 187.69 266.59 194.48 262.17 194.95 262.42 188.25 266.87 188.25 267.96 187.69 267.65"/><polygon points="188 267.9 188 266.84 194.8 262.42 195.27 262.67 188.57 267.12 188.57 268.21 188 267.9"/><path class="cls-115" d="M174.61,256.33l3.08-2.12c.46-.32,1.07-.34,1.55-.06l3.89,2.26c.45,.26,.47,.9,.05,1.2l-3.08,2.12c-.46,.32-1.07,.34-1.55,.06l-3.89-2.26c-.45-.26-.47-.9-.05-1.2Z"/></g><g><path class="cls-59" d="M144.86,251.29c.08,1.41,.98,2.74,2.72,3.75l19.15,11.04-2.37,1.71-16.78-9.67c-1.81-1.04-2.71-2.44-2.73-3.9,0-.11,0-2.32,.01-2.92Z"/><path class="cls-61" d="M231.47,267.44l56.78-32.74c2.87-1.66,4.16-3.83,3.8-5.81,.04,.09,.06,.23,.07,.44,0,.13,0,3.48-.01,3.61-.15,1.69-1.45,3.45-3.85,4.84l-58.77,33.88,1.99-4.22Z"/></g></g><path class="cls-56" d="M119.29,123.66c-5.59,3.22-10.11,.64-10.11-5.77s4.53-14.22,10.11-17.44c5.59-3.22,10.11-.64,10.11,5.77s-4.53,14.22-10.11,17.44Zm-33.96-3.19c9.23-5.33,15.79,34.25,26.08,28.31,10.29-5.94,14.02-23.56,22.18-28.28,5.65-3.26,12.1,19.99,16.68,23.56v.36l-86.4,49.88v-.97c7.1-12.63,14.39-68.77,21.47-72.86Zm-18.57,2.17v1.2l16.85-9.92v-1.56l3.46-2v1.52l13.14-7.74v-.93l3.17-1.83v3.64l-3.17,1.83v-1.66l-12.57,7.4c.54,0,1.08,.06,1.61,.23,3.31,1.02,5.81,5.2,8,9.68l1.5-.86c.14-.08,.31-.08,.45,0,.14,.08,.23,.23,.23,.39v3.97c0,.16-.09,.31-.23,.39l-3.46,2c-.07,.04-.15,.06-.23,.06s-.16-.02-.23-.06c-.14-.08-.23-.23-.23-.39v-3.97c0-.16,.09-.31,.23-.39l1.18-.68c-2.03-4.13-4.49-8.35-7.49-9.27-.62-.19-1.26-.24-1.91-.15v.79l-3.46,2v-1.05c-2.75,2.46-6.64,8.44-8.94,17.96l1.03-.59c.14-.08,.31-.08,.45,0,.14,.08,.23,.23,.23,.39v3.97c0,.16-.09,.31-.23,.39l-3.46,2c-.07,.04-.15,.06-.23,.06s-.16-.02-.23-.06c-.14-.08-.23-.23-.23-.39v-3.97c0-.16,.09-.31,.23-.39l1.35-.78c1.79-7.86,4.9-14.07,7.84-17.6l-14.66,8.63v1.39l-3.17,1.83v-3.64l3.17-1.83Zm29.21,1.65v2.93l2.56-1.48v-2.93l-2.56,1.48Zm-23.06,11v2.93l2.56-1.48v-2.93l-2.56,1.48Z"/><path class="cls-73" d="M110.53,118.35c0,6.41,4.53,8.99,10.11,5.77,5.59-3.22,10.11-11.03,10.11-17.44s-4.53-8.99-10.11-5.77c-5.59,3.22-10.11,11.03-10.11,17.44Z"/><path class="cls-68" d="M151.62,144.87l-86.4,49.88v-.97c7.1-12.63,14.39-68.77,21.47-72.86,9.23-5.33,15.79,34.25,26.08,28.31,10.29-5.94,14.02-23.56,22.18-28.28,5.65-3.26,12.1,19.99,16.68,23.56v.36Z"/><path class="cls-27" d="M68.12,123.09v1.2l16.85-9.92v-1.56l3.46-2v1.52l13.14-7.74v-.93l3.17-1.83v3.64l-3.17,1.83v-1.66l-12.57,7.4c.54,0,1.08,.06,1.61,.23,3.31,1.02,5.81,5.2,8,9.68l1.5-.86c.14-.08,.31-.08,.45,0,.14,.08,.23,.23,.23,.39v3.97c0,.16-.09,.31-.23,.39l-3.46,2c-.07,.04-.15,.06-.23,.06s-.16-.02-.23-.06c-.14-.08-.23-.23-.23-.39v-3.97c0-.16,.09-.31,.23-.39l1.18-.68c-2.03-4.13-4.49-8.35-7.49-9.27-.62-.19-1.26-.24-1.91-.15v.79l-3.46,2v-1.05c-2.75,2.46-6.64,8.44-8.94,17.96l1.03-.59c.14-.08,.31-.08,.45,0,.14,.08,.23,.23,.23,.39v3.97c0,.16-.09,.31-.23,.39l-3.46,2c-.07,.04-.15,.06-.23,.06s-.16-.02-.23-.06c-.14-.08-.23-.23-.23-.39v-3.97c0-.16,.09-.31,.23-.39l1.35-.78c1.79-7.86,4.9-14.07,7.84-17.6l-14.66,8.63v1.39l-3.17,1.83v-3.64l3.17-1.83Zm29.21,4.58l2.56-1.48v-2.93l-2.56,1.48v2.93Zm-23.06,11l2.56-1.48v-2.93l-2.56,1.48v2.93Z"/><path class="cls-17" d="M239.27,230.06c2.31,0,4.48-.52,6.13-1.48,1.73-1,2.68-2.35,2.68-3.8s-.94-2.78-2.64-3.76c-1.62-.94-3.78-1.45-6.06-1.45s-4.48,.52-6.13,1.48c-1.73,1-2.68,2.34-2.68,3.8s.94,2.78,2.64,3.76c1.62,.94,3.78,1.45,6.06,1.45Zm.11-9.59c2.13,0,4.12,.47,5.61,1.33,1.41,.81,2.19,1.87,2.19,2.98s-.79,2.19-2.22,3.02c-1.51,.87-3.53,1.35-5.68,1.35s-4.12-.47-5.61-1.33c-1.41-.82-2.19-1.87-2.19-2.98s.79-2.19,2.22-3.02c1.51-.87,3.53-1.35,5.68-1.35Z"/><path class="cls-40" d="M229.11,250.29l.8-.27,.04-.27c.17-1.12,1.74-3.36,3.25-5.52,2.22-3.17,4.51-6.44,4.11-8.28-.11-.48-.37-.84-.8-1.08-2.21-1.27-5.47-1.23-8.93-1.18-3.8,.06-7.72,.11-10.58-1.54-.48-.27-.76-.64-.87-1.12-.44-1.96,2.08-5.6,4.1-8.53,.14-.2,.09-.49-.11-.63-.2-.14-.49-.09-.63,.11-2.23,3.23-4.77,6.89-4.24,9.24,.16,.73,.6,1.3,1.3,1.7,3.08,1.78,7.12,1.72,11.05,1.66,3.32-.05,6.47-.09,8.46,1.05,.2,.12,.32,.27,.37,.5,.32,1.45-2.05,4.84-3.96,7.57-1.57,2.25-2.95,4.21-3.33,5.55l-39.19-22.63c-.22-.13-.49-.05-.62,.17-.13,.22-.05,.49,.17,.62l39.62,22.88Z"/><g><path class="cls-111" d="M218.66,220.66c.71,.38,2.93,.93,3.31,.22s-1.21-2.41-1.92-2.79-1.6-.12-1.98,.59c-.38,.71-.12,1.6,.59,1.98Z"/><path class="cls-46" d="M206.1,217.97c-3.76-1.98,1.27-11.66,5.37-9.28,4.11,2.37,8.63,8.54,8.63,8.54,0,0,.01,0,.02,0,.55,.63,.65,1.45,.08,2.51-.57,1.05-1.05,1.35-2.14,1.31,0,0,0,0-.01,0,0,0-8.19-1.1-11.95-3.07Z"/><path class="cls-88" d="M178.15,202.57l5.14-9.54,28.25,15.65h0s.03,.01,.04,.02c1.53,.83,1.63,3.63,.21,6.27-1.42,2.64-3.82,4.1-5.35,3.27-.01,0-.02-.02-.04-.02h0s-28.25-15.65-28.25-15.65Z"/><path class="cls-90" d="M178.17,202.58c1.53,.83,3.93-.64,5.35-3.27,1.42-2.64,1.33-5.44-.21-6.27-1.53-.83-3.93,.64-5.35,3.27-1.42,2.64-1.33,5.44,.21,6.27Z"/><path class="cls-38" d="M138.12,179.96l4.17-7.73,41.07,20.88h0s.03,.01,.04,.02c1.53,.83,1.63,3.63,.21,6.27-1.42,2.64-3.82,4.1-5.35,3.27-.01,0-.02-.02-.04-.02h0s-40.1-22.7-40.1-22.7Z"/><path class="cls-114" d="M138.14,179.97c1.24,.67,3.18-.52,4.33-2.65,1.15-2.13,1.08-4.41-.17-5.08-1.24-.67-3.18,.52-4.33,2.65-1.15,2.13-1.08,4.41,.17,5.08Z"/><path class="cls-24" d="M142.29,177.28c1.15-2.13,1.08-4.41-.17-5.08-.03-.01-.06-.02-.09-.04,.14,.03,.28,.08,.41,.14,1.24,.67,1.32,2.94,.17,5.08-1.12,2.09-3,3.26-4.25,2.69,1.23,.26,2.89-.88,3.92-2.8Z"/><path class="cls-54" d="M176.39,245.34l35.72-21.3s.3-.16,.43-.22c3.58-1.95,8.24-3.5,8.24-3.5,0,0,0,0,.01,0,.57-.19,.86-.03,.71,.65-.15,.68-.42,1.09-1.24,1.82,0,0,0,0-.01,0,0,0-5.29,4.37-8.7,6.64-.19,.16-.39,.31-.58,.42-.01,0-.02,.01-.03,.02h0s-35.87,21.52-35.87,21.52l1.32-6.05Z"/><path class="cls-55" d="M201.05,231.84l16.02-9.56s.14-.07,.19-.1c1.6-.88,3.7-1.57,3.7-1.57,0,0,0,0,0,0,.25-.09,.13,.78-.24,1.11,0,0,0,0,0,0,0,0-2.37,1.96-3.9,2.98-.09,.07-.17,.14-.26,.19,0,0,0,0-.02,0h0s-16.09,9.65-16.09,9.65l.59-2.71Z"/><path class="cls-6" d="M144.66,175.74c-.59,1.13,8.5,7.09,17.41,11.77,8.92,4.68,16.63,7.57,17.22,6.44,.59-1.13-6.16-5.83-15.08-10.52-8.92-4.68-18.96-8.82-19.55-7.7Z"/><rect class="cls-52" x="183.81" y="202.92" width="29.42" height="3.16" rx="1.25" ry="1.25" transform="translate(275.13 479.03) rotate(-151.44)"/><rect class="cls-33" x="192.82" y="204.85" width="17.23" height="2.34" rx=".92" ry=".92" transform="translate(279.87 483.27) rotate(-151.44)"/><path class="cls-2" d="M193.86,201.91c.1-.19,.26-.32,.44-.43-.05,.06-.12,.11-.16,.19-.31,.57-.1,1.28,.47,1.59l13.08,7.12c.38,.21,.81,.16,1.15-.04-.35,.41-.94,.55-1.43,.28l-13.08-7.12c-.57-.31-.78-1.02-.47-1.59Z"/><path class="cls-21" d="M145.25,174.06l65.96,35s.33,.22,.46,.34c3.96,2.57,8.44,7.83,8.44,7.83,0,0,.01,0,.02,0,.55,.63,.65,1.45,.08,2.51-.57,1.05-1.05,1.35-2.14,1.31,0,0-.01,0-.02,0,0,0-6.85-.92-10.9-2.59-.25-.03-.49-.09-.71-.21-.01,0-.02-.02-.04-.02h0s-65.25-36.61-65.25-36.61l4.1-7.55Z"/><path class="cls-12" d="M208.85,211.11c-3.34-2.62-1.82-4.82,1.88-1.85,3.7,2.97,8.63,7.88,8.63,7.88,0,0,0,0,.01,.01,.57,.54,.84,.97,.66,1.2-.18,.23-.47,.15-1.32-.37,0,0,0,0-.01-.01,0,0-6.51-4.23-9.85-6.86Z"/><path class="cls-8" d="M207.31,217.8c-3.49-1.04-3.17-2.61,.72-1.42,3.89,1.19,9.42,3.35,9.42,3.35,0,0,0,0,.01,0,.63,.24,1,.45,.95,.61-.05,.17-.3,.17-1.13,0,0,0,0,0-.01,0,0,0-6.47-1.5-9.96-2.54Z"/></g><g><g><polygon class="cls-4" points="98.66 50.89 174.82 6.77 202.52 23.23 202.52 49.18 126.43 93.2 126.43 93.21 126.41 93.21 126.4 93.21 126.4 93.2 98.66 76.85 98.66 50.89"/><g class="cls-34"><polygon class="cls-62" points="126.43 67.4 126.43 93.21 118.94 88.9 118.94 62.94 126.43 67.4"/><polygon class="cls-76" points="126.4 67.4 126.4 93.21 202.52 49.18 202.52 23.23 126.4 67.4"/><polygon class="cls-77" points="202.52 23.23 126.4 67.4 118.94 62.94 195.1 18.82 202.52 23.23"/></g></g><g><polygon class="cls-69" points="188.54 53 197.31 47.94 197.31 30.77 188.54 35.83 188.54 53"/><polygon class="cls-74" points="177.05 59.64 185.82 54.57 185.82 37.41 177.05 42.47 177.05 59.64"/><polygon class="cls-66" points="165.56 66.27 174.33 61.21 174.33 44.04 165.56 49.11 165.56 66.27"/><polygon class="cls-30" points="154.07 72.91 162.84 67.84 162.84 50.68 154.07 55.74 154.07 72.91"/><polygon class="cls-87" points="142.57 79.54 151.34 74.48 151.34 57.31 142.57 62.38 142.57 79.54"/><polygon class="cls-92" points="131.08 86.18 139.85 81.12 139.85 63.95 131.08 69.01 131.08 86.18"/></g></g></g></g></g></g></svg>