<?xml version="1.0" encoding="UTF-8"?><svg xmlns="http://www.w3.org/2000/svg" xmlns:xlink="http://www.w3.org/1999/xlink" viewBox="0 0 306.51 329.38"><defs><style>.cls-1{fill:url(#linear-gradient-75);}.cls-2{fill:url(#radial-gradient-4);}.cls-2,.cls-3,.cls-4,.cls-5,.cls-6,.cls-7,.cls-8{mix-blend-mode:screen;}.cls-2,.cls-5,.cls-7,.cls-8{opacity:.6;}.cls-9{fill:url(#New_Gradient_Swatch_copy_39-21);}.cls-10{fill:url(#radial-gradient-23);}.cls-10,.cls-11,.cls-12,.cls-13,.cls-14,.cls-15,.cls-16,.cls-17,.cls-18,.cls-19,.cls-20,.cls-21,.cls-22,.cls-23,.cls-24,.cls-25,.cls-26{mix-blend-mode:color-dodge;}.cls-27{fill:url(#linear-gradient-2);}.cls-28{fill:url(#linear-gradient-51);}.cls-29{fill:url(#New_Gradient_Swatch_copy_40-19);}.cls-30{opacity:.17;}.cls-30,.cls-31,.cls-32,.cls-33,.cls-34,.cls-35,.cls-36,.cls-37,.cls-38,.cls-39,.cls-40,.cls-41,.cls-42,.cls-43{mix-blend-mode:multiply;}.cls-30,.cls-31,.cls-33,.cls-34,.cls-38,.cls-39,.cls-41{fill:#98d0d9;}.cls-44{fill:url(#linear-gradient-17);}.cls-44,.cls-45{opacity:.82;}.cls-46,.cls-47{fill:#fff;}.cls-3{opacity:.7;}.cls-11{fill:url(#radial-gradient-7);}.cls-48{fill:url(#linear-gradient-13);}.cls-48,.cls-49{opacity:.45;}.cls-12{fill:url(#radial-gradient-19);}.cls-50{fill:url(#linear-gradient-87);}.cls-51{fill:url(#New_Gradient_Swatch_copy_39-3);}.cls-52{fill:url(#New_Gradient_Swatch_copy_41);}.cls-53{fill:url(#New_Gradient_Swatch_copy_40-7);}.cls-53,.cls-54,.cls-55,.cls-56,.cls-57,.cls-58,.cls-59,.cls-60{opacity:.8;}.cls-31{opacity:.42;}.cls-61{fill:url(#linear-gradient-80);}.cls-62{fill:url(#linear-gradient-43);}.cls-63{fill:url(#New_Gradient_Swatch_copy_42-8);}.cls-64{fill:url(#New_Gradient_Swatch_copy_42-9);}.cls-13{fill:url(#radial-gradient-14);}.cls-65{fill:url(#linear-gradient-14);}.cls-65,.cls-66{opacity:.55;}.cls-67,.cls-68{opacity:.18;}.cls-32{fill:url(#radial-gradient-18);}.cls-69{fill:url(#New_Gradient_Swatch_copy_44);}.cls-70,.cls-34,.cls-47,.cls-36,.cls-23{opacity:.5;}.cls-33{opacity:.08;}.cls-71{fill:url(#linear-gradient-58);}.cls-72{fill:url(#New_Gradient_Swatch_copy_39-30);}.cls-73{fill:url(#linear-gradient-69);}.cls-74{fill:url(#linear-gradient-15);}.cls-74,.cls-75{opacity:.64;}.cls-76{fill:url(#linear-gradient-81);}.cls-77{fill:#5f1dc9;}.cls-78{fill:url(#linear-gradient-56);}.cls-79{fill:url(#New_Gradient_Swatch_copy_39-15);}.cls-80{fill:url(#linear-gradient-40);}.cls-14{fill:url(#Radial_Gradient_1-3);}.cls-81{fill:url(#linear-gradient-52);}.cls-82{fill:url(#linear-gradient-28);}.cls-54{fill:url(#New_Gradient_Swatch_copy_40-3);}.cls-83{fill:url(#New_Gradient_Swatch_copy_42-5);}.cls-84{fill:url(#linear-gradient-12);}.cls-84,.cls-85{opacity:.36;}.cls-86{fill:url(#New_Gradient_Swatch_copy_39-16);}.cls-87{fill:url(#New_Gradient_Swatch_copy_40-10);}.cls-88{fill:url(#linear-gradient-36);}.cls-89{mask:url(#mask-2);}.cls-90{fill:url(#linear-gradient-78);}.cls-91{fill:url(#linear-gradient-20);}.cls-92{fill:url(#New_Gradient_Swatch_copy_39-33);}.cls-93{fill:url(#linear-gradient-6);}.cls-94{fill:url(#New_Gradient_Swatch_copy_39-28);}.cls-95{fill:url(#linear-gradient-53);}.cls-96{isolation:isolate;}.cls-97{fill:url(#New_Gradient_Swatch_copy_39-13);}.cls-15{fill:url(#radial-gradient-21);}.cls-98{fill:url(#New_Gradient_Swatch_copy_39-5);}.cls-99{fill:url(#New_Gradient_Swatch_copy_40-15);}.cls-35{fill:url(#linear-gradient-4);opacity:.82;}.cls-100,.cls-101{opacity:.2;}.cls-102,.cls-103{opacity:.91;}.cls-104{fill:url(#linear-gradient-60);}.cls-16{fill:url(#radial-gradient-17);}.cls-105{fill:url(#New_Gradient_Swatch_copy_40-16);}.cls-106{fill:url(#New_Gradient_Swatch_copy_40-20);}.cls-107{fill:url(#linear-gradient-84);}.cls-108,.cls-39,.cls-109{opacity:0;}.cls-110{fill:url(#New_Gradient_Swatch_copy_42-2);}.cls-111{fill:url(#New_Gradient_Swatch_copy_40-2);}.cls-112{fill:url(#linear-gradient-35);}.cls-113{mask:url(#mask-3);}.cls-114{fill:url(#New_Gradient_Swatch_copy_39-7);}.cls-36{fill:url(#radial-gradient-9);}.cls-115{fill:url(#linear-gradient-48);}.cls-37{fill:#bcbfc0;}.cls-116{fill:url(#linear-gradient-32);}.cls-38{opacity:.33;}.cls-117{fill:url(#linear-gradient-50);}.cls-17{fill:url(#radial-gradient-3);}.cls-118{opacity:.95;}.cls-119{fill:url(#linear-gradient-63);}.cls-120{fill:url(#linear-gradient-67);}.cls-121{fill:url(#New_Gradient_Swatch_copy_39-24);}.cls-122{fill:url(#linear-gradient-86);}.cls-123{fill:url(#linear-gradient-39);}.cls-101{fill:url(#linear-gradient);}.cls-124{fill:url(#radial-gradient-12);}.cls-125{fill:url(#New_Gradient_Swatch_copy_40-11);}.cls-126{fill:url(#Radial_Gradient_1);}.cls-127{fill:url(#linear-gradient-59);}.cls-18{fill:url(#radial-gradient-5);}.cls-128{mask:url(#mask-5);}.cls-129{fill:#2d0862;}.cls-130{fill:url(#New_Gradient_Swatch_copy_39);}.cls-19{fill:url(#Radial_Gradient_1-4);}.cls-131{fill:url(#linear-gradient-49);}.cls-132{fill:url(#linear-gradient-37);}.cls-56{fill:url(#New_Gradient_Swatch_copy_40);}.cls-133{fill:url(#New_Gradient_Swatch_copy_39-22);}.cls-134{fill:url(#linear-gradient-82);}.cls-135{fill:url(#linear-gradient-31);}.cls-136{fill:url(#linear-gradient-85);}.cls-137{fill:url(#White_Black);}.cls-138{fill:url(#New_Gradient_Swatch_copy_39-26);}.cls-139{fill:url(#New_Gradient_Swatch_copy_39-27);}.cls-20{fill:url(#radial-gradient-16);}.cls-140{fill:url(#linear-gradient-61);}.cls-141{fill:url(#linear-gradient-68);}.cls-142{fill:url(#linear-gradient-62);}.cls-143{fill:url(#linear-gradient-41);}.cls-144{fill:url(#linear-gradient-76);}.cls-21{fill:url(#radial-gradient-20);}.cls-145{fill:url(#New_Gradient_Swatch_copy_39-17);}.cls-57{fill:url(#New_Gradient_Swatch_copy_40-4);}.cls-40{opacity:.3;}.cls-58{fill:url(#New_Gradient_Swatch_copy_40-6);}.cls-146{fill:url(#New_Gradient_Swatch_copy_42);}.cls-147{fill:url(#linear-gradient-74);opacity:.15;}.cls-148{fill:url(#linear-gradient-21);}.cls-149{fill:url(#linear-gradient-72);}.cls-150{fill:url(#New_Gradient_Swatch_copy_39-11);}.cls-22{fill:url(#radial-gradient-13);}.cls-151{fill:url(#New_Gradient_Swatch_copy_40-9);}.cls-152{fill:url(#New_Gradient_Swatch_copy_39-31);}.cls-153{fill:url(#New_Gradient_Swatch_copy_40-13);}.cls-154,.cls-155{opacity:.73;}.cls-156{fill:url(#New_Gradient_Swatch_copy_39-14);}.cls-157{fill:url(#New_Gradient_Swatch_copy_39-32);}.cls-158{fill:url(#New_Gradient_Swatch_copy_40-18);}.cls-159{fill:url(#linear-gradient-25);}.cls-160{fill:url(#New_Gradient_Swatch_copy_42-6);}.cls-161{mask:url(#mask-4);}.cls-162{fill:url(#New_Gradient_Swatch_copy_42-4);}.cls-163{fill:url(#New_Gradient_Swatch_copy_39-25);}.cls-164{fill:url(#linear-gradient-5);}.cls-165{fill:url(#linear-gradient-64);}.cls-5{fill:url(#radial-gradient-2);}.cls-166{fill:url(#linear-gradient-83);}.cls-167{fill:url(#linear-gradient-54);}.cls-6{fill:url(#White_Black_Radial);}.cls-168{fill:#6f22eb;}.cls-169{fill:url(#radial-gradient-15);}.cls-170{fill:url(#linear-gradient-45);}.cls-171{fill:url(#linear-gradient-55);}.cls-172{fill:url(#linear-gradient-11);}.cls-172,.cls-173{opacity:.27;}.cls-7{fill:url(#radial-gradient);}.cls-174{fill:url(#linear-gradient-34);}.cls-175{fill:url(#linear-gradient-65);}.cls-176{fill:url(#linear-gradient-70);}.cls-23{fill:url(#radial-gradient-22);}.cls-177{fill:url(#New_Gradient_Swatch_copy_40-14);}.cls-178{fill:url(#New_Gradient_Swatch_copy_39-20);}.cls-179{fill:url(#linear-gradient-9);}.cls-179,.cls-180{opacity:.09;}.cls-181{fill:url(#linear-gradient-79);}.cls-25{fill:url(#radial-gradient-8);}.cls-182{mask:url(#mask-6);}.cls-183{fill:url(#linear-gradient-7);}.cls-184{fill:url(#New_Gradient_Swatch_copy_39-12);}.cls-185{fill:url(#linear-gradient-66);}.cls-109{fill:url(#linear-gradient-8);}.cls-186{fill:url(#New_Gradient_Swatch_copy_42-3);}.cls-41{opacity:.25;}.cls-187{fill:url(#New_Gradient_Swatch_copy_39-18);}.cls-155{fill:url(#linear-gradient-16);}.cls-8{fill:url(#radial-gradient-6);}.cls-59{fill:url(#New_Gradient_Swatch_copy_40-8);}.cls-188{fill:url(#New_Gradient_Swatch_copy_39-4);}.cls-189{fill:url(#linear-gradient-24);}.cls-190{fill:url(#linear-gradient-73);}.cls-26{fill:url(#Radial_Gradient_1-5);}.cls-191{fill:url(#New_Gradient_Swatch_copy_39-19);}.cls-192{fill:url(#New_Gradient_Swatch_copy_39-29);}.cls-193{fill:url(#New_Gradient_Swatch_copy_40-17);}.cls-194{fill:url(#New_Gradient_Swatch_copy_39-8);}.cls-195{fill:url(#New_Gradient_Swatch_copy_39-2);}.cls-196{fill:url(#linear-gradient-22);}.cls-197{fill:url(#linear-gradient-42);}.cls-198{mask:url(#mask-1);}.cls-199{mask:url(#mask);}.cls-200{fill:url(#linear-gradient-3);}.cls-201{fill:url(#New_Gradient_Swatch_copy_39-9);}.cls-202{fill:url(#Radial_Gradient_1-2);}.cls-203{fill:url(#New_Gradient_Swatch_copy_44-3);}.cls-204{fill:url(#New_Gradient_Swatch_copy_40-12);}.cls-205{fill:url(#linear-gradient-27);}.cls-206{fill:url(#linear-gradient-33);}.cls-207{fill:url(#linear-gradient-38);}.cls-208{fill:url(#New_Gradient_Swatch_copy_39-23);}.cls-209{fill:url(#linear-gradient-29);}.cls-210{fill:url(#linear-gradient-30);}.cls-42{fill:url(#radial-gradient-10);}.cls-211{fill:url(#New_Gradient_Swatch_copy_42-7);}.cls-212{fill:url(#linear-gradient-23);}.cls-213{fill:url(#linear-gradient-19);}.cls-214{fill:url(#linear-gradient-71);}.cls-215{fill:url(#linear-gradient-77);}.cls-216{fill:url(#radial-gradient-11);}.cls-103{fill:url(#linear-gradient-18);}.cls-43{fill:#a486cc;}.cls-217{fill:url(#New_Gradient_Swatch_copy_44-2);}.cls-68{fill:url(#linear-gradient-10);}.cls-218{fill:url(#linear-gradient-44);}.cls-219{fill:url(#linear-gradient-57);}.cls-220{fill:url(#New_Gradient_Swatch_copy_43);}.cls-221{fill:url(#linear-gradient-47);}.cls-222{fill:url(#linear-gradient-46);}.cls-60{fill:url(#New_Gradient_Swatch_copy_40-5);}.cls-223{fill:url(#New_Gradient_Swatch_copy_39-6);}.cls-224{fill:url(#New_Gradient_Swatch_copy_39-10);}.cls-225{fill:url(#linear-gradient-26);}</style><linearGradient id="linear-gradient" x1="6667.24" y1="225.53" x2="6784.88" y2="225.53" gradientTransform="translate(6819.1) rotate(-180) scale(1 -1)" gradientUnits="userSpaceOnUse"><stop offset=".06" stop-color="#150041"/><stop offset=".26" stop-color="#160143"/><stop offset=".36" stop-color="#19084a"/><stop offset=".43" stop-color="#201357"/><stop offset=".47" stop-color="#251b61"/><stop offset=".48" stop-color="#291f65"/><stop offset=".5" stop-color="#362c72"/><stop offset=".51" stop-color="#4b4188"/><stop offset=".52" stop-color="#695fa6"/><stop offset=".53" stop-color="#7b70b8"/><stop offset=".54" stop-color="#7166ae"/><stop offset=".56" stop-color="#50458c"/><stop offset=".59" stop-color="#382e74"/><stop offset=".61" stop-color="#291f66"/><stop offset=".63" stop-color="#251b61"/><stop offset=".67" stop-color="#1e1054"/><stop offset=".75" stop-color="#170446"/><stop offset=".81" stop-color="#150041"/><stop offset="1" stop-color="#150041"/></linearGradient><linearGradient id="linear-gradient-2" x1="6667.24" y1="207.59" x2="6784.88" y2="207.59" xlink:href="#linear-gradient"/><linearGradient id="linear-gradient-3" x1="6698.72" y1="215.15" x2="6752.05" y2="185.65" gradientTransform="translate(6819.1) rotate(-180) scale(1 -1)" gradientUnits="userSpaceOnUse"><stop offset="0" stop-color="#251b61"/><stop offset=".2" stop-color="#1d0e52"/><stop offset=".49" stop-color="#150041"/><stop offset="1" stop-color="#0a001f"/></linearGradient><linearGradient id="linear-gradient-4" x1="6727" y1="201.21" x2="6737.47" y2="183.65" gradientTransform="translate(6819.1) rotate(-180) scale(1 -1)" gradientUnits="userSpaceOnUse"><stop offset="0" stop-color="#fff"/><stop offset="1" stop-color="#000"/></linearGradient><radialGradient id="radial-gradient" cx="6727.35" cy="225.06" fx="6727.35" fy="225.06" r="41.85" gradientTransform="translate(6819.1) rotate(-180) scale(1 -1)" gradientUnits="userSpaceOnUse"><stop offset="0" stop-color="#9c8afc"/><stop offset="1" stop-color="#05064d"/></radialGradient><linearGradient id="linear-gradient-5" x1="6813.34" y1="235.87" x2="6633.31" y2="-13.24" xlink:href="#linear-gradient-3"/><linearGradient id="linear-gradient-6" x1="6657.65" y1="11.57" x2="6810.82" y2="241.89" gradientTransform="translate(6819.1) rotate(-180) scale(1 -1)" gradientUnits="userSpaceOnUse"><stop offset=".01" stop-color="#7519ab"/><stop offset=".43" stop-color="#4627bd"/><stop offset=".9" stop-color="#2d065f"/></linearGradient><linearGradient id="linear-gradient-7" x1="6851.59" y1="241.28" x2="6709.88" y2="14.86" xlink:href="#linear-gradient"/><radialGradient id="radial-gradient-2" cx="6811.39" cy="112.34" fx="6811.39" fy="112.34" r="24.12" xlink:href="#radial-gradient"/><linearGradient id="linear-gradient-8" x1="6867.65" y1="-.62" x2="6946.23" y2="149.21" gradientTransform="translate(7081.42) rotate(-180) scale(1 -1)" xlink:href="#linear-gradient-6"/><linearGradient id="linear-gradient-9" x1="6867.16" y1="-.26" x2="6945.56" y2="149.23" gradientTransform="translate(7081.42) rotate(-180) scale(1 -1)" xlink:href="#linear-gradient-6"/><linearGradient id="linear-gradient-10" x1="6866.66" y1=".1" x2="6944.88" y2="149.25" gradientTransform="translate(7081.42) rotate(-180) scale(1 -1)" xlink:href="#linear-gradient-6"/><linearGradient id="linear-gradient-11" x1="6866.17" y1=".45" x2="6944.21" y2="149.26" gradientTransform="translate(7081.42) rotate(-180) scale(1 -1)" xlink:href="#linear-gradient-6"/><linearGradient id="linear-gradient-12" x1="6865.67" y1=".81" x2="6943.54" y2="149.28" gradientTransform="translate(7081.42) rotate(-180) scale(1 -1)" xlink:href="#linear-gradient-6"/><linearGradient id="linear-gradient-13" x1="6865.18" y1="1.16" x2="6942.87" y2="149.29" gradientTransform="translate(7081.42) rotate(-180) scale(1 -1)" xlink:href="#linear-gradient-6"/><linearGradient id="linear-gradient-14" x1="6864.69" y1="1.52" x2="6942.2" y2="149.31" gradientTransform="translate(7081.42) rotate(-180) scale(1 -1)" xlink:href="#linear-gradient-6"/><linearGradient id="linear-gradient-15" x1="6864.2" y1="1.87" x2="6941.53" y2="149.32" gradientTransform="translate(7081.42) rotate(-180) scale(1 -1)" xlink:href="#linear-gradient-6"/><linearGradient id="linear-gradient-16" x1="6863.72" y1="2.22" x2="6940.87" y2="149.33" gradientTransform="translate(7081.42) rotate(-180) scale(1 -1)" xlink:href="#linear-gradient-6"/><linearGradient id="linear-gradient-17" x1="6863.23" y1="2.57" x2="6940.21" y2="149.35" gradientTransform="translate(7081.42) rotate(-180) scale(1 -1)" xlink:href="#linear-gradient-6"/><linearGradient id="linear-gradient-18" x1="6862.75" y1="2.92" x2="6939.55" y2="149.36" gradientTransform="translate(7081.42) rotate(-180) scale(1 -1)" xlink:href="#linear-gradient-6"/><linearGradient id="linear-gradient-19" x1="6862.27" y1="3.27" x2="6938.89" y2="149.37" gradientTransform="translate(7081.42) rotate(-180) scale(1 -1)" xlink:href="#linear-gradient-6"/><linearGradient id="New_Gradient_Swatch_copy_40" x1="6973.67" y1="220.67" x2="6851.36" y2="-18.27" gradientTransform="translate(7081.42) rotate(-180) scale(1 -1)" gradientUnits="userSpaceOnUse"><stop offset=".03" stop-color="#5f1dc9"/><stop offset=".27" stop-color="#5640d5"/><stop offset=".82" stop-color="#409bf3"/><stop offset="1" stop-color="#39bcff"/></linearGradient><radialGradient id="radial-gradient-3" cx="6923.03" cy="68.02" fx="6923.03" fy="68.02" r="52.72" gradientTransform="translate(7081.42) rotate(-180) scale(1 -1)" gradientUnits="userSpaceOnUse"><stop offset="0" stop-color="#711f6e"/><stop offset=".16" stop-color="#6b1d68"/><stop offset=".36" stop-color="#5c1959"/><stop offset=".58" stop-color="#421241"/><stop offset=".82" stop-color="#1f081e"/><stop offset="1" stop-color="#000"/></radialGradient><linearGradient id="White_Black" x1="274.18" y1="185.75" x2="238.76" y2="255.48" gradientUnits="userSpaceOnUse"><stop offset="0" stop-color="#fff"/><stop offset="1" stop-color="#000"/></linearGradient><mask id="mask" x="192.91" y="213.46" width="85.59" height="96.07" maskUnits="userSpaceOnUse"><rect class="cls-137" x="192.91" y="213.46" width="85.59" height="96.07"/></mask><linearGradient id="linear-gradient-20" x1="237.54" y1="300.19" x2="235.8" y2="230.11" gradientTransform="matrix(1, 0, 0, 1, 0, 0)" xlink:href="#linear-gradient"/><radialGradient id="radial-gradient-4" cx="264.15" cy="238.15" fx="264.15" fy="238.15" r="29.73" gradientTransform="matrix(1, 0, 0, 1, 0, 0)" xlink:href="#radial-gradient"/><linearGradient id="linear-gradient-21" x1="259.78" y1="269.4" x2="123.59" y2="226.76" gradientUnits="userSpaceOnUse"><stop offset=".19" stop-color="#2d065f"/><stop offset=".93" stop-color="#2d065f"/></linearGradient><linearGradient id="linear-gradient-22" x1="252.52" y1="303.01" x2="204.92" y2="202.45" gradientTransform="matrix(1, 0, 0, 1, 0, 0)" xlink:href="#linear-gradient-3"/><linearGradient id="linear-gradient-23" x1="203.06" y1="260.88" x2="262.09" y2="260.88" gradientTransform="matrix(1, 0, 0, 1, 0, 0)" xlink:href="#linear-gradient-3"/><linearGradient id="linear-gradient-24" x1="146.42" y1="321.88" x2="248.08" y2="249.91" gradientTransform="matrix(1, 0, 0, 1, 0, 0)" xlink:href="#linear-gradient-6"/><linearGradient id="New_Gradient_Swatch_copy_39" x1="6672.96" y1="10573.91" x2="6680.08" y2="10550.47" gradientTransform="translate(6901.96 10817.45) rotate(-180)" gradientUnits="userSpaceOnUse"><stop offset=".04" stop-color="#7519ab"/><stop offset=".19" stop-color="#8421b3"/><stop offset=".49" stop-color="#ac36cb"/><stop offset=".9" stop-color="#ed59f0"/><stop offset="1" stop-color="#ff63fb"/></linearGradient><linearGradient id="New_Gradient_Swatch_copy_39-2" x1="6678.06" y1="10574.98" x2="6688.28" y2="10541.36" xlink:href="#New_Gradient_Swatch_copy_39"/><linearGradient id="New_Gradient_Swatch_copy_39-3" x1="6683.5" y1="10576.88" x2="6693.75" y2="10543.17" xlink:href="#New_Gradient_Swatch_copy_39"/><linearGradient id="New_Gradient_Swatch_copy_39-4" x1="6661.41" y1="10569.05" x2="6669.58" y2="10542.2" xlink:href="#New_Gradient_Swatch_copy_39"/><linearGradient id="New_Gradient_Swatch_copy_39-5" x1="6667.8" y1="10571.71" x2="6673.79" y2="10552" xlink:href="#New_Gradient_Swatch_copy_39"/><linearGradient id="New_Gradient_Swatch_copy_39-6" x1="6690.41" y1="10578.81" x2="6701.34" y2="10542.85" xlink:href="#New_Gradient_Swatch_copy_39"/><linearGradient id="New_Gradient_Swatch_copy_39-7" x1="6654.78" y1="10566.53" x2="6663.37" y2="10538.28" xlink:href="#New_Gradient_Swatch_copy_39"/><linearGradient id="New_Gradient_Swatch_copy_39-8" x1="6644.18" y1="10561.31" x2="6650.54" y2="10540.38" xlink:href="#New_Gradient_Swatch_copy_39"/><linearGradient id="New_Gradient_Swatch_copy_39-9" x1="6648.36" y1="10564.11" x2="6657.12" y2="10535.32" xlink:href="#New_Gradient_Swatch_copy_39"/><linearGradient id="linear-gradient-25" x1="6673.55" y1="10576.23" x2="6683.16" y2="10539.33" gradientTransform="translate(6901.96 10817.45) rotate(-180)" gradientUnits="userSpaceOnUse"><stop offset="0" stop-color="#521cbe"/><stop offset=".29" stop-color="#6d27d5"/><stop offset=".79" stop-color="#9c3cdc"/></linearGradient><linearGradient id="linear-gradient-26" x1="6678.49" y1="10577.82" x2="6688.72" y2="10538.53" xlink:href="#linear-gradient-25"/><linearGradient id="linear-gradient-27" x1="6684.42" y1="10579.14" x2="6696.63" y2="10532.26" xlink:href="#linear-gradient-25"/><linearGradient id="linear-gradient-28" x1="6661.38" y1="10573.14" x2="6673.58" y2="10526.26" xlink:href="#linear-gradient-25"/><linearGradient id="linear-gradient-29" x1="6668.21" y1="10573.81" x2="6674.81" y2="10548.45" xlink:href="#linear-gradient-25"/><linearGradient id="linear-gradient-30" x1="6654.2" y1="10571.28" x2="6666.41" y2="10524.39" xlink:href="#linear-gradient-25"/><linearGradient id="linear-gradient-31" x1="6643.08" y1="10568.38" x2="6655.28" y2="10521.5" xlink:href="#linear-gradient-25"/><linearGradient id="linear-gradient-32" x1="6648.71" y1="10569.85" x2="6660.91" y2="10522.96" xlink:href="#linear-gradient-25"/><linearGradient id="linear-gradient-33" x1="6691.55" y1="10581" x2="6703.75" y2="10534.11" xlink:href="#linear-gradient-25"/><linearGradient id="linear-gradient-34" x1="189.04" y1="75.98" x2="249.61" y2="180.88" gradientTransform="matrix(1, 0, 0, 1, 0, 0)" xlink:href="#linear-gradient"/><radialGradient id="radial-gradient-5" cx="283.16" cy="118.6" fx="283.16" fy="118.6" r="113.65" gradientTransform="matrix(1, 0, 0, 1, 0, 0)" xlink:href="#radial-gradient-3"/><radialGradient id="radial-gradient-6" cx="264.15" cy="110.48" fx="264.15" fy="110.48" r="66.96" gradientTransform="matrix(1, 0, 0, 1, 0, 0)" xlink:href="#radial-gradient"/><linearGradient id="linear-gradient-35" x1="269.54" y1="172.72" x2="84.45" y2="114.77" xlink:href="#linear-gradient-21"/><linearGradient id="linear-gradient-36" x1="271.96" y1="244.35" x2="177.96" y2="45.73" gradientTransform="matrix(1, 0, 0, 1, 0, 0)" xlink:href="#linear-gradient-3"/><linearGradient id="linear-gradient-37" x1="203.06" y1="161.14" x2="262.09" y2="161.14" gradientTransform="matrix(1, 0, 0, 1, 0, 0)" xlink:href="#linear-gradient-3"/><linearGradient id="linear-gradient-38" x1="196.39" y1="92.14" x2="286.2" y2="263.4" gradientTransform="matrix(1, 0, 0, 1, 0, 0)" xlink:href="#linear-gradient-6"/><linearGradient id="linear-gradient-39" x1="313.06" y1="113.96" x2="124.58" y2="215.16" gradientUnits="userSpaceOnUse"><stop offset="0" stop-color="#ffdda7"/><stop offset=".09" stop-color="#fab999"/><stop offset=".2" stop-color="#f48887"/><stop offset=".25" stop-color="#e17a8f"/><stop offset=".49" stop-color="#8437b8"/><stop offset=".6" stop-color="#5f1dc9"/><stop offset=".64" stop-color="#5c25cc"/><stop offset=".72" stop-color="#573dd4"/><stop offset=".82" stop-color="#4d65e1"/><stop offset=".94" stop-color="#409bf3"/><stop offset="1" stop-color="#39bcff"/></linearGradient><radialGradient id="radial-gradient-7" cx="802.05" cy="2394.3" fx="802.05" fy="2394.3" r="2.03" gradientTransform="translate(-521.85 2053.19) rotate(31.33) scale(1.01 -.85) skewX(-25.77)" gradientUnits="userSpaceOnUse"><stop offset=".39" stop-color="#fff"/><stop offset=".4" stop-color="#e0dde7"/><stop offset=".42" stop-color="#aca4be"/><stop offset=".44" stop-color="#7f739c"/><stop offset=".47" stop-color="#5a4c7f"/><stop offset=".49" stop-color="#3d2c69"/><stop offset=".51" stop-color="#291659"/><stop offset=".53" stop-color="#1d0950"/><stop offset=".55" stop-color="#19054d"/><stop offset=".57" stop-color="#13033c"/><stop offset=".61" stop-color="#0c0226"/><stop offset=".66" stop-color="#060114"/><stop offset=".71" stop-color="#020008"/><stop offset=".79" stop-color="#000001"/><stop offset="1" stop-color="#000"/></radialGradient><radialGradient id="radial-gradient-8" cx="822.8" cy="2356.25" fx="822.8" fy="2356.25" r="2.03" xlink:href="#radial-gradient-7"/><linearGradient id="New_Gradient_Swatch_copy_42" x1="252.86" y1="131.26" x2="206.81" y2="83.25" gradientUnits="userSpaceOnUse"><stop offset=".04" stop-color="#ff9b8c"/><stop offset=".29" stop-color="#feaa91"/><stop offset=".79" stop-color="#fed2a1"/><stop offset="1" stop-color="#fee5a8"/></linearGradient><linearGradient id="New_Gradient_Swatch_copy_42-2" x1="253.79" y1="127.61" x2="193.27" y2="66.37" xlink:href="#New_Gradient_Swatch_copy_42"/><linearGradient id="New_Gradient_Swatch_copy_42-3" x1="255.84" y1="125.58" x2="195.32" y2="64.34" xlink:href="#New_Gradient_Swatch_copy_42"/><linearGradient id="New_Gradient_Swatch_copy_42-4" x1="246.67" y1="135.69" x2="186.15" y2="74.44" xlink:href="#New_Gradient_Swatch_copy_42"/><linearGradient id="New_Gradient_Swatch_copy_42-5" x1="248.72" y1="133.66" x2="188.2" y2="72.42" xlink:href="#New_Gradient_Swatch_copy_42"/><linearGradient id="New_Gradient_Swatch_copy_42-6" x1="237.19" y1="116.47" x2="240.32" y2="116.47" xlink:href="#New_Gradient_Swatch_copy_42"/><linearGradient id="New_Gradient_Swatch_copy_42-7" x1="223.3" y1="102.25" x2="230.18" y2="102.25" xlink:href="#New_Gradient_Swatch_copy_42"/><linearGradient id="New_Gradient_Swatch_copy_42-8" x1="231.9" y1="104.36" x2="241.88" y2="104.36" xlink:href="#New_Gradient_Swatch_copy_42"/><linearGradient id="New_Gradient_Swatch_copy_39-10" x1="235.56" y1="226.58" x2="242.69" y2="203.14" gradientTransform="matrix(1, 0, 0, 1, 0, 0)" xlink:href="#New_Gradient_Swatch_copy_39"/><linearGradient id="New_Gradient_Swatch_copy_39-11" x1="240.66" y1="227.65" x2="250.88" y2="194.03" gradientTransform="matrix(1, 0, 0, 1, 0, 0)" xlink:href="#New_Gradient_Swatch_copy_39"/><linearGradient id="New_Gradient_Swatch_copy_39-12" x1="246.11" y1="229.54" x2="256.35" y2="195.84" gradientTransform="matrix(1, 0, 0, 1, 0, 0)" xlink:href="#New_Gradient_Swatch_copy_39"/><linearGradient id="New_Gradient_Swatch_copy_39-13" x1="224.02" y1="221.72" x2="232.18" y2="194.86" gradientTransform="matrix(1, 0, 0, 1, 0, 0)" xlink:href="#New_Gradient_Swatch_copy_39"/><linearGradient id="New_Gradient_Swatch_copy_39-14" x1="230.4" y1="224.37" x2="236.39" y2="204.67" gradientTransform="matrix(1, 0, 0, 1, 0, 0)" xlink:href="#New_Gradient_Swatch_copy_39"/><linearGradient id="New_Gradient_Swatch_copy_39-15" x1="253.01" y1="231.48" x2="263.95" y2="195.52" gradientTransform="matrix(1, 0, 0, 1, 0, 0)" xlink:href="#New_Gradient_Swatch_copy_39"/><linearGradient id="New_Gradient_Swatch_copy_39-16" x1="217.39" y1="219.2" x2="225.98" y2="190.94" gradientTransform="matrix(1, 0, 0, 1, 0, 0)" xlink:href="#New_Gradient_Swatch_copy_39"/><linearGradient id="New_Gradient_Swatch_copy_39-17" x1="206.78" y1="213.97" x2="213.15" y2="193.05" gradientTransform="matrix(1, 0, 0, 1, 0, 0)" xlink:href="#New_Gradient_Swatch_copy_39"/><linearGradient id="New_Gradient_Swatch_copy_39-18" x1="210.97" y1="216.78" x2="219.72" y2="187.98" gradientTransform="matrix(1, 0, 0, 1, 0, 0)" xlink:href="#New_Gradient_Swatch_copy_39"/><linearGradient id="linear-gradient-40" x1="236.16" y1="228.89" x2="245.76" y2="192" gradientTransform="matrix(1, 0, 0, 1, 0, 0)" xlink:href="#linear-gradient-25"/><linearGradient id="linear-gradient-41" x1="241.1" y1="230.48" x2="251.32" y2="191.19" gradientTransform="matrix(1, 0, 0, 1, 0, 0)" xlink:href="#linear-gradient-25"/><linearGradient id="linear-gradient-42" x1="247.03" y1="231.81" x2="259.23" y2="184.92" gradientTransform="matrix(1, 0, 0, 1, 0, 0)" xlink:href="#linear-gradient-25"/><linearGradient id="linear-gradient-43" x1="223.98" y1="225.81" x2="236.18" y2="178.92" gradientTransform="matrix(1, 0, 0, 1, 0, 0)" xlink:href="#linear-gradient-25"/><linearGradient id="linear-gradient-44" x1="230.81" y1="226.48" x2="237.41" y2="201.11" gradientTransform="matrix(1, 0, 0, 1, 0, 0)" xlink:href="#linear-gradient-25"/><linearGradient id="linear-gradient-45" x1="216.81" y1="223.94" x2="229.01" y2="177.06" gradientTransform="matrix(1, 0, 0, 1, 0, 0)" xlink:href="#linear-gradient-25"/><linearGradient id="linear-gradient-46" x1="205.69" y1="221.05" x2="217.89" y2="174.16" gradientTransform="matrix(1, 0, 0, 1, 0, 0)" xlink:href="#linear-gradient-25"/><linearGradient id="linear-gradient-47" x1="211.31" y1="222.51" x2="223.52" y2="175.63" gradientTransform="matrix(1, 0, 0, 1, 0, 0)" xlink:href="#linear-gradient-25"/><linearGradient id="linear-gradient-48" x1="254.15" y1="233.66" x2="266.36" y2="186.78" gradientTransform="matrix(1, 0, 0, 1, 0, 0)" xlink:href="#linear-gradient-25"/><linearGradient id="linear-gradient-49" x1="297.93" y1="117.77" x2="62.25" y2="188.2" xlink:href="#linear-gradient-39"/><linearGradient id="linear-gradient-50" x1="331.42" y1="107.83" x2="182.38" y2="199.99" xlink:href="#linear-gradient-39"/><linearGradient id="linear-gradient-51" x1="312.35" y1="122.94" x2="230.64" y2="173.47" xlink:href="#linear-gradient-39"/><linearGradient id="linear-gradient-52" x1="312.06" y1="118.98" x2="191.88" y2="179.77" xlink:href="#linear-gradient-39"/><radialGradient id="Radial_Gradient_1" cx="275.1" cy="139.91" fx="275.1" fy="139.91" r="8.56" gradientUnits="userSpaceOnUse"><stop offset="0" stop-color="#fff"/><stop offset="1" stop-color="#000"/></radialGradient><radialGradient id="Radial_Gradient_1-2" cx="291.26" cy="112.9" fx="291.26" fy="112.9" r="20.58" xlink:href="#Radial_Gradient_1"/><linearGradient id="New_Gradient_Swatch_copy_40-2" x1="-4.28" y1="161.62" x2="190.66" y2="9.13" gradientTransform="matrix(1, 0, 0, 1, 0, 0)" xlink:href="#New_Gradient_Swatch_copy_40"/><linearGradient id="New_Gradient_Swatch_copy_44" x1="76.48" y1="10514.94" x2="-82.79" y2="10343.44" gradientTransform="translate(31.37 10576.71) scale(1 -1)" gradientUnits="userSpaceOnUse"><stop offset=".04" stop-color="#552fd6"/><stop offset=".41" stop-color="#601fcd"/><stop offset=".98" stop-color="#7700bd"/></linearGradient><linearGradient id="New_Gradient_Swatch_copy_40-3" x1="-13.45" y1="10488.04" x2="133.8" y2="10333.72" gradientTransform="translate(31.37 10576.71) scale(1 -1)" xlink:href="#New_Gradient_Swatch_copy_40"/><linearGradient id="New_Gradient_Swatch_copy_40-4" x1="27.17" y1="10526.8" x2="174.42" y2="10372.47" gradientTransform="translate(31.37 10576.71) scale(1 -1)" xlink:href="#New_Gradient_Swatch_copy_40"/><linearGradient id="New_Gradient_Swatch_copy_44-2" x1="76.48" y1="10487.96" x2="-82.79" y2="10316.46" xlink:href="#New_Gradient_Swatch_copy_44"/><linearGradient id="New_Gradient_Swatch_copy_40-5" x1="-13.45" y1="10461.06" x2="133.8" y2="10306.73" gradientTransform="translate(31.37 10576.71) scale(1 -1)" xlink:href="#New_Gradient_Swatch_copy_40"/><linearGradient id="New_Gradient_Swatch_copy_40-6" x1="27.17" y1="10499.81" x2="174.42" y2="10345.49" gradientTransform="translate(31.37 10576.71) scale(1 -1)" xlink:href="#New_Gradient_Swatch_copy_40"/><linearGradient id="New_Gradient_Swatch_copy_44-3" x1="76.48" y1="10460.44" x2="-82.79" y2="10288.94" xlink:href="#New_Gradient_Swatch_copy_44"/><linearGradient id="New_Gradient_Swatch_copy_40-7" x1="-13.45" y1="10433.54" x2="133.8" y2="10279.22" gradientTransform="translate(31.37 10576.71) scale(1 -1)" xlink:href="#New_Gradient_Swatch_copy_40"/><linearGradient id="New_Gradient_Swatch_copy_40-8" x1="27.17" y1="10472.3" x2="174.42" y2="10317.98" gradientTransform="translate(31.37 10576.71) scale(1 -1)" xlink:href="#New_Gradient_Swatch_copy_40"/><linearGradient id="New_Gradient_Swatch_copy_43" x1="6545.08" y1="86.93" x2="6554.98" y2="86.93" gradientTransform="translate(6612.69) rotate(-180) scale(1 -1)" gradientUnits="userSpaceOnUse"><stop offset=".04" stop-color="#1998bd"/><stop offset=".32" stop-color="#20a0cc"/><stop offset=".87" stop-color="#33b6f4"/><stop offset="1" stop-color="#39bcff"/></linearGradient><linearGradient id="New_Gradient_Swatch_copy_39-19" x1="6556.28" y1="93.62" x2="6566.18" y2="93.62" gradientTransform="translate(6612.69) rotate(-180) scale(1 -1)" xlink:href="#New_Gradient_Swatch_copy_39"/><linearGradient id="New_Gradient_Swatch_copy_42-9" x1="6567.63" y1="100.32" x2="6577.52" y2="100.32" gradientTransform="translate(6612.69) rotate(-180) scale(1 -1)" xlink:href="#New_Gradient_Swatch_copy_42"/><linearGradient id="New_Gradient_Swatch_copy_41" x1="6578.83" y1="107.01" x2="6588.73" y2="107.01" gradientTransform="translate(6612.69) rotate(-180) scale(1 -1)" gradientUnits="userSpaceOnUse"><stop offset=".04" stop-color="#552fd6"/><stop offset=".33" stop-color="#623edd"/><stop offset=".9" stop-color="#8766f0"/><stop offset="1" stop-color="#8e6ef4"/></linearGradient><linearGradient id="linear-gradient-53" x1="94.83" y1="242.81" x2="94.83" y2="274.51" gradientTransform="matrix(1, 0, 0, 1, 0, 0)" xlink:href="#linear-gradient-4"/><mask id="mask-1" x="71.77" y="246.47" width="46.11" height="49.78" maskUnits="userSpaceOnUse"><rect class="cls-95" x="71.77" y="246.47" width="46.11" height="49.78"/></mask><linearGradient id="New_Gradient_Swatch_copy_40-9" x1="99.21" y1="275.36" x2="197.46" y2="267.83" gradientTransform="matrix(1, 0, 0, 1, 0, 0)" xlink:href="#New_Gradient_Swatch_copy_40"/><linearGradient id="New_Gradient_Swatch_copy_40-10" x1="61.85" y1="270.81" x2="108.56" y2="278.64" gradientTransform="matrix(1, 0, 0, 1, 0, 0)" xlink:href="#New_Gradient_Swatch_copy_40"/><linearGradient id="linear-gradient-54" x1="64.18" y1="260.94" x2="64.18" y2="292.64" gradientTransform="matrix(1, 0, 0, 1, 0, 0)" xlink:href="#linear-gradient-4"/><mask id="mask-2" x="41.12" y="264.6" width="46.11" height="49.78" maskUnits="userSpaceOnUse"><rect class="cls-167" x="41.12" y="264.6" width="46.11" height="49.78"/></mask><linearGradient id="New_Gradient_Swatch_copy_40-11" x1="68.55" y1="293.49" x2="166.8" y2="285.96" gradientTransform="matrix(1, 0, 0, 1, 0, 0)" xlink:href="#New_Gradient_Swatch_copy_40"/><linearGradient id="New_Gradient_Swatch_copy_40-12" x1="31.19" y1="288.94" x2="77.9" y2="296.77" gradientTransform="matrix(1, 0, 0, 1, 0, 0)" xlink:href="#New_Gradient_Swatch_copy_40"/><linearGradient id="linear-gradient-55" x1="33.78" y1="278.28" x2="33.78" y2="309.99" gradientTransform="matrix(1, 0, 0, 1, 0, 0)" xlink:href="#linear-gradient-4"/><mask id="mask-3" x="10.73" y="281.95" width="46.11" height="49.78" maskUnits="userSpaceOnUse"><rect class="cls-171" x="10.73" y="281.95" width="46.11" height="49.78"/></mask><linearGradient id="New_Gradient_Swatch_copy_40-13" x1="38.16" y1="310.84" x2="136.41" y2="303.3" gradientTransform="matrix(1, 0, 0, 1, 0, 0)" xlink:href="#New_Gradient_Swatch_copy_40"/><linearGradient id="New_Gradient_Swatch_copy_40-14" x1=".8" y1="306.29" x2="47.51" y2="314.12" gradientTransform="matrix(1, 0, 0, 1, 0, 0)" xlink:href="#New_Gradient_Swatch_copy_40"/><linearGradient id="linear-gradient-56" x1="6129.74" y1="1736.84" x2="6129.74" y2="1586.36" gradientTransform="translate(-6036.65 -1441.01)" gradientUnits="userSpaceOnUse"><stop offset=".56" stop-color="#fff"/><stop offset=".61" stop-color="#f4f4f4"/><stop offset=".69" stop-color="#d8d8d8"/><stop offset=".8" stop-color="#aaaaab"/><stop offset=".92" stop-color="#6c6b6d"/><stop offset="1" stop-color="#414042"/></linearGradient><mask id="mask-4" x="58.66" y="136.46" width="68.86" height="165.44" maskUnits="userSpaceOnUse"><rect class="cls-78" x="58.66" y="136.46" width="68.86" height="165.44" transform="translate(186.17 438.35) rotate(180)"/></mask><linearGradient id="New_Gradient_Swatch_copy_39-20" x1="106.39" y1="235.91" x2="90.31" y2="263.77" gradientTransform="matrix(1, 0, 0, 1, 0, 0)" xlink:href="#New_Gradient_Swatch_copy_39"/><linearGradient id="New_Gradient_Swatch_copy_39-21" x1="106.39" y1="169.36" x2="90.31" y2="197.22" gradientTransform="matrix(1, 0, 0, 1, 0, 0)" xlink:href="#New_Gradient_Swatch_copy_39"/><linearGradient id="New_Gradient_Swatch_copy_40-15" x1="98.34" y1="227.48" x2="210.3" y2="218.89" gradientTransform="matrix(1, 0, 0, 1, 0, 0)" xlink:href="#New_Gradient_Swatch_copy_40"/><linearGradient id="New_Gradient_Swatch_copy_40-16" x1="55.44" y1="221.79" x2="114.47" y2="231.68" gradientTransform="matrix(1, 0, 0, 1, 0, 0)" xlink:href="#New_Gradient_Swatch_copy_40"/><linearGradient id="New_Gradient_Swatch_copy_39-22" x1="99.66" y1="196.59" x2="190.7" y2="189.61" gradientTransform="matrix(1, 0, 0, 1, 0, 0)" xlink:href="#New_Gradient_Swatch_copy_39"/><linearGradient id="New_Gradient_Swatch_copy_39-23" x1="65.22" y1="192.64" x2="105.45" y2="199.38" gradientTransform="matrix(1, 0, 0, 1, 0, 0)" xlink:href="#New_Gradient_Swatch_copy_39"/><radialGradient id="Radial_Gradient_1-3" cx="79.74" cy="207.02" fx="79.74" fy="207.02" r="31.75" xlink:href="#Radial_Gradient_1"/><linearGradient id="linear-gradient-57" x1="6160.39" y1="1718.76" x2="6160.39" y2="1568.28" gradientTransform="translate(-6097.96 -1404.86)" xlink:href="#linear-gradient-56"/><mask id="mask-5" x="28" y="154.53" width="68.86" height="165.44" maskUnits="userSpaceOnUse"><rect class="cls-219" x="28" y="154.53" width="68.86" height="165.44" transform="translate(124.86 474.51) rotate(180)"/></mask><linearGradient id="New_Gradient_Swatch_copy_39-24" x1="75.73" y1="253.99" x2="59.65" y2="281.85" gradientTransform="matrix(1, 0, 0, 1, 0, 0)" xlink:href="#New_Gradient_Swatch_copy_39"/><linearGradient id="New_Gradient_Swatch_copy_39-25" x1="75.73" y1="206.3" x2="59.65" y2="234.16" gradientTransform="matrix(1, 0, 0, 1, 0, 0)" xlink:href="#New_Gradient_Swatch_copy_39"/><linearGradient id="New_Gradient_Swatch_copy_40-17" x1="68.09" y1="254.96" x2="173.64" y2="246.86" gradientTransform="matrix(1, 0, 0, 1, 0, 0)" xlink:href="#New_Gradient_Swatch_copy_40"/><linearGradient id="New_Gradient_Swatch_copy_40-18" x1="27.78" y1="249.8" x2="81.05" y2="258.73" gradientTransform="matrix(1, 0, 0, 1, 0, 0)" xlink:href="#New_Gradient_Swatch_copy_40"/><linearGradient id="New_Gradient_Swatch_copy_39-26" x1="69.01" y1="233.54" x2="160.05" y2="226.55" gradientTransform="matrix(1, 0, 0, 1, 0, 0)" xlink:href="#New_Gradient_Swatch_copy_39"/><linearGradient id="New_Gradient_Swatch_copy_39-27" x1="34.56" y1="229.59" x2="74.8" y2="236.33" gradientTransform="matrix(1, 0, 0, 1, 0, 0)" xlink:href="#New_Gradient_Swatch_copy_39"/><radialGradient id="Radial_Gradient_1-4" cx="49.08" cy="239.32" fx="49.08" fy="239.32" r="26.33" xlink:href="#Radial_Gradient_1"/><linearGradient id="linear-gradient-58" x1="6190.79" y1="1701.21" x2="6190.79" y2="1550.72" gradientTransform="translate(-6158.75 -1369.75)" xlink:href="#linear-gradient-56"/><mask id="mask-6" x="-2.39" y="172.09" width="68.86" height="165.44" maskUnits="userSpaceOnUse"><rect class="cls-71" x="-2.39" y="172.09" width="68.86" height="165.44" transform="translate(64.07 509.62) rotate(180)"/></mask><linearGradient id="New_Gradient_Swatch_copy_39-28" x1="45.34" y1="271.54" x2="29.26" y2="299.4" gradientTransform="matrix(1, 0, 0, 1, 0, 0)" xlink:href="#New_Gradient_Swatch_copy_39"/><linearGradient id="New_Gradient_Swatch_copy_39-29" x1="45.34" y1="245.34" x2="29.26" y2="273.2" gradientTransform="matrix(1, 0, 0, 1, 0, 0)" xlink:href="#New_Gradient_Swatch_copy_39"/><linearGradient id="New_Gradient_Swatch_copy_40-19" x1="38.16" y1="283.22" x2="136.41" y2="275.69" gradientTransform="matrix(1, 0, 0, 1, 0, 0)" xlink:href="#New_Gradient_Swatch_copy_40"/><linearGradient id="New_Gradient_Swatch_copy_40-20" x1=".8" y1="278.67" x2="47.51" y2="286.5" gradientTransform="matrix(1, 0, 0, 1, 0, 0)" xlink:href="#New_Gradient_Swatch_copy_40"/><linearGradient id="New_Gradient_Swatch_copy_39-30" x1="38.61" y1="272.57" x2="129.65" y2="265.59" gradientTransform="matrix(1, 0, 0, 1, 0, 0)" xlink:href="#New_Gradient_Swatch_copy_39"/><linearGradient id="New_Gradient_Swatch_copy_39-31" x1="4.17" y1="268.63" x2="44.4" y2="275.37" gradientTransform="matrix(1, 0, 0, 1, 0, 0)" xlink:href="#New_Gradient_Swatch_copy_39"/><radialGradient id="Radial_Gradient_1-5" cx="18.69" cy="273.08" fx="18.69" fy="273.08" r="20.97" xlink:href="#Radial_Gradient_1"/><linearGradient id="New_Gradient_Swatch_copy_39-32" x1="84.14" y1="84.23" x2="166.06" y2="14.36" gradientTransform="matrix(1, 0, 0, 1, 0, 0)" xlink:href="#New_Gradient_Swatch_copy_39"/><linearGradient id="New_Gradient_Swatch_copy_39-33" x1="88.69" y1="89.57" x2="170.61" y2="19.7" gradientTransform="matrix(1, 0, 0, 1, 0, 0)" xlink:href="#New_Gradient_Swatch_copy_39"/><linearGradient id="linear-gradient-59" x1="158.22" y1="46.3" x2="148.79" y2="94.51" gradientUnits="userSpaceOnUse"><stop offset=".01" stop-color="#39bcff"/><stop offset="1" stop-color="#2a00d4"/></linearGradient><linearGradient id="linear-gradient-60" x1="138.48" y1="103.55" x2="184.33" y2="107.48" xlink:href="#linear-gradient-59"/><linearGradient id="linear-gradient-61" x1="173.89" y1="91.55" x2="167.86" y2="55.66" xlink:href="#linear-gradient-59"/><linearGradient id="linear-gradient-62" x1="184.67" y1="74.27" x2="164.23" y2="74" xlink:href="#linear-gradient-59"/><linearGradient id="linear-gradient-63" x1="150.53" y1="121.03" x2="148.96" y2="175" xlink:href="#linear-gradient-59"/><linearGradient id="linear-gradient-64" x1="131.7" y1="148.68" x2="171.26" y2="184.83" xlink:href="#linear-gradient-59"/><linearGradient id="linear-gradient-65" x1="155.86" y1="170.22" x2="191.49" y2="142.97" xlink:href="#linear-gradient-59"/><linearGradient id="linear-gradient-66" x1="168.31" y1="134.85" x2="176.69" y2="171.53" xlink:href="#linear-gradient-59"/><linearGradient id="linear-gradient-67" x1="154.52" y1="161.49" x2="175.48" y2="121.66" xlink:href="#linear-gradient-59"/><radialGradient id="radial-gradient-9" cx="-770.74" cy="-1892.92" fx="-770.74" fy="-1892.92" r="35.94" gradientTransform="translate(-863.96 1482.6) rotate(29.69) scale(1 .86) skewX(-26.42)" gradientUnits="userSpaceOnUse"><stop offset=".43" stop-color="#7b70b8"/><stop offset=".51" stop-color="#847abd"/><stop offset=".64" stop-color="#9e95ca"/><stop offset=".81" stop-color="#c7c2e1"/><stop offset="1" stop-color="#fff"/></radialGradient><radialGradient id="radial-gradient-10" cx="-1247.65" cy="1782.24" fx="-1247.65" fy="1782.24" r="12.69" gradientTransform="translate(1567.95 1220.09) scale(1.18 -.58)" gradientUnits="userSpaceOnUse"><stop offset=".19" stop-color="#5f5c5e"/><stop offset="1" stop-color="#fff"/></radialGradient><linearGradient id="linear-gradient-68" x1="6497.84" y1="146.2" x2="6489.26" y2="127.06" gradientTransform="translate(6609.24) rotate(-180) scale(1 -1)" gradientUnits="userSpaceOnUse"><stop offset="0" stop-color="#ffaf96"/><stop offset=".23" stop-color="#fff6c9"/><stop offset=".54" stop-color="#f9a673"/><stop offset=".64" stop-color="#f9a876"/><stop offset=".72" stop-color="#faaf81"/><stop offset=".81" stop-color="#fcbb92"/><stop offset=".86" stop-color="#fec7a3"/><stop offset=".97" stop-color="#ffb48c"/></linearGradient><linearGradient id="linear-gradient-69" x1="6482.92" y1="134.52" x2="6495.23" y2="138.44" gradientTransform="translate(6609.24) rotate(-180) scale(1 -1)" gradientUnits="userSpaceOnUse"><stop offset="0" stop-color="#f9a673"/><stop offset=".21" stop-color="#f9a776"/><stop offset=".39" stop-color="#fcad81"/><stop offset=".51" stop-color="#ffb48c"/><stop offset="1" stop-color="#fec7a3"/></linearGradient><linearGradient id="linear-gradient-70" x1="6492.49" y1="124.33" x2="6498.18" y2="132.83" xlink:href="#linear-gradient-68"/><radialGradient id="radial-gradient-11" cx="6489.09" cy="140.08" fx="6489.09" fy="140.08" r="4.89" gradientTransform="translate(6609.24) rotate(-180) scale(1 -1)" gradientUnits="userSpaceOnUse"><stop offset="0" stop-color="#fff"/><stop offset="1" stop-color="#000"/></radialGradient><radialGradient id="radial-gradient-12" cx="6493.76" cy="128.41" fx="6493.76" fy="128.41" r="1.87" xlink:href="#radial-gradient-11"/><linearGradient id="linear-gradient-71" x1="6501.33" y1="189.95" x2="6525.58" y2="189.95" xlink:href="#linear-gradient-68"/><linearGradient id="linear-gradient-72" x1="6535.53" y1="163.7" x2="6512.24" y2="187.14" gradientTransform="translate(6609.24) rotate(-180) scale(1 -1)" gradientUnits="userSpaceOnUse"><stop offset=".04" stop-color="#ffaa78"/><stop offset=".35" stop-color="#feb984"/><stop offset=".95" stop-color="#fee1a5"/><stop offset="1" stop-color="#fee5a8"/></linearGradient><linearGradient id="linear-gradient-73" x1="6525.85" y1="188.28" x2="6525.85" y2="188.28" xlink:href="#linear-gradient-68"/><linearGradient id="linear-gradient-74" x1="6501.33" y1="192.18" x2="6525.58" y2="192.18" xlink:href="#linear-gradient-68"/><radialGradient id="radial-gradient-13" cx="6508.66" cy="192.71" fx="6508.66" fy="192.71" r="4.78" xlink:href="#radial-gradient-11"/><linearGradient id="linear-gradient-75" x1="6506.53" y1="186.7" x2="6520.45" y2="186.7" xlink:href="#linear-gradient-68"/><linearGradient id="linear-gradient-76" x1="6526.17" y1="171.2" x2="6512.79" y2="184.66" xlink:href="#linear-gradient-72"/><radialGradient id="radial-gradient-14" cx="6509.16" cy="187.89" fx="6509.16" fy="187.89" r="3.05" xlink:href="#radial-gradient-11"/><linearGradient id="linear-gradient-77" x1="6508.95" y1="181.46" x2="6518.6" y2="184.53" xlink:href="#linear-gradient-68"/><linearGradient id="linear-gradient-78" x1="6519.38" y1="174.25" x2="6513.19" y2="180.48" xlink:href="#linear-gradient-72"/><linearGradient id="linear-gradient-79" x1="6510.29" y1="177.1" x2="6516.74" y2="177.1" xlink:href="#linear-gradient-68"/><linearGradient id="linear-gradient-80" x1="6519.38" y1="166.74" x2="6513.19" y2="172.97" xlink:href="#linear-gradient-72"/><radialGradient id="radial-gradient-15" cx="6511.94" cy="168.35" fx="6511.94" fy="168.35" r="7.25" gradientTransform="translate(6609.24) rotate(-180) scale(1 -1)" gradientUnits="userSpaceOnUse"><stop offset=".15" stop-color="#fff6c9"/><stop offset=".54" stop-color="#f9a673"/><stop offset=".64" stop-color="#f9a876"/><stop offset=".72" stop-color="#faaf81"/><stop offset=".81" stop-color="#fcbb92"/><stop offset=".86" stop-color="#fec7a3"/><stop offset=".97" stop-color="#ffb48c"/></radialGradient><linearGradient id="linear-gradient-81" x1="6494.89" y1="154.72" x2="6532.01" y2="154.72" xlink:href="#linear-gradient-68"/><radialGradient id="radial-gradient-16" cx="20795.33" cy="-1808.27" fx="20795.33" fy="-1808.27" r="17.41" gradientTransform="translate(4603.72 269.1) rotate(162.7) scale(.21 -.8) skewX(-.02)" gradientUnits="userSpaceOnUse"><stop offset="0" stop-color="#754329"/><stop offset=".09" stop-color="#5f3621"/><stop offset=".27" stop-color="#3d2315"/><stop offset=".44" stop-color="#22130c"/><stop offset=".62" stop-color="#0f0805"/><stop offset=".81" stop-color="#030201"/><stop offset="1" stop-color="#000"/></radialGradient><radialGradient id="radial-gradient-17" cx="13223.55" cy="1126.21" fx="13223.55" fy="1126.21" r="16.65" gradientTransform="translate(5806.14 208.29) rotate(-168.07) scale(.42 -1)" gradientUnits="userSpaceOnUse"><stop offset="0" stop-color="#f48887"/><stop offset=".12" stop-color="#bc6968"/><stop offset=".24" stop-color="#8b4d4c"/><stop offset=".36" stop-color="#603535"/><stop offset=".48" stop-color="#3d2222"/><stop offset=".61" stop-color="#221313"/><stop offset=".74" stop-color="#0f0808"/><stop offset=".86" stop-color="#030202"/><stop offset="1" stop-color="#000"/></radialGradient><linearGradient id="linear-gradient-82" x1="6494.19" y1="142.39" x2="6532.69" y2="142.39" xlink:href="#linear-gradient-68"/><linearGradient id="linear-gradient-83" x1="6549.71" y1="99.22" x2="6511.45" y2="137.72" xlink:href="#linear-gradient-72"/><radialGradient id="White_Black_Radial" cx="6505.16" cy="143.97" fx="6505.16" fy="143.97" r="24.58" gradientTransform="translate(6609.24) rotate(-180) scale(1 -1)" gradientUnits="userSpaceOnUse"><stop offset="0" stop-color="#fff"/><stop offset="1" stop-color="#000"/></radialGradient><linearGradient id="linear-gradient-84" x1="6531.7" y1="135.5" x2="6495.49" y2="135.5" xlink:href="#linear-gradient-68"/><radialGradient id="radial-gradient-18" cx="6514.23" cy="145.73" fx="6514.23" fy="145.73" r="17.83" gradientTransform="translate(6609.24) rotate(-180) scale(1 -1)" gradientUnits="userSpaceOnUse"><stop offset="0" stop-color="#e6c2bd"/><stop offset="1" stop-color="#fff"/></radialGradient><radialGradient id="radial-gradient-19" cx="27101.17" cy="12086.62" fx="27101.17" fy="12086.62" r="27.76" gradientTransform="translate(4859.75 2797.27) rotate(-108.79) scale(.15 -.3) skewX(-.04)" xlink:href="#radial-gradient-17"/><linearGradient id="linear-gradient-85" x1="6525.45" y1="145.86" x2="6535.55" y2="165.14" xlink:href="#linear-gradient-68"/><linearGradient id="linear-gradient-86" x1="6514.06" y1="163.01" x2="6533.53" y2="150.07" xlink:href="#linear-gradient-69"/><linearGradient id="linear-gradient-87" x1="6522.44" y1="163.64" x2="6526.71" y2="165" xlink:href="#linear-gradient-72"/><radialGradient id="radial-gradient-20" cx="6533.78" cy="149.5" fx="6533.78" fy="149.5" r="4.81" xlink:href="#radial-gradient-11"/><radialGradient id="radial-gradient-21" cx="932.03" cy="17935.04" fx="932.03" fy="17935.04" r="10.87" gradientTransform="translate(3589.87 2522.8) rotate(-57.84) scale(.15 -.24) skewX(.01)" xlink:href="#radial-gradient-17"/><radialGradient id="radial-gradient-22" cx="29370.39" cy="-12372.6" fx="29370.39" fy="-12372.6" r="20.54" gradientTransform="translate(5865.03 625.88) rotate(143.98) scale(.15 -.3) skewX(.02)" xlink:href="#radial-gradient-17"/><radialGradient id="radial-gradient-23" cx="26673.04" cy="12100.49" fx="26673.04" fy="12100.49" r="11.75" gradientTransform="translate(4859.75 2797.27) rotate(-108.79) scale(.15 -.3) skewX(-.04)" xlink:href="#radial-gradient-17"/></defs><g class="cls-96"><g id="Layer_2"><g id="Layer_1-2"><g><path class="cls-101" d="M44.8,205.52c0,1.58,1.15,3.24,3.4,4.54l32.56,31.08c4.12,2.38,10.35,2.64,13.92,.58l59.24-34.41c1.72-1,2.5-2.35,2.39-3.75,.01,.07,.02,.15,.02,.25,0,.04,0,4.43,0,4.48-.03,1.28-.82,2.51-2.41,3.43l-59.24,34.4c-3.57,2.06-9.8,1.8-13.92-.58l-32.56-31.08c-2.29-1.32-3.44-3.02-3.41-4.61,0-.27-.04-3.22,0-4.32Z"/><g class="cls-100"><path class="cls-108" d="M88.64,245.54c3.25,0,6.2-.71,8.53-2.06l59.24-34.41c3.11-1.8,4.89-4.64,4.89-7.8,0-3.46-2.15-6.69-5.89-8.85l-51.99-20c-2.94-1.7-6.62-2.63-10.36-2.63-3.25,0-6.2,.71-8.53,2.06l-39.81,23.33c-3.11,1.8-4.89,4.64-4.89,7.8,0,3.46,2.15,6.69,5.89,8.85l32.56,31.08c2.94,1.7,6.62,2.63,10.36,2.63Z"/><path class="cls-180" d="M84.75,172.25l-39.37,23.07s-.47,.28-.49,.29c-3.1,1.82-4.49,4.7-4.31,7.79s2.54,6.64,5.95,8.61l31.98,30.52c3.05,1.76,6.96,2.63,10.68,2.45,2.96,0,6.25-1,8.37-2.23l58.62-34.05c2.99-1.73,4.68-4.44,4.67-7.44-.01-3.28-2.07-6.35-5.67-8.43l-51.67-19.87c-1.04-.6-2.52-1.21-3.72-1.61-2.05-.67-4.29-1.06-6.55-1.08-3.22-.03-6.18,.65-8.48,1.99Z"/><path class="cls-67" d="M84.98,172.64l-39.42,23.09s-.46,.27-.49,.29c-3.1,1.85-4.09,4.73-3.73,7.78,.33,2.81,2.93,6.6,6,8.36l31.39,29.96c3.16,1.82,7.3,2.63,11.01,2.26,2.66,0,6.3-1.3,8.21-2.4l58.01-33.69c2.87-1.65,4.47-4.23,4.44-7.08-.03-3.1-2-6.02-5.44-8l-51.34-19.75c-.94-.54-2.62-1.22-3.71-1.58-2.03-.68-4.24-1.11-6.49-1.16-3.2-.06-6.15,.6-8.44,1.91Z"/><path class="cls-173" d="M85.21,173.03l-39.46,23.12s-.45,.26-.49,.29c-3.09,1.88-4.22,4.86-3.15,7.78,0,2.52,3.33,6.55,6.05,8.12l30.8,29.39c3.26,1.88,7.64,2.63,11.33,2.07,2.36,0,6.36-1.59,8.05-2.57l57.39-33.33c2.74-1.58,4.25-4.03,4.21-6.72-.04-2.92-1.92-5.68-5.21-7.58l-51.02-19.63c-.84-.48-2.73-1.23-3.69-1.56-2-.69-4.19-1.17-6.42-1.24-3.17-.09-6.13,.54-8.39,1.84Z"/><path class="cls-85" d="M85.43,173.42l-39.5,23.14c-.06,.04-.43,.26-.49,.29-3.08,1.91-4,4.94-2.57,7.77,0,2.2,3.72,6.5,6.1,7.88l30.21,28.83c3.37,1.95,7.98,2.63,11.65,1.89,2.07,0,6.41-1.88,7.89-2.74l56.78-32.98c2.62-1.51,4.04-3.83,3.98-6.36-.06-2.74-1.84-5.34-4.98-7.15l-50.7-19.5c-.73-.42-2.83-1.23-3.67-1.53-1.98-.7-4.14-1.23-6.36-1.31-3.14-.12-6.1,.48-8.34,1.77Z"/><path class="cls-49" d="M85.66,173.81l-39.55,23.17c-.08,.05-.42,.25-.49,.3-3.07,1.93-3.78,5.01-1.99,7.77,0,1.89,4.11,6.45,6.16,7.63l29.62,28.27c3.48,2.01,8.32,2.63,11.98,1.7,1.77,0,6.46-2.18,7.73-2.91l56.16-32.62c2.5-1.44,3.83-3.63,3.76-6-.07-2.56-1.77-5-4.75-6.73l-50.38-19.38c-.63-.36-2.94-1.25-3.65-1.51-1.95-.72-4.09-1.28-6.29-1.39-3.11-.15-6.08,.42-8.3,1.7Z"/><path class="cls-66" d="M85.88,174.21l-39.59,23.2c-.09,.05-.4,.24-.49,.3-3.07,1.96-3.55,5.09-1.41,7.76,0,1.57,4.51,6.41,6.21,7.39l29.03,27.71c3.58,2.07,8.66,2.64,12.3,1.51,1.48,0,6.51-2.47,7.57-3.08l55.55-32.26c2.38-1.37,3.61-3.43,3.53-5.65-.09-2.38-1.69-4.67-4.53-6.31l-50.05-19.25c-.52-.3-3.04-1.26-3.64-1.49-1.93-.73-4.05-1.34-6.23-1.47-3.08-.18-6.05,.36-8.25,1.63Z"/><path class="cls-75" d="M86.11,174.6l-39.64,23.22c-.11,.06-.39,.23-.49,.3-3.06,1.99-3.33,5.16-.83,7.75,0,1.26,4.9,6.36,6.26,7.15l28.45,27.15c3.69,2.13,8.99,2.64,12.62,1.32,1.18,0,6.56-2.76,7.41-3.25l54.93-31.9c2.25-1.3,3.4-3.22,3.3-5.29-.1-2.19-1.61-4.33-4.3-5.88l-49.73-19.13c-.42-.24-3.14-1.28-3.62-1.46-1.9-.74-4-1.39-6.16-1.55-3.06-.21-6.03,.31-8.2,1.56Z"/><path class="cls-154" d="M86.34,174.99l-39.68,23.25c-.12,.07-.38,.22-.49,.3-3.05,2.01-3.11,5.24-.25,7.75,0,.94,5.29,6.31,6.31,6.9l27.86,26.59c3.8,2.19,9.33,2.64,12.95,1.14,.89,0,6.61-3.05,7.25-3.42l54.32-31.55c2.13-1.23,3.19-3.02,3.07-4.93-.12-2.01-1.54-3.99-4.07-5.46l-49.41-19.01c-.31-.18-3.25-1.29-3.6-1.44-1.88-.76-3.95-1.45-6.1-1.62-3.03-.24-6,.25-8.15,1.49Z"/><path class="cls-45" d="M86.56,175.38l-39.72,23.27c-.14,.08-.36,.22-.49,.3-3.04,2.04-2.88,5.31,.33,7.74,0,.63,5.68,6.27,6.36,6.66l27.27,26.03c3.91,2.25,9.67,2.64,13.27,.95,.59,0,6.67-3.35,7.09-3.59l53.7-31.19c2.01-1.16,2.97-2.82,2.84-4.57-.13-1.83-1.46-3.66-3.84-5.03l-49.09-18.88c-.21-.12-3.35-1.32-3.58-1.41-1.86-.77-3.9-1.5-6.04-1.7-3-.28-5.98,.19-8.11,1.42Z"/><path class="cls-102" d="M86.79,175.77l-39.77,23.3c-.16,.09-.35,.21-.49,.31-3.04,2.07-2.66,5.39,.91,7.73,0,.31,6.08,6.22,6.42,6.42l26.68,25.47c4.01,2.32,10.01,2.64,13.59,.76,.3,0,6.72-3.64,6.93-3.76l53.08-30.83c1.89-1.09,2.76-2.62,2.62-4.21-.15-1.65-1.38-3.32-3.62-4.61l-48.76-18.76c-.1-.06-3.45-1.34-3.57-1.39-1.84-.78-3.85-1.56-5.97-1.78-2.97-.31-5.96,.13-8.06,1.35Z"/><path d="M94.68,239.18l59.24-34.4c3.57-2.06,3.12-5.66-1-8.04l-51.99-20c-4.12-2.38-10.35-2.64-13.92-.58l-39.81,23.33c-3.57,2.06-3.12,5.66,1,8.04l32.56,31.08c4.12,2.38,10.35,2.64,13.92,.58Z"/></g><path class="cls-27" d="M94.68,239.1l59.24-34.4c1.59-.92,2.38-2.14,2.41-3.43,0-.04,0-4.43,0-4.48-.03-1.56-1.18,1.15-3.41-.13l-51.99-20c-4.12-2.38-10.35-2.64-13.92-.58l-39.81,23.33c-1.19,.69-2.05-2.23-2.36-1.3-.1,.31-.04,4.4-.04,4.72-.03,1.6,1.12,3.29,3.41,4.61l32.56,31.08c4.12,2.38,10.35,2.64,13.92,.58Z"/><path class="cls-200" d="M94.68,234.7l59.24-34.41c3.57-2.06,3.12-5.66-1-8.04l-51.99-20c-4.12-2.38-10.35-2.64-13.92-.58l-39.81,23.33c-3.57,2.06-3.12,5.66,1,8.04l32.56,31.08c4.12,2.38,10.35,2.64,13.92,.58Z"/><path class="cls-35" d="M47.2,195.01l39.81-23.33c3.57-2.06,9.8-1.8,13.92,.58l26.19,10.08c-.25,.2-.51,.39-.81,.56l-59.24,34.4c-.82,.47-1.79,.82-2.83,1.05l-16.04-15.31c-4.12-2.38-4.57-5.98-1-8.04Z"/><path class="cls-7" d="M48.2,202.3l32.56,31.08c4.12,2.38,10.35,2.64,13.92,.58l59.24-34.4c1.48-.85,2.26-1.97,2.38-3.16,.19,1.46-.59,2.88-2.38,3.91l-59.24,34.4c-3.57,2.06-9.8,1.8-13.92-.58l-32.56-31.08c-2.41-1.39-3.55-3.2-3.38-4.87,.18,1.45,1.32,2.94,3.38,4.13Z"/></g><g><path class="cls-164" d="M17.29,234.89l145.49-84.07c7.44-4.29,13.47-15.82,13.47-25.73V13.83c0-9.92-6.03-14.48-13.47-10.18L17.29,87.71c-7.44,4.29-13.47,15.82-13.47,25.73v111.27c0,9.92,6.03,14.48,13.47,10.18Z"/><path class="cls-93" d="M15.55,227.15l143.44-82.87c5.99-3.8,9.69-11.41,9.69-19.18V13.09c0-1.84-2-2.99-3.6-2.06-.19,.11-.33,.19-.42,.25L21.07,94.26c-7.13,4.11-9.69,11.41-9.69,19.18v111.65c0,1.98,2.14,3.22,3.85,2.24,.14-.08,.24-.14,.31-.18Z"/><path class="cls-37" d="M11.38,113.44v111.65c0,1.98,2.14,3.22,3.85,2.24,.14-.08,.24-.14,.31-.18l143.44-82.87c5.99-3.8,9.69-11.41,9.69-19.18V13.09c0-1.84-2-2.99-3.6-2.06-.19,.11-.33,.19-.42,.25L21.07,94.26c-7.13,4.11-9.69,11.41-9.69,19.18Zm1.51,0c0-5.81,1.55-13.62,8.93-17.87L165.85,12.34c.14-.08,.29-.12,.44-.12,.42,0,.88,.33,.88,.87V125.09c0,7.41-3.53,14.44-8.93,17.87L14.49,226.01c-.17,.1-.34,.14-.52,.14-.51,0-1.07-.41-1.07-1.07V113.44Z"/><path class="cls-183" d="M13.47,85.68L158.96,1.62c2.94-1.7,5.67-2.01,7.88-1.16,.28,.11,4.04,2.1,4.3,2.25,0,0,.01,0,.01,0-2.29-1.11-5.21-.91-8.38,.93L17.29,87.71c-7.44,4.29-13.47,15.82-13.47,25.73v111.27c0,6.19,2.35,10.29,5.92,11.46-.29,.02-.65-.1-1.18-.4-.17-.1-4.25-2.4-4.41-2.51-2.56-1.79-4.15-5.47-4.15-10.57V111.42c0-9.92,6.03-21.44,13.47-25.73Z"/><path class="cls-5" d="M16.64,87.39L162.13,3.32c3.05-1.76,5.85-2.01,8.11-1.04-1.93-.31-4.14,.16-6.5,1.52L18.25,87.87c-7.44,4.29-13.47,15.82-13.47,25.73v111.27c0,5.85,2.11,9.81,5.36,11.22-4.16-.66-6.97-4.93-6.97-11.7V113.12c0-9.92,6.03-21.44,13.47-25.73Z"/></g><g><g class="cls-40"><path class="cls-109" d="M168.73,47.69c5.93-3.42,10.73-.68,10.73,6.12v98.82c0,6.8-4.8,15.09-10.73,18.51l-33.38,18.65c-5.93,3.42-13.11,.31-13.11-6.49V84.47c0-6.8,7.18-14.71,13.11-18.13l33.38-18.65Z"/><path class="cls-179" d="M169.3,47.93c5.93-3.42,10.73-.68,10.73,6.12v98.45c0,6.8-4.8,15.09-10.73,18.51l-33.4,18.66c-5.93,3.42-12.89,.34-12.89-6.46V84.76c0-6.8,6.96-14.75,12.89-18.17l33.4-18.66Z"/><path class="cls-68" d="M169.87,48.18c5.93-3.42,10.73-.68,10.73,6.12v98.07c0,6.8-4.81,15.09-10.73,18.51l-33.42,18.67c-5.93,3.42-12.68,.38-12.68-6.43V85.06c0-6.8,6.75-14.78,12.68-18.21l33.42-18.67Z"/><path class="cls-172" d="M170.44,48.42c5.93-3.42,10.74-.68,10.74,6.12v97.7c0,6.8-4.81,15.09-10.74,18.52l-33.43,18.69c-5.93,3.42-12.46,.41-12.46-6.39V85.35c0-6.8,6.53-14.82,12.46-18.24l33.43-18.69Z"/><path class="cls-84" d="M171.01,48.66c5.93-3.42,10.74-.68,10.74,6.12v97.33c0,6.8-4.81,15.1-10.74,18.52l-33.45,18.7c-5.93,3.42-12.25,.44-12.25-6.36V85.64c0-6.8,6.32-14.86,12.25-18.28l33.45-18.7Z"/><path class="cls-48" d="M171.58,48.91c5.93-3.42,10.74-.68,10.74,6.12v96.96c0,6.81-4.81,15.1-10.74,18.52l-33.46,18.71c-5.93,3.42-12.03,.48-12.03-6.33V85.94c0-6.8,6.1-14.89,12.03-18.32l33.46-18.71Z"/><path class="cls-65" d="M172.15,49.15c5.93-3.42,10.74-.68,10.74,6.12v96.59c0,6.81-4.81,15.1-10.74,18.52l-33.48,18.73c-5.93,3.42-11.82,.51-11.82-6.29V86.23c0-6.81,5.89-14.93,11.82-18.35l33.48-18.73Z"/><path class="cls-74" d="M172.72,49.4c5.93-3.42,10.74-.68,10.74,6.12v96.22c0,6.81-4.81,15.1-10.74,18.53l-33.5,18.74c-5.93,3.42-11.6,.55-11.6-6.26V86.52c0-6.81,5.67-14.96,11.6-18.39l33.5-18.74Z"/><path class="cls-155" d="M173.29,49.64c5.93-3.43,10.74-.68,10.74,6.12v95.85c0,6.81-4.81,15.1-10.74,18.53l-33.51,18.75c-5.93,3.43-11.39,.58-11.39-6.23V86.82c0-6.81,5.46-15,11.39-18.43l33.51-18.75Z"/><path class="cls-44" d="M173.86,49.88c5.93-3.43,10.74-.68,10.74,6.13v95.48c0,6.81-4.81,15.1-10.74,18.53l-33.53,18.77c-5.93,3.43-11.17,.61-11.17-6.19V87.11c0-6.81,5.24-15.04,11.17-18.46l33.53-18.77Z"/><path class="cls-103" d="M174.42,50.13c5.93-3.43,10.74-.68,10.74,6.13v95.11c0,6.81-4.81,15.11-10.74,18.53l-33.55,18.78c-5.93,3.43-10.96,.65-10.96-6.16V87.4c0-6.81,5.03-15.07,10.96-18.5l33.55-18.78Z"/><path class="cls-213" d="M174.99,50.37c5.93-3.43,10.75-.68,10.75,6.13v94.74c0,6.81-4.81,15.11-10.75,18.53l-33.56,18.79c-5.93,3.43-10.75,.68-10.75-6.13V87.7c0-6.81,4.81-15.11,10.75-18.53l33.56-18.79Z"/></g><path class="cls-56" d="M175.3,49.47c5.96-3.44,10.78-.69,10.78,6.15v100.85c0,6.83-4.83,15.16-10.78,18.6l-33.81,18.94c-5.96,3.44-10.78,.69-10.78-6.15V87.01c0-6.83,4.83-15.16,10.78-18.6l33.81-18.94Z"/><path class="cls-17" d="M141.49,68.41l33.81-18.94c5.96-3.44,10.78-.69,10.78,6.15v1.04c0-6.83-4.83-9.59-10.78-6.15l-33.81,18.94c-5.96,3.44-10.78,11.77-10.78,18.6v-1.04c0-6.83,4.83-15.16,10.78-18.6Z"/></g><g class="cls-100"><path class="cls-108" d="M264.22,255.91c-1.86,0-3.55-.41-4.88-1.18l-29.64-16.87-29.64-16.87c-1.78-1.03-2.8-2.65-2.8-4.46,0-1.98,1.23-3.83,3.37-5.06l19.4-10.91c1.68-.97,3.79-1.51,5.93-1.51,1.86,0,3.55,.41,4.88,1.18l29.64,16.87,29.64,16.87c1.78,1.03,2.8,2.65,2.8,4.46,0,1.98-1.23,3.83-3.37,5.06l-19.4,10.91c-1.68,.97-3.79,1.51-5.93,1.51Z"/><path class="cls-180" d="M201.15,211.88l5.26-2.93c.21-.12,10.08-5.51,10.27-5.4l3.39-1.66c1.53-.88,3.78-1.18,5.72-1.18,1.69,0,3.5,.53,4.71,1.23l23.76,13.53,5.04,2.87,28.8,16.41c.92,.53,1.78,1.35,2.23,2.16,.36,.65,.58,1.35,.6,2.09,.06,1.9-1.12,3.71-3.22,4.92l-5.26,2.93c-.21,.12-10.09,5.51-10.27,5.4l-3.39,1.66c-1.53,.88-3.78,1.18-5.72,1.18-1.69,0-3.5-.53-4.71-1.23l-23.76-13.53-5.04-2.87-28.8-16.41c-.92-.53-1.78-1.35-2.23-2.16-.36-.65-.58-1.35-.6-2.09-.06-1.9,1.12-3.71,3.22-4.92Z"/><path class="cls-67" d="M201.68,212.3l5.12-2.83c.43-.25,9.67-5.11,10.04-4.89l3.29-1.36c1.38-.79,3.77-.85,5.52-.85,1.52,0,3.45,.65,4.54,1.28l23.06,13.15,4.89,2.79,27.96,15.94c.83,.48,1.78,1.34,2.2,2.06,.36,.63,.61,1.28,.65,1.99,.11,1.83-1,3.59-3.07,4.78l-5.12,2.83c-.43,.25-9.67,5.11-10.04,4.89l-3.29,1.36c-1.38,.79-3.77,.85-5.52,.85-1.52,0-3.45-.65-4.54-1.28l-23.06-13.15-4.89-2.79-27.96-15.94c-.83-.48-1.78-1.34-2.2-2.06-.36-.63-.61-1.28-.65-1.99-.11-1.83,1-3.59,3.07-4.78Z"/><path class="cls-173" d="M202.2,212.72l4.98-2.72c.64-.37,9.25-4.71,9.81-4.39l3.18-1.06c1.22-.71,3.76-.52,5.32-.52,1.35,0,3.4,.77,4.37,1.33l22.36,12.76,4.74,2.7,27.12,15.48c.74,.43,1.78,1.32,2.17,1.95s.64,1.22,.71,1.89c.16,1.75-.89,3.47-2.92,4.64l-4.98,2.72c-.64,.37-9.25,4.71-9.81,4.39l-3.18,1.06c-1.22,.71-3.76,.52-5.32,.52-1.35,0-3.4-.77-4.37-1.33l-22.36-12.76-4.73-2.7-27.12-15.48c-.74-.43-1.78-1.32-2.17-1.95s-.64-1.22-.71-1.89c-.16-1.75,.89-3.47,2.92-4.64Z"/><path class="cls-85" d="M202.73,213.14l4.84-2.62c.86-.49,8.84-4.31,9.58-3.88l3.08-.76c1.07-.62,3.75-.19,5.11-.19,1.18,0,3.36,.89,4.2,1.38l21.66,12.38,4.58,2.62,26.28,15.02c.65,.37,1.79,1.3,2.14,1.85,.37,.58,.68,1.15,.76,1.79,.22,1.67-.77,3.35-2.77,4.5l-4.84,2.62c-.86,.49-8.84,4.31-9.58,3.88l-3.08,.76c-1.07,.62-3.75,.19-5.11,.19-1.18,0-3.36-.89-4.2-1.38l-21.66-12.38-4.58-2.62-26.28-15.02c-.65-.37-1.79-1.3-2.14-1.85-.37-.58-.68-1.15-.76-1.79-.22-1.67,.77-3.35,2.77-4.5Z"/><path class="cls-49" d="M203.25,213.55l4.69-2.51c1.07-.62,8.42-3.91,9.35-3.37l2.98-.45c.92-.53,3.74,.14,4.91,.14,1.01,0,3.31,1.01,4.04,1.43l20.97,12,4.43,2.54,25.44,14.55c.55,.32,1.79,1.28,2.11,1.74,.38,.56,.71,1.08,.81,1.69,.27,1.6-.66,3.23-2.62,4.36l-4.69,2.51c-1.07,.62-8.42,3.91-9.35,3.37l-2.98,.45c-.92,.53-3.74-.14-4.91-.14-1.01,0-3.31-1.01-4.04-1.43l-20.97-12-4.43-2.54-25.44-14.55c-.55-.32-1.79-1.28-2.11-1.74-.38-.56-.71-1.08-.81-1.69-.27-1.6,.66-3.23,2.62-4.36Z"/><path class="cls-66" d="M203.78,213.97l4.55-2.41c1.29-.74,8-3.51,9.12-2.87l2.87-.15c.77-.44,3.73,.48,4.7,.48,.85,0,3.26,1.14,3.87,1.49l20.27,11.61,4.28,2.45,24.6,14.09c.46,.27,1.81,1.26,2.07,1.64,.38,.54,.74,1.02,.87,1.59,.33,1.52-.54,3.11-2.47,4.22l-4.55,2.41c-1.29,.74-8,3.51-9.12,2.87l-2.87,.15c-.77,.44-3.73-.48-4.7-.48-.85,0-3.26-1.14-3.87-1.49l-20.27-11.61-4.28-2.45-24.6-14.09c-.46-.27-1.81-1.26-2.08-1.64-.38-.54-.74-1.02-.87-1.59-.33-1.52,.54-3.11,2.47-4.22Z"/><path class="cls-75" d="M204.31,214.39l4.41-2.3c1.5-.87,7.59-3.11,8.89-2.36l2.77,.15c.61-.35,3.72,.81,4.5,.81,.68,0,3.21,1.26,3.7,1.54l19.57,11.23,4.13,2.37,23.76,13.63c.37,.21,1.82,1.24,2.04,1.53,.39,.52,.78,.95,.92,1.49,.39,1.44-.43,2.99-2.31,4.08l-4.41,2.3c-1.5,.87-7.59,3.11-8.89,2.36l-2.77-.15c-.61,.35-3.72-.81-4.5-.81-.68,0-3.21-1.26-3.7-1.54l-19.57-11.23-4.13-2.37-23.76-13.63c-.37-.21-1.82-1.24-2.04-1.53-.39-.52-.78-.95-.92-1.49-.39-1.44,.43-2.99,2.31-4.08Z"/><path class="cls-154" d="M204.83,214.81l4.27-2.2c1.71-.99,7.17-2.71,8.66-1.85l2.67,.45c.46-.26,3.71,1.14,4.3,1.14,.51,0,3.16,1.38,3.53,1.59l18.88,10.84,3.98,2.29,22.92,13.16c.28,.16,1.89,1.18,2.01,1.43,.49,.41,.81,.88,.98,1.39,.44,1.36-.32,2.87-2.16,3.94l-4.27,2.2c-1.71,.99-7.17,2.71-8.66,1.85l-2.67-.45c-.46,.26-3.71-1.14-4.3-1.14-.51,0-3.16-1.38-3.53-1.59l-18.88-10.84-3.98-2.29-22.92-13.16c-.28-.16-1.89-1.18-2.01-1.43-.49-.41-.81-.88-.98-1.39-.44-1.36,.32-2.87,2.16-3.93Z"/><path class="cls-45" d="M205.36,215.22l4.13-2.09c1.93-1.11,6.75-2.31,8.42-1.34l2.56,.76c.31-.18,3.7,1.47,4.09,1.47,.34,0,3.12,1.5,3.36,1.64l18.18,10.46,3.83,2.2,22.08,12.7c.18,.11,1.9,1.16,1.98,1.32,.5,.38,.85,.82,1.03,1.29,.5,1.29-.2,2.75-2.01,3.79l-4.13,2.09c-1.93,1.11-6.75,2.31-8.43,1.34l-2.56-.76c-.31,.18-3.7-1.47-4.09-1.47-.34,0-3.12-1.5-3.36-1.64l-18.18-10.46-3.83-2.2-22.08-12.7c-.18-.11-1.9-1.16-1.98-1.32-.5-.38-.85-.82-1.03-1.29-.5-1.29,.2-2.75,2.01-3.79Z"/><path class="cls-102" d="M205.88,215.64l3.98-1.98c2.14-1.24,6.34-1.91,8.19-.84l2.46,1.06c.15-.09,3.69,1.8,3.89,1.8,.17,0,3.07,1.62,3.19,1.69l17.48,10.07,3.68,2.12,21.24,12.24c.09,.05,1.91,1.13,1.95,1.22,.52,.34,.88,.75,1.08,1.19,.56,1.21-.09,2.63-1.86,3.65l-3.98,1.98c-2.14,1.24-6.34,1.91-8.19,.84l-2.46-1.06c-.15,.09-3.69-1.8-3.89-1.8-.17,0-3.07-1.62-3.19-1.69l-17.48-10.07-3.68-2.12-21.24-12.24c-.09-.05-1.91-1.13-1.95-1.22-.52-.34-.88-.75-1.08-1.19-.56-1.21,.09-2.63,1.86-3.65Z"/><path d="M257.52,250.5l-25.84-14.92-25.84-14.92c-2.04-1.18-1.79-3.24,.57-4.6l3.84-1.88c2.36-1.36,5.92-1.51,7.96-.33l25.84,14.92,25.84,14.92c2.04,1.18,1.79,3.24-.57,4.6l-3.84,1.88c-2.36,1.36-5.92,1.51-7.96,.33Z"/></g><g class="cls-199"><g><path class="cls-91" d="M260.19,297.1l-46.36-26.77c-5.23-3.02-9.47-11.12-9.47-18.09v-24.61c0-3.55-2.91-4.33-1.15-5.6,.07-.05,4.14-1.9,4.22-1.93,1.9-.73,3.93-1.05,6.4,.37l46.36,26.77c5.23,3.02,9.47,11.12,9.47,18.09v24.61c0,3.71-1.2,6.35-3.1,7.56-.11,.07-5.02,2.4-5.14,2.45-1.69,.56,1.07-1.52-1.22-2.84Z"/><path class="cls-2" d="M256.58,298.75l-46.36-26.77c-5.23-3.02-9.47-11.12-9.47-18.09v-24.61c0-6.97,4.24-10.18,9.47-7.16l46.36,26.77c5.23,3.02,9.47,11.12,9.47,18.09v24.61c0,6.97-4.24,10.18-9.47,7.16Z"/><path class="cls-148" d="M255.76,299.2l-46.36-26.77c-5.23-3.02-9.47-11.12-9.47-18.09v-24.61c0-6.97,4.24-10.18,9.47-7.16l46.36,26.77c5.23,3.02,9.47,11.12,9.47,18.09v24.61c0,6.97-4.24,10.18-9.47,7.16Z"/><path class="cls-196" d="M201.22,255.16v-24.76c0-6.11,3.72-8.92,8.3-6.28l46.12,26.63c4.58,2.65,8.3,9.75,8.3,15.86v24.76c0,6.11-3.72,8.92-8.3,6.28l-46.12-26.63c-4.58-2.65-8.3-9.75-8.3-15.86Z"/><path class="cls-212" d="M203.06,255.91v-24.13c0-5.12,3.11-7.47,6.95-5.25l45.13,26.06c3.84,2.22,6.95,8.16,6.95,13.28v24.13c0,5.12-3.11,7.47-6.95,5.25l-45.13-26.06c-3.84-2.22-6.95-8.16-6.95-13.28Z"/><path class="cls-189" d="M210.53,227.88c-3.62-2.09-6.55-.42-6.55,3.73v25.52c0,4.15,2.93,9.21,6.55,11.3l44.09,25.45c3.62,2.09,6.55,.42,6.55-3.73v-25.52c0-4.15-2.93-9.21-6.55-11.3l-44.09-25.45Z"/><g><polygon class="cls-130" points="224.82 262 227.9 263.83 227.9 242.43 224.82 240.6 224.82 262"/><polygon class="cls-195" points="219.12 267.05 222.2 268.88 222.2 239.19 219.12 237.36 219.12 267.05"/><polygon class="cls-51" points="213.25 269.4 216.33 271.24 216.33 235.84 213.25 234 213.25 269.4"/><polygon class="cls-188" points="239.64 265.39 239.64 249.34 236.55 247.5 236.55 263.55 239.64 265.39"/><polygon class="cls-98" points="230.69 258.2 233.77 260.03 233.77 245.98 230.69 244.15 230.69 258.2"/><polygon class="cls-223" points="207.5 261.31 210.58 263.15 210.58 232.49 207.5 230.65 207.5 261.31"/><polygon class="cls-114" points="242.42 270.07 245.51 271.91 245.51 252.87 242.42 251.04 242.42 270.07"/><polygon class="cls-194" points="257.24 268 257.24 259.78 254.16 257.94 254.16 266.17 257.24 268"/><polygon class="cls-201" points="248.29 274.97 251.37 276.81 251.37 256.42 248.29 254.59 248.29 274.97"/><polygon class="cls-159" points="224.82 255.7 227.9 257.53 227.9 242.43 224.82 240.6 224.82 255.7"/><polygon class="cls-225" points="219.12 261.63 222.2 263.46 222.2 239.19 219.12 237.36 219.12 261.63"/><polygon class="cls-205" points="213.25 261.81 216.33 263.65 216.33 235.84 213.25 234 213.25 261.81"/><polygon class="cls-82" points="239.64 260.2 239.64 249.34 236.55 247.5 236.55 258.37 239.64 260.2"/><polygon class="cls-209" points="230.69 252.99 233.77 254.83 233.77 245.98 230.69 244.15 230.69 252.99"/><polygon class="cls-210" points="242.42 268.58 245.51 270.42 245.51 252.87 242.42 251.04 242.42 268.58"/><polygon class="cls-135" points="257.24 264.59 257.24 259.78 254.16 257.94 254.16 262.75 257.24 264.59"/><polygon class="cls-116" points="248.29 265.03 251.37 266.86 251.37 256.42 248.29 254.59 248.29 265.03"/><polygon class="cls-206" points="207.5 250.96 210.58 252.79 210.58 232.49 207.5 230.65 207.5 250.96"/></g></g></g><g><path class="cls-174" d="M260.19,246.8l-46.36-26.77c-5.23-3.02-9.47-11.12-9.47-18.09V78.46c0-3.55-2.91-4.33-1.15-5.6,.07-.05,4.14-1.9,4.22-1.93,1.9-.73,3.93-1.05,6.4,.37l46.36,26.77c5.23,3.02,9.47,11.12,9.47,18.09v123.47c0,3.71-1.2,6.35-3.1,7.56-.11,.07-5.02,2.4-5.14,2.45-1.69,.56,1.07-1.52-1.22-2.84Z"/><path class="cls-18" d="M259.76,98.21l-46.36-26.77c-2.47-1.43,43.8,27.62,43.8,27.62,5.23,3.02,9.47,11.12,9.47,18.09,0,0,2.56,126.32,2.56,122.62V116.31c0-6.97-4.24-15.07-9.47-18.09Z"/><path class="cls-8" d="M256.58,248.44l-46.36-26.77c-5.23-3.02-9.47-11.12-9.47-18.09V80.11c0-6.97,4.24-10.18,9.47-7.16l46.36,26.77c5.23,3.02,9.47,11.12,9.47,18.09v123.47c0,6.97-4.24,10.18-9.47,7.16Z"/><path class="cls-112" d="M255.76,248.89l-46.36-26.77c-5.23-3.02-9.47-11.12-9.47-18.09V80.56c0-6.97,4.24-10.18,9.47-7.16l46.36,26.77c5.23,3.02,9.47,11.12,9.47,18.09v123.47c0,6.97-4.24,10.18-9.47,7.16Z"/><path class="cls-88" d="M201.22,204.85V81.23c0-6.11,3.72-8.92,8.3-6.28l46.12,26.63c4.58,2.65,8.3,9.75,8.3,15.86v123.63c0,6.11-3.72,8.92-8.3,6.28l-46.12-26.63c-4.58-2.65-8.3-9.75-8.3-15.86Z"/><path class="cls-132" d="M203.06,205.6V82.6c0-5.12,3.11-7.47,6.95-5.25l45.13,26.06c3.84,2.22,6.95,8.16,6.95,13.28v123c0,5.12-3.11,7.47-6.95,5.25l-45.13-26.06c-3.84-2.22-6.95-8.16-6.95-13.28Z"/><path class="cls-207" d="M210.53,78.71c-3.62-2.09-6.55-.42-6.55,3.73v124.38c0,4.15,2.93,9.21,6.55,11.3l44.09,25.45c3.62,2.09,6.55,.42,6.55-3.73V115.46c0-4.15-2.93-9.21-6.55-11.3l-44.09-25.45Z"/></g><g><polygon class="cls-43" points="203.98 171.31 261.17 204.32 261.17 142.19 203.98 109.17 203.98 171.31"/><path class="cls-46" d="M251.11,110.08l5.73,3.31c.22,.13,.39,.03,.39-.23s-.18-.56-.39-.68l-5.73-3.31c-.22-.13-.39-.03-.39,.23s.18,.56,.39,.68Zm5.73,4.44l-5.73-3.31c-.22-.13-.39-.03-.39,.23s.18,.56,.39,.68l5.73,3.31c.22,.13,.39,.03,.39-.23s-.18-.56-.39-.68Zm0,2.04l-5.73-3.31c-.22-.13-.39-.03-.39,.23s.18,.56,.39,.68l5.73,3.31c.22,.13,.39,.03,.39-.23s-.18-.56-.39-.68Z"/><g><path class="cls-46" d="M216.03,90.31c0,.6-.43,.85-.95,.54-.53-.3-.95-1.04-.95-1.64s.43-.85,.95-.54c.53,.3,.95,1.04,.95,1.64Z"/><path class="cls-46" d="M213.16,88.64c0,.6-.43,.85-.95,.54-.53-.3-.95-1.04-.95-1.64s.43-.85,.95-.54c.53,.3,.95,1.04,.95,1.64Z"/><path class="cls-46" d="M210.28,86.97c0,.6-.43,.85-.95,.54s-.95-1.04-.95-1.64,.43-.85,.95-.54,.95,1.04,.95,1.64Z"/></g><polygon class="cls-168" points="258.91 185.96 248.11 179.71 248.11 178.2 258.91 184.45 258.91 185.96"/><polygon class="cls-168" points="255.93 186.92 248.11 182.36 248.11 181.4 255.93 185.95 255.93 186.92"/><polygon class="cls-168" points="255.93 188.67 248.11 184.11 248.11 183.15 255.93 187.71 255.93 188.67"/><polygon class="cls-168" points="242.08 138.02 231.28 131.77 231.28 130.26 242.08 136.51 242.08 138.02"/><g class="cls-3"><path class="cls-129" d="M260.79,203.86l-.56-.32-56.49-32.62v-61.39l57.06,32.94v61.39Zm-56.31-33.38l55.56,32.08v-59.66l-55.56-32.08v59.66Z"/><g><rect class="cls-129" x="209.07" y="113.43" width=".75" height="60.28"/><rect class="cls-129" x="215.5" y="117.12" width=".75" height="60.28"/><rect class="cls-129" x="221.93" y="120.81" width=".75" height="60.28"/><rect class="cls-129" x="228.36" y="124.5" width=".75" height="60.28"/><rect class="cls-129" x="234.79" y="128.19" width=".75" height="60.28"/><rect class="cls-129" x="241.22" y="131.88" width=".75" height="60.28"/><rect class="cls-129" x="247.65" y="135.57" width=".75" height="60.28"/><rect class="cls-129" x="254.08" y="139.27" width=".75" height="60.28"/></g><g><rect class="cls-129" x="231.89" y="101" width=".75" height="65.02" transform="translate(.51 267.9) rotate(-60)"/><rect class="cls-129" x="231.89" y="107.68" width=".75" height="65.02" transform="translate(-5.27 271.24) rotate(-60)"/><rect class="cls-129" x="231.89" y="114.36" width=".75" height="65.02" transform="translate(-11.06 274.58) rotate(-60)"/><rect class="cls-129" x="231.89" y="121.03" width=".75" height="65.02" transform="translate(-16.84 277.92) rotate(-60)"/><rect class="cls-129" x="231.89" y="127.71" width=".75" height="65.02" transform="translate(-22.62 281.26) rotate(-60)"/><rect class="cls-129" x="231.89" y="134.39" width=".75" height="65.02" transform="translate(-28.4 284.59) rotate(-60)"/><rect class="cls-129" x="231.89" y="141.06" width=".75" height="65.02" transform="translate(-34.19 287.93) rotate(-60)"/><rect class="cls-129" x="231.89" y="147.74" width=".75" height="65.02" transform="translate(-39.97 291.27) rotate(-60)"/></g></g><polygon class="cls-168" points="239.1 138.98 231.28 134.42 231.28 133.46 239.1 138.01 239.1 138.98"/><polygon class="cls-168" points="239.1 140.73 231.28 136.18 231.28 135.21 239.1 139.77 239.1 140.73"/><polygon class="cls-123" points="261.17 147.57 246.19 160 229.12 144.43 203.98 162.4 203.98 166.7 228.95 148.85 246.12 164.5 261.17 152.02 261.17 147.57"/><path class="cls-37" d="M254.62,104.17l-44.09-25.45c-3.62-2.09-6.55-.42-6.55,3.73v124.38c0,4.15,2.93,9.21,6.55,11.3l44.09,25.45c3.62,2.09,6.55,.42,6.55-3.73V115.46c0-4.15-2.93-9.21-6.55-11.3Zm5.98,135.68c0,1.29-.3,2.35-.88,3.06-.53,.66-1.27,1-2.16,1h0c-.8,0-1.72-.28-2.65-.82l-44.09-25.45c-3.45-1.99-6.26-6.84-6.26-10.8V82.44c0-2.51,1.16-4.06,3.04-4.06,.8,0,1.72,.28,2.65,.82l44.09,25.45c3.45,1.99,6.26,6.84,6.26,10.8v124.38Z"/><g class="cls-4"><path class="cls-77" d="M229.17,143.75c-.28,0-.5-.22-.5-.5v-2.48c0-.28,.22-.5,.5-.5s.5,.22,.5,.5v2.48c0,.28-.22,.5-.5,.5Zm0-4.95c-.28,0-.5-.22-.5-.5v-2.48c0-.28,.22-.5,.5-.5s.5,.22,.5,.5v2.48c0,.28-.22,.5-.5,.5Zm0-4.95c-.28,0-.5-.22-.5-.5v-2.48c0-.28,.22-.5,.5-.5s.5,.22,.5,.5v2.48c0,.28-.22,.5-.5,.5Z"/></g><g class="cls-4"><path class="cls-77" d="M246.18,177.84c-.28,0-.5-.22-.5-.5v-2.47c0-.28,.22-.5,.5-.5s.5,.22,.5,.5v2.47c0,.28-.22,.5-.5,.5Zm0-4.95c-.28,0-.5-.22-.5-.5v-2.48c0-.28,.22-.5,.5-.5s.5,.22,.5,.5v2.48c0,.28-.22,.5-.5,.5Zm0-4.95c-.28,0-.5-.22-.5-.5v-2.48c0-.28,.22-.5,.5-.5s.5,.22,.5,.5v2.48c0,.28-.22,.5-.5,.5Z"/></g><path class="cls-11" d="M230.76,131.17c.03-1.1-.74-2.47-1.71-3.07s-1.78-.18-1.81,.92c-.03,1.1,.74,2.47,1.71,3.07,.97,.59,1.78,.18,1.81-.92Z"/><path class="cls-25" d="M247.82,179.38c.03-1.1-.74-2.47-1.71-3.07-.97-.59-1.78-.18-1.81,.92-.03,1.1,.74,2.47,1.71,3.07,.97,.59,1.78,.18,1.81-.92Z"/><g><polygon class="cls-146" points="231.9 113.38 226.48 114.58 228.39 108.43 223.13 100.82 229.73 104.47 231.9 98.57 234.07 106.98 240.67 110.94 235.41 112.48 237.32 120.84 231.9 113.38"/><polygon class="cls-110" points="245 120.41 242.74 120.91 243.53 118.34 241.34 115.16 244.09 116.69 245 114.22 245.9 117.73 248.66 119.39 246.46 120.03 247.26 123.52 245 120.41"/><polygon class="cls-186" points="253.84 125.26 251.58 125.76 252.38 123.19 250.18 120.01 252.94 121.54 253.84 119.07 254.75 122.58 257.5 124.24 255.31 124.88 256.1 128.37 253.84 125.26"/><polygon class="cls-162" points="210.48 100.76 208.22 101.26 209.01 98.69 206.82 95.51 209.57 97.04 210.48 94.57 211.38 98.08 214.14 99.74 211.94 100.38 212.74 103.87 210.48 100.76"/><polygon class="cls-83" points="219.32 105.61 217.06 106.11 217.86 103.54 215.66 100.36 218.42 101.89 219.32 99.42 220.23 102.93 222.98 104.59 220.79 105.23 221.58 108.72 219.32 105.61"/><g><polygon class="cls-160" points="235.41 112.48 237.32 120.84 237.32 120.84 237.32 120.84 238.53 120.05 236.71 112.1 235.41 112.48"/><polygon class="cls-211" points="229.73 104.48 230.18 103.26 224.34 100.03 223.3 100.87 224.88 101.79 229.73 104.48"/><polygon class="cls-63" points="235.28 106.19 233.11 97.78 231.9 98.57 231.9 98.57 234.07 106.98 240.66 110.94 240.67 110.94 241.88 110.15 235.28 106.19"/></g><g><polygon class="cls-46" points="235.41 112.48 237.32 120.84 237.32 120.84 237.32 120.84 235.8 112.37 235.41 112.48"/><polygon class="cls-46" points="229.73 104.48 229.87 104.1 223.3 100.87 224.88 101.79 229.73 104.48"/><polygon class="cls-46" points="234.43 106.78 231.9 98.57 231.9 98.57 234.07 106.98 240.66 110.94 240.67 110.94 234.43 106.78"/></g></g><g><polygon class="cls-224" points="239.74 208.11 236.66 206.28 236.66 227.68 239.74 229.51 239.74 208.11"/><polygon class="cls-150" points="245.44 203.06 242.36 201.23 242.36 230.92 245.44 232.75 245.44 203.06"/><polygon class="cls-184" points="251.31 200.71 248.23 198.87 248.23 234.27 251.31 236.11 251.31 200.71"/><polygon class="cls-97" points="224.93 204.72 224.93 220.78 228.01 222.61 228.01 206.56 224.93 204.72"/><polygon class="cls-156" points="233.88 211.91 230.79 210.08 230.79 224.13 233.88 225.96 233.88 211.91"/><polygon class="cls-79" points="257.07 208.8 253.98 206.97 253.98 237.62 257.07 239.46 257.07 208.8"/><polygon class="cls-86" points="222.14 200.04 219.06 198.2 219.06 217.24 222.14 219.07 222.14 200.04"/><polygon class="cls-145" points="207.32 202.11 207.32 210.34 210.4 212.17 210.4 203.94 207.32 202.11"/><polygon class="cls-187" points="216.27 195.14 213.19 193.31 213.19 213.69 216.27 215.52 216.27 195.14"/><polygon class="cls-80" points="239.74 214.42 236.66 212.58 236.66 227.68 239.74 229.51 239.74 214.42"/><polygon class="cls-143" points="245.44 208.48 242.36 206.65 242.36 230.92 245.44 232.75 245.44 208.48"/><polygon class="cls-197" points="251.31 208.3 248.23 206.46 248.23 234.27 251.31 236.11 251.31 208.3"/><polygon class="cls-62" points="224.93 209.91 224.93 220.78 228.01 222.61 228.01 211.74 224.93 209.91"/><polygon class="cls-218" points="233.88 217.12 230.79 215.28 230.79 224.13 233.88 225.96 233.88 217.12"/><polygon class="cls-170" points="222.14 201.53 219.06 199.69 219.06 217.24 222.14 219.07 222.14 201.53"/><polygon class="cls-222" points="207.32 205.52 207.32 210.34 210.4 212.17 210.4 207.36 207.32 205.52"/><polygon class="cls-221" points="216.27 205.08 213.19 203.25 213.19 213.69 216.27 215.52 216.27 205.08"/><polygon class="cls-115" points="257.07 219.15 253.98 217.32 253.98 237.62 257.07 239.46 257.07 219.15"/></g></g><g><polygon class="cls-131" points="278.68 122.86 272.71 126.38 300.53 117.65 306.51 114.12 278.68 122.86"/><polygon class="cls-117" points="289.13 143.08 295.11 139.55 306.51 114.12 300.53 117.65 289.13 143.08"/><polygon class="cls-28" points="266.24 153.08 269.32 151.8 290.22 134.54 284.25 138.07 266.24 153.08"/><polygon class="cls-81" points="266.24 153.08 284.25 138.07 289.13 143.08 300.53 117.65 272.71 126.38 277.77 131.45 266.27 141.06 266.24 153.08"/><g class="cls-24"><polygon class="cls-126" points="266.37 141.63 277.88 132.02 277.48 131.62 266.37 140.9 266.35 152.91 266.35 152.91 266.37 141.63"/><polygon class="cls-202" points="300.27 118.33 300.64 117.49 272.82 126.22 273.37 126.77 300.27 118.33"/></g></g><path class="cls-111" d="M155.58,47.64l-10.36,5.98c-1.05,.6-1.9,2.07-1.9,3.27s.85,1.69,1.9,1.08l10.36-5.98c1.05-.6,1.9-2.07,1.9-3.27s-.85-1.69-1.9-1.08Zm-17.06,9.85l-10.36,5.98c-1.05,.6-1.9,2.07-1.9,3.27s.85,1.69,1.9,1.08l10.36-5.98c1.05-.6,1.9-2.07,1.9-3.27s-.85-1.69-1.9-1.08Zm-17.06,9.85l-10.36,5.98c-1.05,.6-1.9,2.07-1.9,3.27s.85,1.69,1.9,1.08l10.36-5.98c1.05-.6,1.9-2.07,1.9-3.27s-.85-1.69-1.9-1.08Zm-17.06,9.85l-10.36,5.98c-1.05,.6-1.9,2.07-1.9,3.27s.85,1.69,1.9,1.08l10.36-5.98c1.05-.6,1.9-2.07,1.9-3.27s-.85-1.69-1.9-1.08Zm-51.24,29.7l-10.36,5.98c-1.05,.6-1.9,2.07-1.9,3.27s.85,1.69,1.9,1.08l10.36-5.98c1.05-.6,1.9-2.07,1.9-3.27s-.85-1.69-1.9-1.08Zm-17.06,9.85l-10.36,5.98c-1.05,.6-1.9,2.07-1.9,3.27s.85,1.69,1.9,1.08l10.36-5.98c1.05-.6,1.9-2.07,1.9-3.27s-.85-1.69-1.9-1.08Zm34.12-19.7l-10.36,5.98c-1.05,.6-1.9,2.07-1.9,3.27s.85,1.69,1.9,1.08l10.36-5.98c1.05-.6,1.9-2.07,1.9-3.27s-.85-1.69-1.9-1.08Zm17.06-9.85l-10.36,5.98c-1.05,.6-1.9,2.07-1.9,3.27s.85,1.69,1.9,1.08l10.36-5.98c1.05-.6,1.9-2.07,1.9-3.27s-.85-1.69-1.9-1.08Z"/><g><g><polygon class="cls-69" points="25.1 138.36 25.1 136.14 78.77 105.58 78.77 107.8 25.1 138.36"/><polygon class="cls-47" points="61.63 129.29 25.1 150.28 25.1 148.06 61.63 127.07 61.63 129.29"/><polygon class="cls-54" points="82.99 111.47 25.1 144.67 25.1 141.6 82.99 108.39 82.99 111.47"/><polygon class="cls-47" points="52.91 138.94 25.1 154.89 25.1 152.67 52.91 136.72 52.91 138.94"/><polygon class="cls-47" points="55.09 137.67 55.09 135.45 105.05 107.06 105.05 109.28 55.09 137.67"/><polygon class="cls-47" points="63.81 128.03 63.81 125.81 89.08 111.33 89.08 113.55 63.81 128.03"/><polygon class="cls-57" points="85.18 107.13 123.37 85.49 123.37 88.56 85.18 110.2 85.18 107.13"/><polygon class="cls-47" points="107.23 105.8 123.37 96.56 123.37 98.78 107.23 108.02 107.23 105.8"/><polygon class="cls-47" points="91.27 110.07 123.37 91.95 123.37 94.17 91.27 112.29 91.27 110.07"/></g><g><polygon class="cls-217" points="25.1 165.35 25.1 163.13 78.77 132.56 78.77 134.78 25.1 165.35"/><polygon class="cls-47" points="61.63 156.27 25.1 177.26 25.1 175.04 61.63 154.05 61.63 156.27"/><polygon class="cls-60" points="82.99 138.45 25.1 171.66 25.1 168.59 82.99 135.38 82.99 138.45"/><polygon class="cls-47" points="52.91 165.92 25.1 181.88 25.1 179.66 52.91 163.7 52.91 165.92"/><polygon class="cls-47" points="55.09 164.66 55.09 162.44 105.05 134.05 105.05 136.27 55.09 164.66"/><polygon class="cls-47" points="63.81 155.01 63.81 152.79 89.08 138.32 89.08 140.54 63.81 155.01"/><polygon class="cls-58" points="85.18 134.12 123.37 112.48 123.37 115.55 85.18 137.19 85.18 134.12"/><polygon class="cls-47" points="107.23 132.79 123.37 123.55 123.37 125.77 107.23 135.01 107.23 132.79"/><polygon class="cls-47" points="91.27 137.06 123.37 118.93 123.37 121.15 91.27 139.28 91.27 137.06"/></g><g><polygon class="cls-203" points="25.1 192.86 25.1 190.64 78.77 160.07 78.77 162.29 25.1 192.86"/><polygon class="cls-47" points="61.63 183.79 25.1 204.78 25.1 202.56 61.63 181.57 61.63 183.79"/><polygon class="cls-53" points="82.99 165.96 25.1 199.17 25.1 196.1 82.99 162.89 82.99 165.96"/><polygon class="cls-47" points="52.91 193.43 25.1 209.39 25.1 207.17 52.91 191.21 52.91 193.43"/><polygon class="cls-47" points="55.09 192.17 55.09 189.95 105.05 161.56 105.05 163.78 55.09 192.17"/><polygon class="cls-47" points="63.81 182.52 63.81 180.3 89.08 165.83 89.08 168.05 63.81 182.52"/><polygon class="cls-59" points="85.18 161.63 123.37 139.99 123.37 143.06 85.18 164.7 85.18 161.63"/><polygon class="cls-47" points="107.23 160.3 123.37 151.06 123.37 153.28 107.23 162.52 107.23 160.3"/><polygon class="cls-47" points="91.27 164.57 123.37 146.44 123.37 148.66 91.27 166.79 91.27 164.57"/></g></g><g><path class="cls-220" d="M58.53,91.96c-.53-.66-.82-1.59-.82-2.67,0-2.9,1.98-6.33,4.51-7.79,.78-.45,1.54-.68,2.27-.68,1.87,0,3.12,1.51,3.12,3.76,0,2.9-1.98,6.32-4.51,7.79-.78,.45-1.54,.68-2.27,.68h0c-.93,0-1.74-.38-2.3-1.08Zm4.57-8.95c-1.97,1.14-3.64,4.01-3.64,6.27,0,.68,.15,1.23,.43,1.58,.47,.58,1.34,.56,2.34-.01,1.97-1.14,3.64-4.01,3.64-6.27,0-.6-.13-2.01-1.37-2.01-.41,0-.89,.15-1.39,.44Z"/><path class="cls-191" d="M47.33,98.65c-.53-.66-.82-1.59-.82-2.67,0-2.9,1.98-6.33,4.51-7.79,.78-.45,1.54-.68,2.27-.68,1.87,0,3.12,1.51,3.12,3.76,0,2.9-1.98,6.32-4.51,7.79-.78,.45-1.54,.68-2.27,.68h0c-.93,0-1.74-.38-2.3-1.08Zm4.57-8.95c-1.97,1.14-3.64,4.01-3.64,6.27,0,.68,.15,1.23,.43,1.58,.47,.58,1.34,.56,2.34-.01,1.97-1.14,3.64-4.01,3.64-6.27,0-.6-.13-2.01-1.37-2.01-.41,0-.89,.15-1.39,.44Z"/><path class="cls-64" d="M35.98,105.34c-.53-.66-.82-1.59-.82-2.67,0-2.9,1.98-6.33,4.51-7.79,.78-.45,1.54-.68,2.27-.68,1.87,0,3.12,1.51,3.12,3.76,0,2.9-1.98,6.32-4.51,7.79-.78,.45-1.54,.68-2.27,.68h0c-.93,0-1.74-.38-2.3-1.08Zm4.57-8.95c-1.97,1.14-3.64,4.01-3.64,6.27,0,.68,.15,1.23,.43,1.58,.47,.58,1.34,.56,2.34-.01,1.97-1.14,3.64-4.01,3.64-6.27,0-.6-.13-2.01-1.37-2.01-.41,0-.89,.15-1.39,.44Z"/><path class="cls-52" d="M24.78,112.03c-.53-.66-.82-1.59-.82-2.67,0-2.9,1.98-6.33,4.51-7.79,.78-.45,1.54-.68,2.27-.68,1.87,0,3.12,1.51,3.12,3.76,0,2.9-1.98,6.32-4.51,7.79-.78,.45-1.54,.68-2.27,.68h0c-.93,0-1.74-.38-2.3-1.08Zm4.57-8.95c-1.97,1.14-3.64,4.01-3.64,6.27,0,.68,.15,1.23,.43,1.58,.47,.58,1.34,.56,2.34-.01,1.97-1.14,3.64-4.01,3.64-6.27,0-.6-.13-2.01-1.37-2.01-.41,0-.89,.15-1.39,.44Z"/></g><g><g class="cls-198"><g class="cls-70"><polygon class="cls-151" points="115.03 282.78 95.78 293.9 95.78 266.99 115.03 255.87 115.03 282.78"/><polygon class="cls-87" points="95.78 293.9 76.52 282.78 76.52 255.87 95.78 266.99 95.78 293.9"/></g></g><g class="cls-89"><g class="cls-70"><polygon class="cls-125" points="84.38 300.92 65.12 312.03 65.12 285.12 84.38 274 84.38 300.92"/><polygon class="cls-204" points="65.12 312.03 45.87 300.92 45.87 274 65.12 285.12 65.12 312.03"/></g></g><g class="cls-113"><g class="cls-70"><polygon class="cls-153" points="53.98 318.26 34.73 329.38 34.73 302.46 53.98 291.35 53.98 318.26"/><polygon class="cls-177" points="34.73 329.38 15.48 318.26 15.48 291.35 34.73 302.46 34.73 329.38"/></g></g><g class="cls-161"><g><g class="cls-118"><polygon class="cls-178" points="95.77 243.18 115.02 254.31 95.77 265.42 76.52 254.3 95.77 243.18"/><polygon class="cls-9" points="95.77 176.63 115.02 187.75 95.77 198.87 76.52 187.75 95.77 176.63"/><g class="cls-55"><polygon class="cls-99" points="115.03 255.01 95.78 266.13 95.78 198.86 115.03 187.75 115.03 255.01"/><polygon class="cls-105" points="95.78 266.13 76.52 255.01 76.52 187.75 95.78 198.86 95.78 266.13"/></g><g><polygon class="cls-133" points="115.03 193.44 95.78 204.56 95.78 198.86 115.03 187.75 115.03 193.44"/><polygon class="cls-208" points="95.78 204.56 76.52 193.44 76.52 187.75 95.78 198.86 95.78 204.56"/></g></g><polygon class="cls-14" points="76.52 187.75 95.68 198.06 115.03 187.75 96.36 199.29 95.78 266.13 94.86 199.15 76.52 187.75"/></g></g><g class="cls-128"><g><g class="cls-118"><polygon class="cls-121" points="65.12 261.26 84.36 272.38 65.11 283.5 45.87 272.38 65.12 261.26"/><polygon class="cls-163" points="65.12 213.57 84.36 224.7 65.11 235.81 45.87 224.69 65.12 213.57"/><g class="cls-55"><polygon class="cls-193" points="84.38 273.09 65.12 284.21 65.12 235.81 84.38 224.69 84.38 273.09"/><polygon class="cls-158" points="65.12 284.21 45.87 273.09 45.87 224.69 65.12 235.81 65.12 284.21"/></g><g><polygon class="cls-138" points="84.38 230.38 65.12 241.5 65.12 235.81 84.38 224.69 84.38 230.38"/><polygon class="cls-139" points="65.12 241.5 45.87 230.38 45.87 224.69 65.12 235.81 65.12 241.5"/></g></g><polygon class="cls-19" points="45.87 224.69 65.02 235.01 84.38 224.69 65.7 236.23 65.12 284.21 64.21 236.09 45.87 224.69"/></g></g><g class="cls-182"><g><g class="cls-118"><polygon class="cls-94" points="34.72 278.81 53.97 289.94 34.72 301.06 15.48 289.93 34.72 278.81"/><polygon class="cls-192" points="34.72 252.61 53.97 263.74 34.72 274.85 15.48 263.73 34.72 252.61"/><g class="cls-55"><polygon class="cls-29" points="53.98 290.64 34.73 301.76 34.73 274.85 53.98 263.73 53.98 290.64"/><polygon class="cls-106" points="34.73 301.76 15.48 290.64 15.48 263.73 34.73 274.85 34.73 301.76"/></g><g><polygon class="cls-72" points="53.98 269.42 34.73 280.54 34.73 274.85 53.98 263.73 53.98 269.42"/><polygon class="cls-152" points="34.73 280.54 15.48 269.42 15.48 263.73 34.73 274.85 34.73 280.54"/></g></g><polygon class="cls-26" points="15.48 263.73 34.63 274.05 53.98 263.73 35.31 275.27 34.73 301.76 33.82 275.13 15.48 263.73"/></g></g></g><g><path class="cls-46" d="M150.76,30.54l-66.67,38.43c-2.93,1.69-5.3,5.79-5.3,9.15s2.37,4.72,5.3,3.02l66.67-38.43c2.93-1.69,5.3-5.79,5.3-9.15s-2.37-4.72-5.3-3.02h0Z"/><g class="cls-70"><path class="cls-39" d="M151.67,39.74l-66.67,38.43c-2.93,1.69-5.3,.34-5.3-3.02,0-.38,.03-.77,.09-1.16-.63,1.36-1.01,2.81-1.01,4.14,0,3.36,2.37,4.72,5.3,3.02l66.67-38.43c2.6-1.5,4.76-4.89,5.21-7.99-.96,2.09-2.53,3.99-4.3,5.01Z"/><path class="cls-33" d="M151.59,40.04l-66.67,38.43c-2.93,1.69-5.3,.34-5.3-3.02,0-.45,.05-.91,.14-1.38-.61,1.34-.97,2.75-.97,4.05,0,3.36,2.37,4.72,5.3,3.02l66.67-38.43c2.54-1.47,4.65-4.74,5.16-7.77-.96,2.12-2.54,4.06-4.33,5.1Z"/><path class="cls-30" d="M151.5,40.34l-66.67,38.43c-2.93,1.69-5.3,.34-5.3-3.02,0-.52,.07-1.05,.19-1.59-.58,1.31-.93,2.69-.93,3.96,0,3.36,2.37,4.72,5.3,3.02l66.67-38.43c2.48-1.43,4.55-4.59,5.11-7.55-.95,2.15-2.55,4.13-4.37,5.18Z"/><path class="cls-41" d="M151.42,40.65l-66.67,38.43c-2.93,1.69-5.3,.34-5.3-3.02,0-.58,.09-1.19,.24-1.8-.56,1.28-.9,2.63-.9,3.87,0,3.36,2.37,4.72,5.3,3.02l66.67-38.43c2.42-1.4,4.45-4.44,5.07-7.33-.95,2.18-2.56,4.2-4.41,5.26Z"/><path class="cls-38" d="M151.33,40.95l-66.67,38.43c-2.93,1.69-5.3,.34-5.3-3.02,0-.65,.11-1.33,.29-2.01-.54,1.26-.86,2.57-.86,3.78,0,3.36,2.37,4.72,5.3,3.02l66.67-38.43c2.36-1.36,4.35-4.29,5.02-7.12-.94,2.22-2.58,4.27-4.44,5.35Z"/><path class="cls-31" d="M151.25,41.25l-66.67,38.43c-2.93,1.69-5.3,.34-5.3-3.02,0-.72,.13-1.47,.33-2.23-.51,1.23-.83,2.51-.83,3.69,0,3.36,2.37,4.72,5.3,3.02l66.67-38.43c2.3-1.33,4.24-4.14,4.97-6.9-.94,2.25-2.59,4.34-4.48,5.43Z"/><path class="cls-34" d="M151.16,41.55l-66.67,38.43c-2.93,1.69-5.3,.34-5.3-3.02,0-.79,.14-1.61,.38-2.44-.49,1.2-.79,2.45-.79,3.61,0,3.36,2.37,4.72,5.3,3.02l66.67-38.43c2.24-1.29,4.14-3.99,4.92-6.68-.93,2.28-2.6,4.41-4.51,5.52Z"/></g><path class="cls-157" d="M153.14,29.6c-.78,0-1.62,.25-2.48,.76l-66.67,38.43c-2.98,1.72-5.41,5.91-5.41,9.33,0,2.41,1.23,3.96,3.13,3.96,.78,0,1.62-.25,2.48-.76l66.67-38.43c2.98-1.72,5.41-5.91,5.41-9.33,0-2.41-1.23-3.96-3.13-3.96Zm2.31,4.2c0,3.03-2.15,6.74-4.79,8.27l-66.67,38.43c-.73,.42-1.45,.64-2.09,.64-1.54,0-2.49-1.25-2.49-3.25,0-3.03,2.15-6.74,4.79-8.27L150.86,31.19c.73-.42,1.45-.64,2.09-.64,1.54,0,2.49,1.25,2.49,3.25Z"/><path class="cls-92" d="M156.06,33.57c0,3.36-2.37,7.46-5.3,9.15-2.93,1.69-5.3,.34-5.3-3.02s2.37-7.46,5.3-9.15c2.93-1.69,5.3-.34,5.3,3.02Z"/><path class="cls-46" d="M153.99,37.47l-1.49-.85c-.16-.09-.39,.02-.58,.25l-.44-.25c.66-1.37,.59-2.76-.2-3.21-.86-.49-2.26,.32-3.13,1.8-.86,1.49-.86,3.09,0,3.59,.79,.45,2.03-.19,2.89-1.44l.44,.25c-.11,.27-.08,.53,.07,.62l1.49,.85c.19,.11,.49-.07,.68-.39l.26-.44c.19-.32,.19-.67,0-.78Zm-3.24-.78c-.57,.98-1.49,1.51-2.06,1.19-.57-.32-.57-1.38,0-2.36,.57-.98,1.49-1.51,2.06-1.19,.57,.32,.57,1.38,0,2.36Z"/></g><g><g class="cls-4"><path class="cls-127" d="M158.8,78.73v-6.78c-6.68,3.86-12.57,10.85-16.31,19.37l4.91,.96c2.47-5.63,6.66-10.81,11.41-13.55Z"/><path class="cls-104" d="M158.81,110.32c-7.6,4.39-13.77,.88-13.77-7.85,0-3.27,.87-6.81,2.35-10.19l-4.91-.96c-.93,2.12-1.61,4.04-2.18,6.16-3.72,13.86,1.55,23.78,11.76,22.15,10.21-1.63,21.5-14.19,25.22-28.05l-5.54,.88c-1.92,7.17-6.99,14.43-12.94,17.86Z"/><path class="cls-140" d="M167.73,69.25l-2.68,7.59c4.47,.03,7.53,3.59,7.53,9.73,0,1.9-.29,3.89-.83,5.88l5.54-.88c3.43-12.79-.62-22.25-9.56-22.32Z"/><path class="cls-142" d="M158.81,78.72c2.25-1.3,4.37-1.9,6.24-1.89l2.68-7.59c-2.97-.02-5.6,.77-8.93,2.7v6.78s0,0,.01,0Z"/></g><g class="cls-4"><path class="cls-119" d="M158.81,133.3s.01,0,.02,0v-6.9c-7.7,4.45-14.4,13.12-17.77,23.01l5.39-.1c2.24-6.54,6.94-12.87,12.37-16Z"/><path class="cls-165" d="M158.81,164.9c-7.6,4.39-13.77,.88-13.77-7.85,0-2.49,.5-5.13,1.4-7.74l-5.39,.1c-1.97,5.77-2.49,10.66-1.64,15.22,2.08,11.1,12.46,13.14,23.18,4.56l-1.15-6.11c-.86,.69-1.74,1.3-2.64,1.82Z"/><path class="cls-175" d="M161.45,163.08l1.15,6.11c2.52-2.02,4.53-4.09,6.71-6.9l-3.19-4.01c-1.4,1.82-2.98,3.46-4.66,4.81Z"/><path class="cls-185" d="M166.11,158.27l3.19,4.01c4.35-5.63,7.29-11.89,8.62-18.35l-5.82,1.57c-.91,4.43-3.08,8.99-5.99,12.76Z"/><path class="cls-120" d="M158.82,126.4v6.9c7.6-4.37,13.75-.86,13.75,7.86,0,1.41-.16,2.87-.47,4.35l5.82-1.57c.5-2.42,.67-4.06,.67-6.26,0-12.53-8.85-17.58-19.77-11.27Z"/></g><path class="cls-46" d="M158.81,83.34c-5.37,3.1-9.74,10.64-9.74,16.81s4.37,8.66,9.74,5.56,9.74-10.64,9.74-16.81-4.37-8.66-9.74-5.56Zm-.61,5.92c-.94,.5-1.86,.91-2.73,1.19,.67-2.32,1.64-4.24,2.73-5.24v4.06Zm0,1.4v3.51l-3.64,2.1c.05-1.44,.23-2.89,.52-4.26,.98-.31,2.03-.77,3.12-1.35Zm0,4.91v3.51c-1.09,.67-2.14,1.43-3.12,2.25-.29-1.03-.47-2.27-.52-3.66l3.64-2.1Zm0,4.91v4.06c-1.09,.25-2.06-.55-2.73-2.09,.86-.71,1.78-1.38,2.73-1.96Zm1.22-.7c.94-.5,1.86-.91,2.73-1.19-.67,2.32-1.64,4.24-2.73,5.24v-4.06Zm0-1.4v-3.51l3.64-2.1c-.05,1.44-.23,2.89-.52,4.26-.98,.31-2.03,.77-3.12,1.35Zm0-4.91v-3.51c1.09-.67,2.14-1.43,3.12-2.25,.29,1.03,.47,2.27,.52,3.66l-3.64,2.1Zm0-4.91v-4.06c1.09-.25,2.06,.55,2.73,2.09-.86,.71-1.78,1.38-2.73,1.96Zm2.65-4.96c1-.1,1.91,.07,2.68,.48-.43,.49-.9,.98-1.4,1.45-.35-.84-.78-1.48-1.28-1.94Zm-7.78,7.17c-.5,.1-.97,.16-1.4,.16,.77-1.3,1.67-2.51,2.68-3.57-.5,1.02-.93,2.17-1.28,3.41Zm-.38,1.55c-.32,1.49-.51,3.07-.56,4.66l-3.03,1.75c.12-2.03,.75-4.19,1.73-6.23,.57,.02,1.19-.04,1.86-.17Zm-.56,6.05c.05,1.53,.24,2.89,.56,4.01-.67,.63-1.29,1.29-1.86,1.97-.98-.91-1.61-2.34-1.73-4.23l3.03-1.75Zm.93,5.13c.35,.84,.78,1.48,1.28,1.94-1,.1-1.91-.07-2.68-.48,.43-.49,.9-.98,1.4-1.45Zm9.06-5.23c.5-.1,.97-.16,1.4-.16-.77,1.3-1.67,2.51-2.68,3.57,.5-1.02,.93-2.17,1.28-3.41Zm.38-1.55c.32-1.49,.51-3.07,.56-4.66l3.03-1.75c-.12,2.03-.75,4.19-1.73,6.23-.57-.02-1.19,.04-1.86,.17Zm.56-6.05c-.05-1.53-.24-2.89-.56-4.01,.67-.63,1.29-1.29,1.86-1.97,.98,.91,1.61,2.34,1.73,4.23l-3.03,1.75Z"/><path class="cls-46" d="M158.81,137.92c-5.38,3.11-9.74,10.63-9.74,16.8s4.36,8.66,9.74,5.55,9.74-10.63,9.74-16.8-4.36-8.66-9.74-5.55Zm0,20.12c-4.3,2.48-7.79,.5-7.79-4.44s3.49-10.96,7.79-13.44,7.79-.5,7.79,4.44-3.49,10.96-7.79,13.44Zm0-15.65c-3.23,1.86-5.84,6.38-5.84,10.08s2.62,5.2,5.84,3.33,5.84-6.38,5.84-10.08-2.62-5.2-5.84-3.33Zm0,11.18c-2.15,1.24-3.9,.25-3.9-2.22s1.74-5.48,3.9-6.72c2.15-1.24,3.9-.25,3.9,2.22s-1.74,5.48-3.9,6.72Zm0-6.71c-1.08,.62-1.95,2.13-1.95,3.36s.87,1.73,1.95,1.11c1.08-.62,1.95-2.13,1.95-3.36s-.87-1.73-1.95-1.11Z"/></g><ellipse class="cls-36" cx="90.52" cy="151.46" rx="57.89" ry="33.42" transform="translate(-85.92 153.17) rotate(-59.69)"/><g><ellipse class="cls-42" cx="94.47" cy="187.46" rx="14.99" ry="7.35"/><path class="cls-141" d="M117.72,126.43c-.15-.27-.31-.5-.48-.71,.9,0,1.79,.5,2.57,1.86,2.94,5.18-7.52,22.62-7.52,22.62l-.03-4.83c2.88-5.41,7.55-15.26,5.46-18.94Z"/><path class="cls-73" d="M113.96,145.39c3.35-6.39,6.58-14.33,5.08-16.96-.68-1.2-1.24-1.2-1.43-1.2-1.15,0-2.8,1.67-3.75,3.01l-1.31,1.84v-2.24s4.69-7.24,7.64-2.06c2.94,5.18-7.52,22.62-7.52,22.62l-.02-2.68,1.3-2.32Z"/><path class="cls-176" d="M116.74,125.03l2.16,1.25h-.02c-2.85-1.81-6.34,3.55-6.34,3.55l-2.1-1.24s3.47-5.32,6.31-3.57Z"/><g class="cls-24"><path class="cls-216" d="M118.82,128.4c-.21-.37-.41-.62-.59-.8,.25,.15,.55,.45,.89,1.04,1.5,2.64-1.74,10.58-5.08,16.96l-1.3,2.32v1.93c-.17,.32-.28,.51-.28,.51l-.02-2.68,1.3-2.32c3.35-6.39,6.58-14.33,5.08-16.96Z"/><path class="cls-124" d="M119.08,126.58c-2.87-2.05-6.46,3.47-6.46,3.47v1.57s-.29,.42-.29,.42v-2.24s3.83-5.92,6.75-3.22Z"/></g><path class="cls-214" d="M83.38,185.79h24.64v1.04h0s0,.07,0,.1c0,3.96-5.52,7.17-12.32,7.17s-12.32-3.21-12.32-7.17c0-.03,0-.07,0-.1h0v-1.04Z"/><ellipse class="cls-149" cx="95.7" cy="185.84" rx="12.32" ry="6.17"/><g><path class="cls-190" d="M83.38,188.3v-.05h0s0,.03,0,.05Z"/><path class="cls-147" d="M83.38,188.31c0,3.41,5.52,6.17,12.32,6.17s12.32-2.76,12.32-6.17c0-.02,0-.03,0-.05h0v1.04h0s0,.07,0,.1c0,3.96-5.52,6.71-12.32,6.71s-12.32-2.75-12.32-6.71c0-.03,0-.07,0-.1h0v-.99Z"/></g><path class="cls-22" d="M95.7,191.87c6.63,0,12.03-2.78,12.31-6.07,0,.09,.01,.17,.01,.26,0,3.41-5.52,6.17-12.32,6.17s-12.32-2.76-12.32-6.17c0-.09,0-.18,.01-.26,.28,3.29,5.68,6.07,12.31,6.07Z"/><path class="cls-1" d="M88.63,183.89h14.15v1.46h0s0,.04,0,.06c0,2.28-3.17,4.12-7.08,4.12s-7.08-1.84-7.08-4.12c0-.02,0-.04,0-.06h0v-1.46Z"/><ellipse class="cls-144" cx="95.7" cy="183.91" rx="7.08" ry="3.55"/><path class="cls-13" d="M95.7,187.28c3.78,0,6.86-1.49,7.06-3.36,0,.06,.02,.12,.02,.18,0,1.96-3.17,3.55-7.08,3.55s-7.08-1.59-7.08-3.55c0-.06,.01-.12,.02-.18,.19,1.87,3.27,3.36,7.06,3.36Z"/><path class="cls-215" d="M92.43,179.75h6.55s2.48,3.43,2.48,3.96c0,1.59-2.58,2.89-5.76,2.89s-5.76-1.29-5.76-2.89c0-.53,2.48-3.96,2.48-3.96Z"/><path class="cls-90" d="M92.43,180.13c0,.91,1.47,1.64,3.28,1.64s3.28-.74,3.28-1.64-1.47-1.64-3.28-1.64-3.28,.74-3.28,1.64Z"/><path class="cls-181" d="M92.43,172.62h6.55v7.03h0s0,.02,0,.03c0,1.05-1.47,1.91-3.28,1.91s-3.28-.85-3.28-1.91c0,0,0-.02,0-.03h0v-7.03Z"/><path class="cls-61" d="M92.43,172.63c0,.91,1.47,1.64,3.28,1.64s3.28-.74,3.28-1.64-1.47-1.64-3.28-1.64-3.28,.74-3.28,1.64Z"/><path class="cls-169" d="M91.28,169.59c0,2.44,1.98,4.43,4.43,4.43s4.43-1.98,4.43-4.43-1.98-4.43-4.43-4.43-4.43,1.98-4.43,4.43Z"/><path class="cls-76" d="M114.53,138.89s.01,1.92,0,1.99c-3.26,23.66-11.97,29.67-18.86,29.67s-16.07-8.28-18.86-29.67c0-.07,0-1.99,0-1.99h37.71Z"/><path class="cls-20" d="M85.73,143s.46,1.47,.48,1.53c5.01,18.33,4.73,23.47,3.38,23.89-1.35,.42-5.14-5.36-10.79-21.58-.02-.06-.48-1.53-.48-1.53l7.41-2.31Z"/><path class="cls-16" d="M114.64,140.89s-.37,1.77-.39,1.84c-5.88,21.55-14.33,26.62-17.01,26.06-2.69-.57-.77-9.21,2.31-29.16,.01-.07,.39-1.84,.39-1.84l14.7,3.11Z"/><path class="cls-134" d="M76.11,135.51h39.12v2.22h0c0,.05,0,.1,0,.16,0,6.29-8.76,11.39-19.56,11.39s-19.56-5.1-19.56-11.39c0-.05,0-.1,0-.16h0v-2.22Z"/><ellipse class="cls-166" cx="95.67" cy="135.59" rx="19.56" ry="11.39"/><path class="cls-6" d="M95.67,146.67c10.57,0,19.16-4.89,19.53-10.99,0,.13,.03,.26,.03,.4,0,6.29-8.76,11.39-19.56,11.39s-19.56-5.1-19.56-11.39c0-.13,.03-.26,.03-.4,.36,6.11,8.95,10.99,19.53,10.99Z"/><ellipse class="cls-107" cx="95.67" cy="135.5" rx="18.44" ry="10.31"/><ellipse class="cls-32" cx="95.67" cy="135.5" rx="18.44" ry="10.31"/><path class="cls-12" d="M85.4,124.62c-4.4,1.5-7.36,4.47-6.62,6.65,.74,2.18,4.9,2.73,9.3,1.23,4.4-1.5,7.36-4.47,6.62-6.65-.74-2.18-4.9-2.73-9.3-1.23Z"/><g><path class="cls-136" d="M73.57,148.78c1.7-4.38,7.06-5.38,7.06-5.38l2.83,1.54s-5.31,.98-6.99,5.32c-1.67,4.32-1.68,10.79,6.17,14.48-.81-.38-1.73-.81-2.78-1.3-7.99-3.72-7.99-10.28-6.29-14.66Z"/><path class="cls-122" d="M76.47,150.26c1.68-4.33,6.99-5.32,6.99-5.32l-.12,1.43c-1.14,.42-4.51,1.45-5.64,4.36-2.21,5.7-.05,10.22,5.55,12.83,4.06,1.89,6.16,2.87,7.24,3.37l.6,1.73s-.49-.22-8.4-3.9c-7.91-3.68-7.91-10.17-6.23-14.51Z"/><path class="cls-50" d="M79.87,161.38c.09,.06,.18,.12,.28,.19,1.9,1.18,5.94,2.86,5.94,2.86l4.41,2.51c-1.08-.5-3.18-1.48-7.24-3.37-1.36-.63-2.49-1.36-3.39-2.19Z"/><path class="cls-21" d="M76.15,150.26c1.68-4.33,6.99-5.32,6.99-5.32l.14,.16c-1.14,.39-5.22,1.57-6.63,5.2-1.62,4.19-1.65,10.41,5.46,14.13-7.45-3.7-7.6-9.93-5.95-14.18Z"/></g><path class="cls-15" d="M78.11,146.92c-1.2-.75-2.56-.75-3.04,.01s.11,1.99,1.31,2.75c1.2,.75,2.56,.75,3.04-.01,.48-.76-.11-1.99-1.31-2.75Z"/><path class="cls-23" d="M99.94,190.91c2.18,3,2.73,1.75,4.21,.66s1.96-1.65-.22-4.65c-2.18-3-5.16-7.95-6.65-6.87-1.49,1.08,.48,7.86,2.66,10.86Z"/><path class="cls-10" d="M102.88,189.04c-1.86,.63-3.11,1.89-2.8,2.81,.31,.92,2.08,1.15,3.94,.52,1.86-.63,3.11-1.89,2.8-2.81-.31-.92-2.08-1.15-3.94-.52Z"/></g></g></g></g></svg>