<?xml version="1.0" encoding="UTF-8"?>
<svg id="Layer_2" data-name="Layer 2" xmlns="http://www.w3.org/2000/svg" viewBox="0 0 816.89 152.26">
  <g id="combined_white" data-name="combined white">
    <g>
      <path d="M271.55,137.71L355.06,11.48v-.78l-96.53-.11v5.02l87.93,.12-83.69,126.23v.78h98.38v-5.03h-89.6Z" fill="#fff"/>
      <path d="M393.31,142.74h-5.04V10.71h5.04V142.74Z" fill="#fff"/>
      <path d="M473.36,9.36h-.79l-60.58,133.38h5.8l17.46-38.66,2.2-5.03,35.52-78.49,35.5,78.49,2.2,5.03,17.46,38.66h5.82L473.36,9.36Z" fill="#fff"/>
      <path d="M559.46,137.71h63.33v5.03h-68.37V10.71h5.04v127Z" fill="#fff"/>
      <path d="M648.71,137.71h63.33v5.03h-68.38V10.71h5.04v127Z" fill="#fff"/>
      <path d="M761.22,81.65l49.51-70.94h6.16l-53.06,75.2-.19,56.83h-4.86l-.19-56.64-52.68-75.39h6.16l49.13,70.94Z" fill="#fff"/>
      <path d="M190.13,10.91c-36.29,0-65.81,29.52-65.81,65.81s29.52,65.82,65.81,65.82,65.82-29.53,65.82-65.82S226.43,10.91,190.13,10.91Zm0,126.24c-33.32,0-60.43-27.11-60.43-60.43s27.11-60.43,60.43-60.43,60.44,27.11,60.44,60.43-27.11,60.43-60.44,60.43Z" fill="#fff"/>
      <g>
        <path d="M17.46,30.12l.16,.07h.6v.76s0,.49,0,.49l31.9-14.38v-1.66L17.46,30.12Zm0,0l.16,.07h.6v.76s0,.49,0,.49l31.9-14.38v-1.66L17.46,30.12Zm0,0l.16,.07h.6v.76s0,.49,0,.49l31.9-14.38v-1.66L17.46,30.12Zm0,0l.16,.07h.6v.76s0,.49,0,.49l31.9-14.38v-1.66L17.46,30.12Zm0,0l.16,.07h.6v.76s0,.49,0,.49l31.9-14.38v-1.66L17.46,30.12Zm0,0l.16,.07h.6v.76s0,.49,0,.49l31.9-14.38v-1.66L17.46,30.12Zm0,0l.16,.07h.6v.76s0,.49,0,.49l31.9-14.38v-1.66L17.46,30.12ZM50.88,15.06l-.76,.34h0S17.46,30.12,17.46,30.12l-.76,.34v31.1l.76,.34,.92-.41h0l.92-.42h0l14.86-6.7,.76-.34v-15.06l15.95-7.19,.76-.34V15.4l-.76-.34Zm-17.46,22.93v15.06l-15.19,6.85V31.44l31.9-14.38v13.4l-16.71,7.53Zm-15.95-7.87l.16,.07h.6v.76s0,.49,0,.49l31.9-14.38v-1.66L17.46,30.12Zm0,0l.16,.07h.6v.76s0,.49,0,.49l31.9-14.38v-1.66L17.46,30.12Zm0,0l.16,.07h.6v.76s0,.49,0,.49l31.9-14.38v-1.66L17.46,30.12Zm0,0l.16,.07h.6v.76s0,.49,0,.49l31.9-14.38v-1.66L17.46,30.12Zm0,0l.16,.07h.6v.76s0,.49,0,.49l31.9-14.38v-1.66L17.46,30.12Zm0,0l.16,.07h.6v.76s0,.49,0,.49l31.9-14.38v-1.66L17.46,30.12Zm0,0l.16,.07h.6v.76s0,.49,0,.49l31.9-14.38v-1.66L17.46,30.12Z" fill="#fff"/>
        <g>
          <path d="M83.53,90.85l-15.95-7.19-16.71-7.53-32.49-14.64h0l-.92-.42V30.95l-.76-.34L.76,23.42v45.18l16.71,7.53,16.71,7.53,33.41,15.06v15.06l15.78,7.12h0l.16,.07,.76,.34v-30.12l-.76-.34Zm0,29.29l-15.19-6.85v-15.06l-49.4-22.26-.72-.33-.59-.27-1.84-.83-14.27-6.43V24.59l15.19,6.85v30.12l.76,.34,48.37,21.8,1,.45,.59,.27,1.35,.61,14.76,6.66v28.46Z" fill="#fff"/>
          <path d="M83.53,91.68v28.46l.76,.34v-28.46l-.76-.34Zm-15.95-8.02l-16.71-7.53-32.49-14.64h0l-.92,.41,48.37,21.8,1,.45,.59,.27,1.35,.61,14.76,6.66v-.83l-15.95-7.19Zm15.95,8.02v28.46l.76,.34v-28.46l-.76-.34Zm-15.95-8.02l-16.71-7.53-32.49-14.64h0l-.92,.41,48.37,21.8,1,.45,.59,.27,1.35,.61,14.76,6.66v-.83l-15.95-7.19Zm15.95,8.02v28.46l.76,.34v-28.46l-.76-.34Zm-15.95-8.02l-16.71-7.53-32.49-14.64h0l-.92,.41,48.37,21.8,1,.45,.59,.27,1.35,.61,14.76,6.66v-.83l-15.95-7.19Zm15.95,8.02v28.46l.76,.34v-28.46l-.76-.34Zm-15.95-8.02l-16.71-7.53-32.49-14.64h0l-.92,.41,48.37,21.8,1,.45,.59,.27,1.35,.61,14.76,6.66v-.83l-15.95-7.19Zm16.71,6.7l-15.95-7.19L19.31,61.07h0l-1.08-.49V30.19h-.6l-.16-.07L2.6,23.42h0l-1.84-.83-.76,.34v46.16l66.83,30.12v15.06l.76,.34,14.86,6.7,1.09,.49,.76,.34,.76-.34v-31.1l-.76-.34Zm-.76,29.78l-15.19-6.85v-15.06l-49.4-22.26-.72-.33-.59-.27-1.84-.83-14.27-6.43V24.59l15.19,6.85v30.12l.76,.34,48.37,21.8,1,.45,.59,.27,1.35,.61,14.76,6.66v28.46Zm-15.95-36.48l-16.71-7.53-32.49-14.64h0l-.92,.41,48.37,21.8,1,.45,.59,.27,1.35,.61,14.76,6.66v-.83l-15.95-7.19Zm15.95,8.02v28.46l.76,.34v-28.46l-.76-.34Zm-15.95-8.02l-16.71-7.53-32.49-14.64h0l-.92,.41,48.37,21.8,1,.45,.59,.27,1.35,.61,14.76,6.66v-.83l-15.95-7.19Zm15.95,8.02v28.46l.76,.34v-28.46l-.76-.34Zm-15.95-8.02l-16.71-7.53-32.49-14.64h0l-.92,.41,48.37,21.8,1,.45,.59,.27,1.35,.61,14.76,6.66v-.83l-15.95-7.19Zm15.95,8.02v28.46l.76,.34v-28.46l-.76-.34Zm-15.95-8.02l-16.71-7.53-32.49-14.64h0l-.92,.41,48.37,21.8,1,.45,.59,.27,1.35,.61,14.76,6.66v-.83l-15.95-7.19Zm15.95,8.02v28.46l.76,.34v-28.46l-.76-.34Z" fill="#fff"/>
          <polygon points="83.53 91.68 83.53 120.14 68.34 113.29 68.34 98.23 18.94 75.97 18.22 75.64 17.63 75.37 15.79 74.54 1.52 68.11 1.52 24.59 16.71 31.44 16.71 61.56 17.47 61.9 65.83 83.7 66.83 84.15 67.42 84.42 68.77 85.02 83.53 91.68" fill="#fff"/>
        </g>
        <path d="M17.46,30.12l.16,.07h.6v.76s0,.49,0,.49l31.9-14.38v-1.66L17.46,30.12Zm0,0l.16,.07h.6v.76s0,.49,0,.49l31.9-14.38v-1.66L17.46,30.12Zm0,0l.16,.07h.6v.76s0,.49,0,.49l31.9-14.38v-1.66L17.46,30.12Zm0,0l.16,.07h.6v.76s0,.49,0,.49l31.9-14.38v-1.66L17.46,30.12Zm83.53-7.53L50.88,0,.76,22.59l-.76,.34v.98l.76,.34,.76,.34,15.19,6.85,.44,.2,.15,.07h.33l.6-.27,31.9-14.38,.76-.34,.76,.34,31.9,14.38,.76,.34,.76-.34,15.19-6.85,1.52-.68v-.98l-.76-.34Zm-16.7,7.53L51.64,15.4l-.76-.34-.76,.34L17.46,30.12,2.6,23.42,50.88,1.66l48.27,21.76-14.86,6.7Zm-66.83,0l.16,.07h.6v.76s0,.49,0,.49l31.9-14.38v-1.66L17.46,30.12Zm0,0l.16,.07h.6v.76s0,.49,0,.49l31.9-14.38v-1.66L17.46,30.12Zm0,0l.16,.07h.6v.76s0,.49,0,.49l31.9-14.38v-1.66L17.46,30.12Zm0,0l.16,.07h.6v.76s0,.49,0,.49l31.9-14.38v-1.66L17.46,30.12Z" fill="#fff"/>
        <g>
          <path d="M83.53,30.61l-15.95-7.19-15.95-7.19-.76-.34v15.06l.76,.34,15.95,7.19,15.95,7.19,.76,.34v-15.06l-.76-.34Zm0,14.23l-15.64-7.05-.15-.07-16.11-7.26v-13.4l31.9,14.38v13.4Z" fill="#fff"/>
          <path d="M84.29,30.12L51.64,15.4h0s-.76-.34-.76-.34l-.76,.34V31.44l.76,.34,32.65,14.72,.76,.34,.76-.34V30.46l-.76-.34Zm-.76,14.72l-15.64-7.05-.15-.07-16.11-7.26v-13.4l31.9,14.38v13.4Z" fill="#fff"/>
          <polygon points="83.53 31.44 83.53 44.84 67.9 37.79 67.75 37.72 51.64 30.46 51.64 17.07 83.53 31.44" fill="#fff"/>
        </g>
        <path d="M101,22.59l-1.84,.83-14.86,6.7-.76,.34v16.04l.76,.34,.76-.34,16.71-7.53V22.93l-.76-.34Zm-.76,15.4l-15.19,6.85v-13.4l15.19-6.85v13.4Z" fill="#fff"/>
        <path d="M101,82.83L34.93,53.05l-.76-.34-.76,.34-15.19,6.85-.76,.34-.31,.14-.44,.2v.98l.76,.34,48.37,21.8,1,.45,.59,.27,1.35,.61,14.76,6.66,.76,.34,.76-.34,15.19-6.84,1.52-.68v-.98l-.76-.34Zm-16.71,7.53l-15.95-7.19L19.31,61.07l14.86-6.7,64.98,29.29-14.86,6.7Z" fill="#fff"/>
        <path d="M84.29,120.48l-.76,.34v1.66l1.52-.68v-1.66l-.76,.34Z" fill="#fff"/>
        <g>
          <path d="M50.12,136.03l-15.95-7.19-16.71-7.53h0L.76,113.78v15.06l16.71,7.53h0l16.71,7.53,15.95,7.19,.76,.34v-15.06l-.76-.34Zm0,14.23l-32.34-14.58-.15-.07-16.12-7.26v-13.4l48.61,21.91v13.4Z" fill="#fff"/>
          <path d="M50.88,135.54l-15.95-7.19L2.6,113.78l-1.84-.83-.76,.34v16.04l50.12,22.59,.76,.34,.76-.34v-16.04l-.76-.34Zm-.76,14.72l-32.34-14.58-.15-.07-16.12-7.26v-13.4l48.61,21.91v13.4Z" fill="#fff"/>
          <polygon points="50.12 136.86 50.12 150.26 17.78 135.68 17.63 135.61 1.52 128.35 1.52 114.95 50.12 136.86" fill="#fff"/>
        </g>
        <g>
          <path d="M84.29,92.02l-.76-.34v28.46l.76,.34,.76-.34v-28.46l-.76,.34Zm0,0l-.76-.34v30.8l1.52-.68v-30.12l-.76,.34Z" fill="#fff"/>
          <polygon points="101.76 83.17 101.76 129.33 51.64 151.92 50.88 152.26 50.12 151.92 50.12 135.88 50.88 135.54 82.45 121.31 83.37 120.9 83.37 120.9 83.53 120.82 83.53 122.48 51.64 136.86 51.64 150.26 100.24 128.35 100.24 84.84 85.05 91.68 84.29 92.02 83.53 91.68 83.53 90.7 84.29 90.36 99.15 83.66 101 82.83 101.76 83.17" fill="#fff"/>
        </g>
        <path d="M84.29,120.48l-.76-.34-15.19-6.85-.76-.34-.76,.34-15.95,7.19-33.41-15.06L.76,112.95l-.76,.34v.98l.76,.34,.76,.34,48.61,21.91,.76,.34,.76-.34,31.9-14.38,1.52-.68v-.98l-.76-.34Zm-33.41,15.06l-15.95-7.19L2.6,113.78l14.86-6.7,33.41,15.06,16.71-7.53,14.86,6.7-31.57,14.23Z" fill="#fff"/>
      </g>
    </g>
  </g>
</svg>