<?xml version="1.0" encoding="UTF-8"?>
<svg fill ="#FFFFFF" id="Layer_2" xmlns="http://www.w3.org/2000/svg" viewBox="0 0 336.41 382.77">
<g id="Layer_1-2">
<path d="M239.35,0c1.23,48.09,33.24,85.8,80.51,94.69,4.51,.85,9.17,.98,13.77,1.27,1.76,.11,2.79,.44,2.78,2.51-.06,19.46-.07,38.93-.11,58.39,0,.34-.24,.68-.46,1.29-17.32,.18-34.14-2.77-50.58-8.29-16.41-5.51-31.4-13.67-45.85-24.42,0,2.07,0,3.39,0,4.71,.13,43.55,.15,87.09,.42,130.64,.15,23.92-4.99,46.42-18.3,66.41-25.81,38.77-62.31,57.66-108.87,55.39-51.43-2.51-94.74-37.72-108.45-86.94-17.15-61.58,19.53-126.82,81.15-144.51,15.8-4.54,31.8-6.01,48.12-4.29,1.35,.14,2.69,.46,4.24,.74v62.94c-1.15-.22-2.18-.37-3.19-.63-37.19-9.43-72.32,18.71-71.11,56.99,.89,28.33,23.65,51.69,52.75,54.13,27.7,2.33,54.29-17.83,59.4-45.25,.88-4.75,1.14-9.67,1.15-14.51,.11-85.22,.13-170.44,.19-255.66,0-1.86,.18-3.73,.27-5.59,20.72,0,41.43,0,62.15,0Z"/></g></svg>